<svg width="51" height="51" viewBox="0 0 51 51" fill="none" xmlns="http://www.w3.org/2000/svg">
<rect width="51" height="51" rx="25.5" fill="url(#paint0_linear_50_1993)"/>
<path d="M25.5 11.2302C30.1461 11.2302 30.6969 11.2455 32.5329 11.3322C34.2312 11.4087 35.1543 11.6943 35.7663 11.934C36.5772 12.2502 37.1586 12.6276 37.7655 13.2345C38.3724 13.8414 38.7498 14.4228 39.066 15.2337C39.3057 15.8457 39.5862 16.7688 39.6678 18.4671C39.7494 20.3031 39.7698 20.8539 39.7698 25.5C39.7698 30.1461 39.7545 30.6969 39.6678 32.5329C39.5913 34.2312 39.3057 35.1543 39.066 35.7663C38.7498 36.5772 38.3724 37.1586 37.7655 37.7655C37.1586 38.3724 36.5772 38.7498 35.7663 39.066C35.1543 39.3057 34.2312 39.5862 32.5329 39.6678C30.6969 39.7494 30.1461 39.7698 25.5 39.7698C20.8539 39.7698 20.3031 39.7545 18.4671 39.6678C16.7688 39.5913 15.8457 39.3057 15.2337 39.066C14.4228 38.7498 13.8414 38.3724 13.2345 37.7655C12.6276 37.1586 12.2502 36.5772 11.934 35.7663C11.6943 35.1543 11.4138 34.2312 11.3322 32.5329C11.2506 30.6969 11.2302 30.1461 11.2302 25.5C11.2302 20.8539 11.2455 20.3031 11.3322 18.4671C11.4087 16.7688 11.6943 15.8457 11.934 15.2337C12.2502 14.4228 12.6276 13.8414 13.2345 13.2345C13.8414 12.6276 14.4228 12.2502 15.2337 11.934C15.8457 11.6943 16.7688 11.4138 18.4671 11.3322C20.3031 11.2455 20.8539 11.2302 25.5 11.2302ZM25.5 8.0937C20.7723 8.0937 20.1807 8.1141 18.3243 8.2008C16.473 8.2875 15.2082 8.5782 14.0964 9.0117C12.954 9.4503 11.9799 10.047 11.016 11.016C10.047 11.985 9.45542 12.954 9.00662 14.1015C8.57822 15.2082 8.28242 16.473 8.19572 18.3294C8.10902 20.1858 8.08862 20.7774 8.08862 25.5051C8.08862 30.2328 8.10902 30.8244 8.19572 32.6808C8.28242 34.5321 8.57312 35.7969 9.00662 36.9087C9.45032 38.046 10.047 39.0201 11.016 39.984C11.985 40.953 12.954 41.5446 14.1015 41.9934C15.2082 42.4218 16.473 42.7176 18.3294 42.8043C20.1858 42.891 20.7774 42.9114 25.5051 42.9114C30.2328 42.9114 30.8244 42.891 32.6808 42.8043C34.5321 42.7176 35.7969 42.4269 36.9087 41.9934C38.046 41.5497 39.0201 40.953 39.984 39.984C40.953 39.015 41.5446 38.046 41.9934 36.8985C42.4218 35.7918 42.7176 34.527 42.8043 32.6706C42.891 30.8142 42.9114 30.2226 42.9114 25.4949C42.9114 20.7672 42.891 20.1756 42.8043 18.3192C42.7176 16.4679 42.4269 15.2031 41.9934 14.0913C41.5497 12.954 40.953 11.9799 39.984 11.016C39.015 10.047 38.046 9.4554 36.8985 9.0066C35.7918 8.5782 34.527 8.2824 32.6706 8.1957C30.8193 8.1141 30.2277 8.0937 25.5 8.0937Z" fill="white"/>
<path d="M25.5001 16.5597C20.5633 16.5597 16.5598 20.5632 16.5598 25.5C16.5598 30.4368 20.5633 34.4403 25.5001 34.4403C30.4369 34.4403 34.4404 30.4368 34.4404 25.5C34.4404 20.5632 30.4369 16.5597 25.5001 16.5597ZM25.5001 31.3038C22.2973 31.3038 19.6963 28.7079 19.6963 25.5C19.6963 22.2921 22.2973 19.6962 25.5001 19.6962C28.7029 19.6962 31.3039 22.2921 31.3039 25.5C31.3039 28.7079 28.7029 31.3038 25.5001 31.3038Z" fill="white"/>
<path d="M34.7922 18.2988C35.947 18.2988 36.8832 17.3626 36.8832 16.2078C36.8832 15.053 35.947 14.1168 34.7922 14.1168C33.6373 14.1168 32.7012 15.053 32.7012 16.2078C32.7012 17.3626 33.6373 18.2988 34.7922 18.2988Z" fill="white"/>
<defs>
<linearGradient id="paint0_linear_50_1993" x1="7.46877" y1="43.5312" x2="43.5312" y2="7.46877" gradientUnits="userSpaceOnUse">
<stop stop-color="#FFD521"/>
<stop offset="0.0551048" stop-color="#FFD020"/>
<stop offset="0.1241" stop-color="#FEC01E"/>
<stop offset="0.2004" stop-color="#FCA71B"/>
<stop offset="0.2821" stop-color="#FA8316"/>
<stop offset="0.3681" stop-color="#F85510"/>
<stop offset="0.4563" stop-color="#F51E09"/>
<stop offset="0.5" stop-color="#F30005"/>
<stop offset="0.5035" stop-color="#F20007"/>
<stop offset="0.5966" stop-color="#E1003B"/>
<stop offset="0.6879" stop-color="#D30067"/>
<stop offset="0.7757" stop-color="#C70088"/>
<stop offset="0.8589" stop-color="#BF00A0"/>
<stop offset="0.9357" stop-color="#BB00AF"/>
<stop offset="1" stop-color="#B900B4"/>
</linearGradient>
</defs>
</svg>
