<svg width="51" height="51" viewBox="0 0 51 51" fill="none" xmlns="http://www.w3.org/2000/svg">
<rect width="51" height="51" rx="25.5" fill="black"/>
<path d="M40.6405 18.1442V23.5599C40.3494 23.5599 40 23.6182 39.6506 23.6182C37.0301 23.6182 34.5843 22.6282 32.7208 21.0559V32.5861C32.7208 34.9154 31.9638 37.1282 30.6244 38.8752C28.761 41.3793 25.7329 43.068 22.2971 43.068C18.5702 43.068 15.3091 41.0881 13.5039 38.1764C15.3674 39.9234 17.8714 41.0299 20.6083 41.0299C23.9859 41.0299 27.014 39.3993 28.8775 36.8371C30.1586 35.0901 30.9738 32.9355 30.9738 30.5479V18.9595C32.8373 20.59 35.2249 21.5218 37.9036 21.5218C38.253 21.5218 38.5442 21.5218 38.8936 21.4635V17.9695C39.4176 18.086 39.8835 18.1442 40.4076 18.1442H40.6405Z" fill="#FF004F"/>
<path d="M23.7531 22.1623V28.1603C23.3454 28.0439 22.8796 27.9856 22.4719 27.9856C19.9097 27.9856 17.8133 30.1403 17.8133 32.7607C17.8133 33.3431 17.9297 33.8672 18.1044 34.3913C16.9398 33.5178 16.1245 32.1202 16.1245 30.5479C16.1245 27.9274 18.2209 25.7728 20.7832 25.7728C21.249 25.7728 21.6567 25.831 22.0643 25.9475V22.1041C22.1808 22.1041 22.2972 22.1041 22.4137 22.1041C22.8796 22.1041 23.3454 22.1041 23.7531 22.1623Z" fill="#FF004F"/>
<path d="M33.5945 13.835C32.5463 12.9033 31.7892 11.6221 31.3816 10.2828H32.7792C32.7792 10.5739 32.7792 10.8069 32.7792 11.098C32.8957 12.0298 33.1868 12.9615 33.5945 13.835Z" fill="#FF004F"/>
<path d="M38.9519 18.0278V21.5218C38.6608 21.58 38.3114 21.58 37.962 21.58C35.3415 21.58 32.8957 20.59 31.0322 19.0177V30.5479C31.0322 32.8772 30.2752 35.0901 28.9358 36.8371C27.0141 39.3993 24.0442 41.0299 20.6667 41.0299C17.9298 41.0299 15.4257 39.9234 13.5623 38.1764C12.5723 36.5459 11.99 34.6824 11.99 32.6443C11.99 26.9957 16.4739 22.3953 22.0643 22.2206V26.0639C21.6567 25.9475 21.1908 25.8892 20.7832 25.8892C18.2209 25.8892 16.1245 28.0439 16.1245 30.6644C16.1245 32.2367 16.8816 33.6925 18.1045 34.5077C18.745 36.313 20.492 37.6523 22.472 37.6523C25.0342 37.6523 27.1306 35.4977 27.1306 32.8772V10.2828H31.3816C31.7893 11.6804 32.5463 12.9033 33.5945 13.835C34.6427 15.9314 36.6226 17.5037 38.9519 18.0278Z" fill="white"/>
<path d="M22.0642 20.1242V22.1041C16.4739 22.2788 11.9899 26.8792 11.9899 32.5278C11.9899 34.566 12.5722 36.4294 13.5622 38.06C11.5823 36.1383 10.3594 33.4596 10.3594 30.4314C10.3594 24.6664 15.018 20.0077 20.7249 20.0077C21.1907 20.0077 21.6566 20.0659 22.0642 20.1242Z" fill="#00F7EF"/>
<path d="M31.3816 10.2828H27.1306V32.7608C27.1306 35.3812 25.0342 37.5359 22.472 37.5359C20.4338 37.5359 18.7451 36.2547 18.1045 34.3913C18.8615 34.9154 19.7933 35.2648 20.7832 35.2648C23.3455 35.2648 25.4419 33.1684 25.4419 30.5479V8.01167H31.0905V8.12814C31.0905 8.36107 31.0905 8.594 31.1487 8.82694C31.1487 9.2928 31.2652 9.8169 31.3816 10.2828Z" fill="#00F7EF"/>
<path d="M38.9518 15.8732V17.9695C36.6225 17.5037 34.6426 15.9314 33.5361 13.835C34.992 15.1744 36.8554 15.9314 38.9518 15.8732Z" fill="#00F7EF"/>
</svg>
