<?xml version="1.0" standalone="no"?>
<!DOCTYPE svg PUBLIC "-//W3C//DTD SVG 20010904//EN"
 "http://www.w3.org/TR/2001/REC-SVG-20010904/DTD/svg10.dtd">
<svg version="1.0" xmlns="http://www.w3.org/2000/svg"
 width="700.000000pt" height="700.000000pt" viewBox="0 0 700.000000 700.000000"
 preserveAspectRatio="xMidYMid meet">
<metadata>
Created by potrace 1.14, written by Peter Selinger 2001-2017
</metadata>
<g transform="translate(0.000000,700.000000) scale(0.100000,-0.100000)"
fill="#000000" stroke="none">
<path d="M1890 4965 c-462 -63 -880 -324 -1122 -700 -238 -368 -292 -822 -148
-1230 190 -535 683 -921 1279 -1001 157 -20 3045 -20 3202 0 520 70 964 372
1199 817 55 105 109 260 137 389 26 121 25 400 -1 525 -133 636 -661 1111
-1335 1201 -150 19 -3065 19 -3211 -1z m3230 -279 c275 -53 506 -173 695 -361
199 -199 316 -440 347 -716 37 -329 -92 -678 -342 -929 -226 -228 -506 -354
-841 -380 -163 -13 -2794 -13 -2957 0 -199 16 -345 56 -520 144 -450 227 -721
711 -663 1183 71 577 556 1023 1166 1072 55 5 757 8 1560 7 1369 -2 1466 -3
1555 -20z"/>
<path d="M2080 3860 l0 -150 -42 30 c-102 71 -250 77 -375 15 -279 -138 -278
-544 2 -680 49 -24 75 -30 152 -33 108 -5 156 9 229 64 l44 34 0 -45 0 -45 85
0 85 0 0 480 0 480 -90 0 -90 0 0 -150z m-109 -248 c206 -107 127 -415 -106
-415 -200 0 -301 237 -162 377 72 72 175 87 268 38z"/>
<path d="M2410 3930 l0 -80 90 0 90 0 0 80 0 80 -90 0 -90 0 0 -80z"/>
<path d="M3660 3930 l0 -80 90 0 90 0 0 80 0 80 -90 0 -90 0 0 -80z"/>
<path d="M4028 3893 l-3 -118 -42 -3 -43 -3 0 -74 0 -74 43 -3 42 -3 3 -282 2
-283 90 0 90 0 0 285 0 285 55 0 55 0 0 75 0 75 -55 0 -55 0 0 120 0 120 -90
0 -89 0 -3 -117z"/>
<path d="M5330 3530 l0 -480 90 0 90 0 0 480 0 480 -90 0 -90 0 0 -480z"/>
<path d="M2987 3780 c-103 -26 -201 -106 -246 -200 -23 -49 -26 -67 -26 -165
0 -98 3 -116 26 -166 36 -77 87 -130 161 -170 55 -29 74 -34 154 -37 110 -5
171 12 233 64 l41 36 0 -34 c0 -19 -12 -59 -27 -88 -22 -42 -38 -60 -72 -77
-80 -42 -234 -25 -280 30 -11 14 -33 17 -123 17 l-109 0 23 -41 c51 -92 172
-164 297 -178 216 -23 379 57 443 218 22 54 23 70 26 419 l3 362 -90 0 -91 0
0 -42 0 -42 -27 27 c-65 61 -213 93 -316 67z m194 -161 c90 -31 141 -104 142
-204 0 -95 -34 -160 -103 -195 -82 -41 -189 -32 -253 21 -56 46 -71 82 -71
169 -1 64 3 82 26 121 28 47 62 76 107 89 39 12 114 11 152 -1z"/>
<path d="M4655 3777 c-117 -31 -197 -97 -248 -205 -29 -61 -32 -76 -32 -162 0
-83 4 -103 29 -157 34 -74 113 -153 183 -185 60 -26 212 -36 277 -18 24 6 66
29 95 51 l51 39 0 -45 0 -45 85 0 85 0 0 360 0 360 -85 0 -85 0 0 -44 0 -44
-32 31 c-18 16 -53 39 -77 50 -55 24 -178 31 -246 14z m251 -182 c113 -71 133
-244 38 -339 -43 -42 -90 -59 -165 -59 -79 0 -135 27 -183 86 -25 31 -31 49
-34 101 -5 77 10 126 51 173 47 54 99 74 178 71 53 -3 76 -10 115 -33z"/>
<path d="M2410 3410 l0 -360 90 0 90 0 0 360 0 360 -90 0 -90 0 0 -360z"/>
<path d="M3660 3410 l0 -360 90 0 90 0 0 360 0 360 -90 0 -90 0 0 -360z"/>
</g>
</svg>
