<svg width="37" height="37" viewBox="0 0 37 37" fill="none" xmlns="http://www.w3.org/2000/svg">
<rect width="37" height="37" rx="18.5" fill="url(#paint0_linear_701_1113)"/>
<path d="M18.5 8.1474C21.8707 8.1474 22.2703 8.1585 23.6023 8.2214C24.8344 8.2769 25.5041 8.4841 25.9481 8.658C26.5364 8.8874 26.9582 9.1612 27.3985 9.6015C27.8388 10.0418 28.1126 10.4636 28.342 11.0519C28.5159 11.4959 28.7194 12.1656 28.7786 13.3977C28.8378 14.7297 28.8526 15.1293 28.8526 18.5C28.8526 21.8707 28.8415 22.2703 28.7786 23.6023C28.7231 24.8344 28.5159 25.5041 28.342 25.9481C28.1126 26.5364 27.8388 26.9582 27.3985 27.3985C26.9582 27.8388 26.5364 28.1126 25.9481 28.342C25.5041 28.5159 24.8344 28.7194 23.6023 28.7786C22.2703 28.8378 21.8707 28.8526 18.5 28.8526C15.1293 28.8526 14.7297 28.8415 13.3977 28.7786C12.1656 28.7231 11.4959 28.5159 11.0519 28.342C10.4636 28.1126 10.0418 27.8388 9.60149 27.3985C9.16119 26.9582 8.88739 26.5364 8.65799 25.9481C8.48409 25.5041 8.28059 24.8344 8.22139 23.6023C8.16219 22.2703 8.14739 21.8707 8.14739 18.5C8.14739 15.1293 8.15849 14.7297 8.22139 13.3977C8.27689 12.1656 8.48409 11.4959 8.65799 11.0519C8.88739 10.4636 9.16119 10.0418 9.60149 9.6015C10.0418 9.1612 10.4636 8.8874 11.0519 8.658C11.4959 8.4841 12.1656 8.2806 13.3977 8.2214C14.7297 8.1585 15.1293 8.1474 18.5 8.1474ZM18.5 5.8719C15.0701 5.8719 14.6409 5.8867 13.2941 5.9496C11.951 6.0125 11.0334 6.2234 10.2268 6.5379C9.39799 6.8561 8.69129 7.289 7.99199 7.992C7.28899 8.695 6.85979 9.398 6.53419 10.2305C6.22339 11.0334 6.00879 11.951 5.94589 13.2978C5.88299 14.6446 5.86819 15.0738 5.86819 18.5037C5.86819 21.9336 5.88299 22.3628 5.94589 23.7096C6.00879 25.0527 6.21969 25.9703 6.53419 26.7769C6.85609 27.602 7.28899 28.3087 7.99199 29.008C8.69499 29.711 9.39799 30.1402 10.2305 30.4658C11.0334 30.7766 11.951 30.9912 13.2978 31.0541C14.6446 31.117 15.0738 31.1318 18.5037 31.1318C21.9336 31.1318 22.3628 31.117 23.7096 31.0541C25.0527 30.9912 25.9703 30.7803 26.7769 30.4658C27.602 30.1439 28.3087 29.711 29.008 29.008C29.711 28.305 30.1402 27.602 30.4658 26.7695C30.7766 25.9666 30.9912 25.049 31.0541 23.7022C31.117 22.3554 31.1318 21.9262 31.1318 18.4963C31.1318 15.0664 31.117 14.6372 31.0541 13.2904C30.9912 11.9473 30.7803 11.0297 30.4658 10.2231C30.1439 9.398 29.711 8.6913 29.008 7.992C28.305 7.289 27.602 6.8598 26.7695 6.5342C25.9666 6.2234 25.049 6.0088 23.7022 5.9459C22.3591 5.8867 21.9299 5.8719 18.5 5.8719Z" fill="white"/>
<path d="M18.5 12.0139C14.9184 12.0139 12.0139 14.9184 12.0139 18.5C12.0139 22.0816 14.9184 24.9861 18.5 24.9861C22.0816 24.9861 24.9861 22.0816 24.9861 18.5C24.9861 14.9184 22.0816 12.0139 18.5 12.0139ZM18.5 22.7106C16.1764 22.7106 14.2894 20.8273 14.2894 18.5C14.2894 16.1727 16.1764 14.2894 18.5 14.2894C20.8236 14.2894 22.7106 16.1727 22.7106 18.5C22.7106 20.8273 20.8236 22.7106 18.5 22.7106Z" fill="white"/>
<path d="M25.2414 13.2756C26.0792 13.2756 26.7584 12.5964 26.7584 11.7586C26.7584 10.9208 26.0792 10.2416 25.2414 10.2416C24.4036 10.2416 23.7244 10.9208 23.7244 11.7586C23.7244 12.5964 24.4036 13.2756 25.2414 13.2756Z" fill="white"/>
<defs>
<linearGradient id="paint0_linear_701_1113" x1="5.41852" y1="31.5815" x2="31.5815" y2="5.41852" gradientUnits="userSpaceOnUse">
<stop stop-color="#FFD521"/>
<stop offset="0.0551048" stop-color="#FFD020"/>
<stop offset="0.1241" stop-color="#FEC01E"/>
<stop offset="0.2004" stop-color="#FCA71B"/>
<stop offset="0.2821" stop-color="#FA8316"/>
<stop offset="0.3681" stop-color="#F85510"/>
<stop offset="0.4563" stop-color="#F51E09"/>
<stop offset="0.5" stop-color="#F30005"/>
<stop offset="0.5035" stop-color="#F20007"/>
<stop offset="0.5966" stop-color="#E1003B"/>
<stop offset="0.6879" stop-color="#D30067"/>
<stop offset="0.7757" stop-color="#C70088"/>
<stop offset="0.8589" stop-color="#BF00A0"/>
<stop offset="0.9357" stop-color="#BB00AF"/>
<stop offset="1" stop-color="#B900B4"/>
</linearGradient>
</defs>
</svg>
