<svg width="37" height="37" viewBox="0 0 37 37" fill="none" xmlns="http://www.w3.org/2000/svg">
<rect width="37" height="37" rx="18.5" fill="black"/>
<path d="M29.4844 13.1635V17.0925C29.2731 17.0925 29.0196 17.1347 28.7662 17.1347C26.865 17.1347 25.0906 16.4165 23.7387 15.2758V23.6409C23.7387 25.3308 23.1895 26.9362 22.2178 28.2036C20.8659 30.0203 18.669 31.2454 16.1764 31.2454C13.4725 31.2454 11.1067 29.809 9.797 27.6966C11.1489 28.9641 12.9656 29.7668 14.9512 29.7668C17.4016 29.7668 19.5984 28.5838 20.9504 26.7249C21.8798 25.4575 22.4713 23.8944 22.4713 22.1622V13.7549C23.8232 14.9379 25.5553 15.6138 27.4987 15.6138C27.7522 15.6138 27.9635 15.6138 28.2169 15.5716V13.0367C28.5972 13.1212 28.9352 13.1635 29.3154 13.1635H29.4844Z" fill="#FF004F"/>
<path d="M17.2326 16.0785V20.43C16.9368 20.3455 16.5989 20.3033 16.3031 20.3033C14.4442 20.3033 12.9233 21.8665 12.9233 23.7676C12.9233 24.1901 13.0078 24.5703 13.1346 24.9505C12.2896 24.3168 11.6981 23.3029 11.6981 22.1622C11.6981 20.261 13.2191 18.6979 15.0779 18.6979C15.4159 18.6979 15.7117 18.7401 16.0074 18.8246V16.0363C16.0919 16.0363 16.1764 16.0363 16.2609 16.0363C16.5989 16.0363 16.9368 16.0363 17.2326 16.0785Z" fill="#FF004F"/>
<path d="M24.3724 10.0371C23.612 9.36119 23.0628 8.43174 22.767 7.46004H23.781C23.781 7.67128 23.781 7.84027 23.781 8.05151C23.8655 8.72747 24.0767 9.40343 24.3724 10.0371Z" fill="#FF004F"/>
<path d="M28.2592 13.079V15.6138C28.048 15.6561 27.7945 15.6561 27.541 15.6561C25.6399 15.6561 23.8655 14.9379 22.5135 13.7972V22.1622C22.5135 23.8521 21.9643 25.4575 20.9926 26.7249C19.5985 28.5838 17.4438 29.7668 14.9935 29.7668C13.0078 29.7668 11.1912 28.9641 9.83926 27.6966C9.12105 26.5137 8.69858 25.1618 8.69858 23.6831C8.69858 19.5851 11.9516 16.2475 16.0074 16.1208V18.9091C15.7117 18.8246 15.3737 18.7824 15.078 18.7824C13.2191 18.7824 11.6982 20.3456 11.6982 22.2467C11.6982 23.3874 12.2474 24.4436 13.1346 25.035C13.5993 26.3447 14.8667 27.3164 16.3031 27.3164C18.162 27.3164 19.6829 25.7532 19.6829 23.8521V7.46004H22.767C23.0627 8.47399 23.612 9.36119 24.3724 10.0371C25.1329 11.5581 26.5693 12.6987 28.2592 13.079Z" fill="white"/>
<path d="M16.0074 14.5999V16.0363C11.9516 16.1631 8.69856 19.5006 8.69856 23.5986C8.69856 25.0773 9.12103 26.4292 9.83924 27.6121C8.40282 26.218 7.51562 24.2746 7.51562 22.0777C7.51562 17.8952 10.8954 14.5154 15.0357 14.5154C15.3737 14.5154 15.7117 14.5576 16.0074 14.5999Z" fill="#00F7EF"/>
<path d="M22.767 7.46005H19.6829V23.7676C19.6829 25.6687 18.162 27.2319 16.3031 27.2319C14.8245 27.2319 13.5993 26.3025 13.1346 24.9505C13.6838 25.3308 14.3598 25.5843 15.078 25.5843C16.9369 25.5843 18.4578 24.0633 18.4578 22.1622V5.81239H22.5558V5.89689C22.5558 6.06588 22.5558 6.23487 22.598 6.40386C22.598 6.74184 22.6825 7.12207 22.767 7.46005Z" fill="#00F7EF"/>
<path d="M28.2592 11.5158V13.0367C26.5693 12.6987 25.1329 11.5581 24.3302 10.0371C25.3864 11.0088 26.7383 11.5581 28.2592 11.5158Z" fill="#00F7EF"/>
</svg>
