<svg width="129" height="51" viewBox="0 0 129 51" fill="none" xmlns="http://www.w3.org/2000/svg">
<path d="M1.44515 15.501C1.4271 15.1926 1.44222 14.8499 1.44222 14.5379H1.44515V6.76087C1.44515 6.76087 0.963444 6.76087 0 6.76087C0 6.76087 0 5.86877 0 4.08455C0 4.08455 0.481702 4.08455 1.44515 4.08455C1.44515 4.08455 1.44515 2.72429 1.44515 0C1.44515 0 2.42712 0 4.39849 0C4.39849 0 4.39849 1.36403 4.39849 4.08455C4.39849 4.08455 4.99135 4.08455 6.17713 4.08455C6.17713 4.08455 6.17713 4.97666 6.17713 6.76087C6.17713 6.76087 5.58422 6.76087 4.39849 6.76087V14.5379H5.98003V17.0061H3.04988C2.51586 17.0061 2.04055 16.7435 1.74778 16.3418C1.62651 16.183 1.52289 15.9198 1.44511 15.501H1.44515Z" fill="#E63D1A"/>
<path d="M32.3598 20.4345C32.3598 20.4345 32.3598 14.9861 32.3598 4.08537C32.3598 4.08537 33.2603 4.08537 35.0649 4.08537C35.0649 4.08537 35.0649 4.56839 35.0649 5.53047C36.0394 4.3803 37.392 3.80511 39.1113 3.80511C40.286 3.80511 41.3383 4.07427 42.2721 4.61993C43.2059 5.16181 43.9359 5.92112 44.4585 6.89073C44.9847 7.8639 45.2477 8.95877 45.2477 10.1753C45.2477 11.3992 44.9809 12.505 44.4547 13.4857C43.9248 14.47 43.1948 15.2404 42.2574 15.7971C41.3198 16.3537 40.2637 16.6339 39.0928 16.6339C38.3405 16.6339 37.6623 16.5196 37.0622 16.2875C36.4617 16.0588 35.8764 15.6939 35.3132 15.1962V20.4345H32.3598ZM38.6666 6.50364C37.6699 6.50364 36.8325 6.8612 36.1543 7.58007C35.4799 8.29519 35.1391 9.19106 35.1391 10.2637C35.1391 11.3071 35.4873 12.1807 36.1802 12.8812C36.8769 13.5816 37.7328 13.9354 38.7557 13.9354C39.7451 13.9354 40.5787 13.5779 41.2568 12.8701C41.935 12.1623 42.2721 11.2849 42.2721 10.2417C42.2721 9.16153 41.9313 8.26942 41.2531 7.56164C40.5713 6.85763 39.7116 6.50364 38.6666 6.50364Z" fill="#E63D1A"/>
<path d="M59.4957 4.08517C59.4957 4.08517 59.4957 8.16992 59.4957 16.3426C59.4957 16.3426 58.5952 16.3426 56.7907 16.3426C56.7907 16.3426 56.7907 15.8118 56.7907 14.7538C56.1978 15.4247 55.5864 15.9038 54.9526 16.1951C54.3191 16.4901 53.5668 16.6338 52.6997 16.6338C51.5103 16.6338 50.4468 16.361 49.5018 15.8191C48.5569 15.2735 47.8195 14.5179 47.2858 13.5446C46.756 12.5714 46.4893 11.4803 46.4893 10.2637C46.4893 9.0325 46.756 7.92296 47.2934 6.94226C47.8269 5.95799 48.5716 5.19134 49.5277 4.63459C50.4839 4.08161 51.5621 3.80511 52.7627 3.80511C53.6558 3.80511 54.4229 3.95634 55.064 4.26237C55.7087 4.56819 56.2867 5.05478 56.7907 5.72569V4.08537H59.4957V4.08517ZM53.0258 6.50364C51.9956 6.50364 51.1471 6.86476 50.4801 7.58364C49.8095 8.30252 49.4759 9.21663 49.4759 10.3264C49.4759 11.399 49.813 12.2691 50.4912 12.9363C51.1656 13.5999 52.0438 13.9352 53.1221 13.9352C54.1931 13.9352 55.0564 13.5961 55.7123 12.9179C56.3682 12.2434 56.6943 11.3548 56.6943 10.2637C56.6943 9.1542 56.3534 8.25099 55.6679 7.55054C54.9823 6.85386 54.1041 6.50364 53.0258 6.50364Z" fill="#E63D1A"/>
<path d="M71.4155 4.08537C71.4155 4.08537 72.3569 4.08537 74.2355 4.08537C74.2355 4.08537 74.2355 7.39575 74.2355 14.0203C74.2355 15.2368 74.1319 16.2469 73.9169 17.0506C73.7019 17.8541 73.3572 18.5399 72.8793 19.1075C71.7084 20.5266 70.0335 21.2346 67.8545 21.2346C66.3465 21.2346 65.0421 20.8917 63.9342 20.2097C62.8261 19.5239 62.022 18.5692 61.5255 17.338H64.8789C65.3125 17.8099 65.7645 18.149 66.2353 18.3444C66.7059 18.5434 67.2839 18.6429 67.9732 18.6429C69.0738 18.6429 69.9076 18.3185 70.4817 17.6698C71.0525 17.0246 71.3637 16.0403 71.4155 14.7205C70.8338 15.399 70.2335 15.8855 69.6073 16.1878C68.9811 16.4863 68.2326 16.6338 67.3656 16.6338C66.2056 16.6338 65.168 16.3575 64.2454 15.8045C63.3228 15.2477 62.6039 14.4773 62.0887 13.4857C61.5737 12.4939 61.3181 11.377 61.3181 10.1309C61.3181 8.31739 61.8925 6.80966 63.0448 5.60776C64.1936 4.40606 65.6424 3.80511 67.3877 3.80511C69.1517 3.80511 70.4967 4.41716 71.4157 5.64087V4.08537H71.4155ZM67.6803 6.50364C66.6651 6.50364 65.8498 6.84653 65.231 7.53587C64.6122 8.22165 64.3046 9.132 64.3046 10.2637C64.3046 11.377 64.616 12.2691 65.2421 12.9365C65.8683 13.5999 66.7095 13.9354 67.7656 13.9354C68.8365 13.9354 69.6924 13.5963 70.3297 12.9254C70.9673 12.2507 71.2823 11.3475 71.2823 10.2195C71.2823 9.11 70.9523 8.21412 70.2891 7.52854C69.6294 6.84653 68.7588 6.50364 67.6803 6.50364Z" fill="#E63D1A"/>
<path d="M88.7935 11.5245C88.7935 11.5245 85.614 11.5245 79.2517 11.5245C79.4332 12.2654 79.8297 12.8552 80.4375 13.2865C81.0452 13.718 81.7863 13.9354 82.6607 13.9354C83.2684 13.9354 83.776 13.8433 84.1801 13.6589C84.5875 13.4746 84.9804 13.1612 85.3657 12.7153H88.5895C88.4153 13.2683 88.0894 13.8359 87.6113 14.4182C86.3366 15.8966 84.7098 16.6339 82.7275 16.6339C81.8011 16.6339 80.9228 16.4681 80.1002 16.1363C79.2738 15.808 78.5659 15.3583 77.9768 14.7944C77.3877 14.2266 76.9171 13.5521 76.5724 12.7631C76.224 11.9742 76.05 11.1412 76.05 10.2637C76.05 9.08027 76.3389 7.9965 76.9133 7.00489C77.4877 6.01705 78.2733 5.23554 79.27 4.66412C80.2632 4.08894 81.3564 3.80511 82.542 3.80511C83.7501 3.80511 84.8395 4.08537 85.8104 4.65302C86.7813 5.21711 87.5371 6.00219 88.0856 7.00489C88.6303 8.01136 88.9045 9.13933 88.9045 10.3928C88.9045 10.7945 88.8674 11.1743 88.7933 11.5245H88.7935ZM79.1664 8.933H85.9957C85.8068 8.14773 85.4177 7.54678 84.8322 7.13035C84.2466 6.71373 83.4981 6.50364 82.5866 6.50364C81.701 6.50364 80.9711 6.70997 80.3855 7.12282C79.8038 7.53944 79.3961 8.14039 79.1664 8.933Z" fill="#E63D1A"/>
<path d="M90.7272 16.3426C90.7272 16.3426 90.7272 12.258 90.7272 4.08537C90.7272 4.08537 91.6351 4.08537 93.4545 4.08537C93.4545 4.08537 93.4545 4.47603 93.4545 5.26131C93.9954 4.73785 94.5328 4.36186 95.0589 4.1369C95.5889 3.91571 96.2115 3.80511 96.9265 3.80511C98.72 3.80511 100.032 4.43183 100.858 5.68149C101.155 6.15718 101.362 6.6953 101.481 7.29248C101.599 7.88967 101.659 8.71914 101.659 9.77714V16.3426H98.709C98.709 16.3426 98.709 14.3445 98.709 10.3486C98.709 8.76334 98.4977 7.72377 98.0791 7.22608C97.6788 6.74326 97.1044 6.50364 96.3521 6.50364C95.3369 6.50364 94.6031 6.89806 94.1474 7.69067C93.9657 7.97093 93.8436 8.32095 93.7769 8.73758C93.7139 9.15796 93.6804 9.76605 93.6804 10.5662V16.3426C93.6804 16.3426 92.6948 16.3426 90.7272 16.3426Z" fill="#E63D1A"/>
<path d="M112.799 12.3133C112.799 12.3133 113.91 12.3133 116.134 12.3133C115.619 13.6885 114.833 14.7538 113.773 15.5058C112.71 16.2578 111.461 16.6338 110.02 16.6338C109.123 16.6338 108.267 16.4643 107.452 16.1252C106.64 15.7896 105.94 15.3361 105.354 14.7647C104.765 14.1971 104.298 13.515 103.954 12.7262C103.605 11.9338 103.431 11.0968 103.431 10.2195C103.431 9.03983 103.716 7.95606 104.287 6.97179C104.861 5.99109 105.643 5.21711 106.64 4.65302C107.633 4.08537 108.73 3.80511 109.923 3.80511C110.805 3.80511 111.646 3.95991 112.447 4.27327C113.247 4.58663 113.947 5.03635 114.548 5.61886C114.937 5.99862 115.248 6.37084 115.478 6.73573C115.704 7.10082 115.922 7.58007 116.134 8.17726H112.799C112.221 7.06019 111.261 6.50364 109.923 6.50364C108.897 6.50364 108.056 6.84633 107.4 7.53587C106.744 8.22146 106.418 9.11 106.418 10.1973C106.418 11.2702 106.759 12.1621 107.444 12.8701C108.126 13.5779 108.978 13.9354 110.001 13.9354C110.609 13.9354 111.135 13.8026 111.58 13.5446C112.024 13.2865 112.432 12.8774 112.799 12.3133Z" fill="#E63D1A"/>
<path d="M118.706 20.4338C118.706 20.4338 119.477 18.6901 121.018 15.1954C121.018 15.1954 119.514 11.4941 116.505 4.08453C116.505 4.08453 117.627 4.08453 119.881 4.08453C119.881 4.08453 120.792 6.73509 122.615 12.0324C122.615 12.0324 123.612 9.38188 125.602 4.08453C125.602 4.08453 126.732 4.08453 129 4.08453C129 4.08453 126.628 9.53311 121.889 20.4338C121.889 20.4338 120.829 20.4338 118.706 20.4338Z" fill="#E63D1A"/>
<path fill-rule="evenodd" clip-rule="evenodd" d="M14.0932 4.13531H24.8328C28.1861 4.13531 30.9297 6.86476 30.9297 10.2005C30.9297 13.5364 28.1861 16.2659 24.8328 16.2659H14.0932C10.74 16.2659 7.99637 13.5364 7.99637 10.2005C7.99637 6.86456 10.74 4.13531 14.0932 4.13531ZM14.0932 5.26328H24.8328C27.5625 5.26328 29.7959 7.48513 29.7959 10.2005C29.7959 12.9161 27.5625 15.1379 24.8328 15.1379H14.0932C11.3636 15.1379 9.13018 12.9161 9.13018 10.2005C9.13018 7.48513 11.3636 5.26328 14.0932 5.26328ZM14.6622 8.09718C14.6622 8.09718 14.6622 9.41007 14.6622 12.0347C14.6622 12.0347 14.4445 12.0347 14.0088 12.0347C14.0088 12.0347 14.0088 11.9068 14.0088 11.6519C13.8641 11.8119 13.7151 11.9274 13.5615 11.9984C13.4079 12.0693 13.2312 12.105 13.0301 12.105C12.7526 12.105 12.5008 12.0374 12.2731 11.9025C12.0455 11.7665 11.866 11.58 11.7357 11.3429C11.6044 11.1049 11.5393 10.8419 11.5393 10.5541C11.5393 10.2645 11.6054 9.99814 11.7365 9.75554C11.8686 9.51215 12.0481 9.32128 12.2758 9.18273C12.5036 9.04419 12.7526 8.97482 13.025 8.97482C13.2114 8.97482 13.3866 9.00772 13.5489 9.07352C13.7123 9.13933 13.8464 9.2299 13.9508 9.34446V8.09738H14.6624L14.6622 8.09718ZM13.114 9.62492C12.8731 9.62492 12.6703 9.71193 12.5062 9.88516C12.341 10.0584 12.2589 10.2742 12.2589 10.5309C12.2589 10.7894 12.3446 11.008 12.5159 11.1864C12.6882 11.3649 12.8972 11.4547 13.1427 11.4547C13.3828 11.4547 13.5864 11.3667 13.7533 11.1917C13.9203 11.0167 14.0034 10.8018 14.0034 10.5487C14.0034 10.2814 13.9195 10.0612 13.7525 9.88694C13.5846 9.71193 13.3722 9.62492 13.114 9.62492ZM15.24 12.0347C15.24 12.0347 15.24 11.0506 15.24 9.08145C15.24 9.08145 15.4775 9.08145 15.9515 9.08145C15.9515 9.08145 15.9515 10.0655 15.9515 12.0347C15.9515 12.0347 15.714 12.0347 15.24 12.0347ZM15.24 8.76334C15.24 8.76334 15.24 8.54135 15.24 8.09718C15.24 8.09718 15.4775 8.09718 15.9515 8.09718C15.9515 8.09718 15.9515 8.31936 15.9515 8.76334C15.9515 8.76334 15.714 8.76334 15.24 8.76334ZM18.8212 9.08145C18.8212 9.08145 19.0479 9.08145 19.5006 9.08145C19.5006 9.08145 19.5006 9.87902 19.5006 11.4751C19.5006 11.7683 19.4757 12.0117 19.4239 12.2053C19.3721 12.399 19.289 12.5641 19.1738 12.7008C18.8915 13.0427 18.4881 13.2134 17.9631 13.2134C17.5997 13.2134 17.2855 13.1307 17.0185 12.9664C16.7516 12.8011 16.5577 12.5712 16.4382 12.2745H17.2463C17.3507 12.3883 17.4596 12.4699 17.573 12.5171C17.6864 12.5651 17.8256 12.589 17.9916 12.589C18.2568 12.589 18.4578 12.5107 18.5961 12.3546C18.7335 12.199 18.8086 11.9619 18.8212 11.6438C18.6809 11.8073 18.5363 11.9247 18.3855 11.9974C18.2345 12.0694 18.0542 12.105 17.8452 12.105C17.5656 12.105 17.3158 12.0382 17.0935 11.905C16.8711 11.7709 16.698 11.5853 16.5739 11.3463C16.4497 11.1075 16.3882 10.8383 16.3882 10.5382C16.3882 10.1012 16.5264 9.7379 16.8042 9.44832C17.0809 9.15875 17.43 9.01386 17.8505 9.01386C18.2755 9.01386 18.5996 9.16133 18.821 9.45625V9.08145H18.8212ZM17.9213 9.66417C17.6766 9.66417 17.4802 9.74662 17.3309 9.91271C17.1819 10.078 17.1078 10.2974 17.1078 10.5701C17.1078 10.8383 17.1827 11.0532 17.3337 11.2141C17.4846 11.3739 17.6872 11.4547 17.9418 11.4547C18.1998 11.4547 18.406 11.3731 18.5596 11.2113C18.713 11.0488 18.7889 10.8312 18.7889 10.5594C18.7889 10.2921 18.7096 10.0762 18.5496 9.91093C18.3909 9.74662 18.1811 9.66417 17.9213 9.66417ZM20.0791 12.0347C20.0791 12.0347 20.0791 11.0506 20.0791 9.08145C20.0791 9.08145 20.3166 9.08145 20.7908 9.08145C20.7908 9.08145 20.7908 10.0655 20.7908 12.0347C20.7908 12.0347 20.5533 12.0347 20.0791 12.0347ZM20.0791 8.76334C20.0791 8.76334 20.0791 8.54135 20.0791 8.09718C20.0791 8.09718 20.3166 8.09718 20.7908 8.09718C20.7908 8.09718 20.7908 8.31936 20.7908 8.76334C20.7908 8.76334 20.5533 8.76334 20.0791 8.76334ZM21.4969 12.0347C21.4969 12.0347 21.4969 11.2654 21.4969 9.7262C21.4969 9.7262 21.3809 9.7262 21.1488 9.7262C21.1488 9.7262 21.1488 9.51135 21.1488 9.08145C21.1488 9.08145 21.2648 9.08145 21.4969 9.08145C21.4969 9.08145 21.4969 8.75362 21.4969 8.09718C21.4969 8.09718 21.7336 8.09718 22.2085 8.09718C22.2085 8.09718 22.2085 8.426 22.2085 9.08145C22.2085 9.08145 22.3514 9.08145 22.6371 9.08145C22.6371 9.08145 22.6371 9.2963 22.6371 9.7262C22.6371 9.7262 22.4942 9.7262 22.2085 9.7262C22.2085 9.7262 22.2085 10.4964 22.2085 12.0347C22.2085 12.0347 21.971 12.0347 21.4969 12.0347ZM25.9672 9.08145C25.9672 9.08145 25.9672 10.0655 25.9672 12.0347C25.9672 12.0347 25.7503 12.0347 25.3155 12.0347C25.3155 12.0347 25.3155 11.9068 25.3155 11.6519C25.1727 11.8135 25.0255 11.929 24.8728 11.9992C24.72 12.0701 24.5389 12.1048 24.3299 12.1048C24.0433 12.1048 23.787 12.0392 23.5593 11.9086C23.3318 11.7772 23.1541 11.5951 23.0254 11.3606C22.8979 11.1261 22.8335 10.8631 22.8335 10.5701C22.8335 10.2734 22.8979 10.0061 23.0272 9.76981C23.1559 9.53256 23.3354 9.34783 23.5657 9.21365C23.796 9.08046 24.0558 9.01386 24.3451 9.01386C24.5603 9.01386 24.7451 9.05033 24.8995 9.12406C25.0549 9.1978 25.1942 9.31513 25.3155 9.47667V9.08145H25.9672ZM24.4084 9.66417C24.1602 9.66417 23.9558 9.75118 23.795 9.92421C23.6334 10.0974 23.5531 10.3178 23.5531 10.5852C23.5531 10.8437 23.6344 11.0532 23.7978 11.2141C23.9602 11.3739 24.172 11.4547 24.4318 11.4547C24.6898 11.4547 24.8978 11.3731 25.0557 11.2095C25.2137 11.047 25.2924 10.833 25.2924 10.5701C25.2924 10.3028 25.2103 10.0851 25.045 9.91628C24.8798 9.7486 24.6682 9.66417 24.4084 9.66417ZM26.5478 12.0347C26.5478 12.0347 26.5478 10.722 26.5478 8.09718C26.5478 8.09718 26.7851 8.09718 27.2592 8.09718C27.2592 8.09718 27.2592 9.40987 27.2592 12.0347C27.2592 12.0347 27.0218 12.0347 26.5478 12.0347Z" fill="#E63D1A"/>
<rect x="43" y="26" width="86" height="25" rx="12.5" fill="#E63D1A"/>
<path d="M58.14 36.04C57.8067 35.6933 57.4533 35.4333 57.08 35.26C56.72 35.0733 56.2867 34.98 55.78 34.98C55.2867 34.98 54.8533 35.0733 54.48 35.26C54.12 35.4333 53.8133 35.68 53.56 36C53.32 36.3067 53.1333 36.6667 53 37.08C52.88 37.48 52.82 37.9 52.82 38.34C52.82 38.78 52.8933 39.2 53.04 39.6C53.1867 39.9867 53.3933 40.3267 53.66 40.62C53.9267 40.9133 54.2467 41.1467 54.62 41.32C54.9933 41.48 55.4133 41.56 55.88 41.56C56.3867 41.56 56.82 41.4733 57.18 41.3C57.54 41.1133 57.8733 40.8467 58.18 40.5L59.46 41.78C58.9933 42.3 58.4467 42.6733 57.82 42.9C57.2067 43.1267 56.5533 43.24 55.86 43.24C55.1267 43.24 54.4533 43.12 53.84 42.88C53.24 42.64 52.72 42.3067 52.28 41.88C51.84 41.44 51.5 40.92 51.26 40.32C51.02 39.7067 50.9 39.0333 50.9 38.3C50.9 37.5667 51.02 36.8933 51.26 36.28C51.5 35.6667 51.8333 35.14 52.26 34.7C52.7 34.26 53.22 33.92 53.82 33.68C54.4333 33.4267 55.1133 33.3 55.86 33.3C56.5533 33.3 57.2133 33.4267 57.84 33.68C58.48 33.92 59.0333 34.2933 59.5 34.8L58.14 36.04ZM62.8684 38.26C62.8684 38.74 62.9418 39.1867 63.0884 39.6C63.2351 40 63.4418 40.3467 63.7084 40.64C63.9751 40.92 64.3018 41.1467 64.6884 41.32C65.0751 41.48 65.5084 41.56 65.9884 41.56C66.4684 41.56 66.9018 41.48 67.2884 41.32C67.6751 41.1467 68.0018 40.92 68.2684 40.64C68.5351 40.3467 68.7418 40 68.8884 39.6C69.0351 39.1867 69.1084 38.74 69.1084 38.26C69.1084 37.78 69.0351 37.34 68.8884 36.94C68.7418 36.5267 68.5351 36.18 68.2684 35.9C68.0018 35.6067 67.6751 35.38 67.2884 35.22C66.9018 35.0467 66.4684 34.96 65.9884 34.96C65.5084 34.96 65.0751 35.0467 64.6884 35.22C64.3018 35.38 63.9751 35.6067 63.7084 35.9C63.4418 36.18 63.2351 36.5267 63.0884 36.94C62.9418 37.34 62.8684 37.78 62.8684 38.26ZM60.9484 38.26C60.9484 37.5667 61.0751 36.92 61.3284 36.32C61.5951 35.72 61.9551 35.1933 62.4084 34.74C62.8618 34.2867 63.3951 33.9333 64.0084 33.68C64.6218 33.4133 65.2818 33.28 65.9884 33.28C66.6951 33.28 67.3551 33.4133 67.9684 33.68C68.5818 33.9333 69.1151 34.2867 69.5684 34.74C70.0218 35.1933 70.3751 35.72 70.6284 36.32C70.8951 36.92 71.0284 37.5667 71.0284 38.26C71.0284 38.9533 70.8951 39.6067 70.6284 40.22C70.3751 40.82 70.0218 41.3467 69.5684 41.8C69.1151 42.24 68.5818 42.5933 67.9684 42.86C67.3551 43.1133 66.6951 43.24 65.9884 43.24C65.2818 43.24 64.6218 43.1133 64.0084 42.86C63.3951 42.5933 62.8618 42.24 62.4084 41.8C61.9551 41.3467 61.5951 40.82 61.3284 40.22C61.0751 39.6067 60.9484 38.9533 60.9484 38.26ZM82.0834 43H80.2834V41.54H80.2434C80.0168 42.0467 79.6234 42.46 79.0634 42.78C78.5034 43.0867 77.8568 43.24 77.1234 43.24C76.6568 43.24 76.2168 43.1667 75.8034 43.02C75.3901 42.8867 75.0234 42.6733 74.7034 42.38C74.3968 42.0867 74.1501 41.7133 73.9634 41.26C73.7768 40.7933 73.6834 40.2467 73.6834 39.62V33.52H75.4834V39.12C75.4834 39.56 75.5434 39.94 75.6634 40.26C75.7834 40.5667 75.9434 40.82 76.1434 41.02C76.3434 41.2067 76.5701 41.3467 76.8234 41.44C77.0901 41.52 77.3634 41.56 77.6434 41.56C78.0168 41.56 78.3634 41.5 78.6834 41.38C79.0034 41.26 79.2834 41.0733 79.5234 40.82C79.7634 40.5533 79.9501 40.22 80.0834 39.82C80.2168 39.42 80.2834 38.9467 80.2834 38.4V33.52H82.0834V43ZM85.1967 33.52H86.9967V34.98H87.0367C87.1567 34.7267 87.3167 34.5 87.5167 34.3C87.7167 34.0867 87.9367 33.9067 88.1767 33.76C88.4301 33.6133 88.7034 33.5 88.9967 33.42C89.2901 33.3267 89.5834 33.28 89.8767 33.28C90.1701 33.28 90.4367 33.32 90.6767 33.4L90.5967 35.34C90.4501 35.3 90.3034 35.2667 90.1567 35.24C90.0101 35.2133 89.8634 35.2 89.7167 35.2C88.8367 35.2 88.1634 35.4467 87.6967 35.94C87.2301 36.4333 86.9967 37.2 86.9967 38.24V43H85.1967V33.52ZM98.0391 35.9C97.8257 35.6333 97.5591 35.4133 97.2391 35.24C96.9324 35.0533 96.5524 34.96 96.0991 34.96C95.6724 34.96 95.2991 35.0533 94.9791 35.24C94.6724 35.4133 94.5191 35.6733 94.5191 36.02C94.5191 36.3 94.6057 36.5267 94.7791 36.7C94.9657 36.8733 95.1791 37.0133 95.4191 37.12C95.6724 37.2267 95.9391 37.3067 96.2191 37.36C96.4991 37.4133 96.7391 37.46 96.9391 37.5C97.3257 37.5933 97.6857 37.7067 98.0191 37.84C98.3657 37.9733 98.6591 38.1467 98.8991 38.36C99.1524 38.5733 99.3457 38.8333 99.4791 39.14C99.6257 39.4467 99.6991 39.82 99.6991 40.26C99.6991 40.7933 99.5857 41.2533 99.3591 41.64C99.1324 42.0133 98.8391 42.32 98.4791 42.56C98.1191 42.8 97.7057 42.9733 97.2391 43.08C96.7857 43.1867 96.3257 43.24 95.8591 43.24C95.0724 43.24 94.3791 43.12 93.7791 42.88C93.1924 42.64 92.6657 42.2 92.1991 41.56L93.5591 40.44C93.8524 40.7333 94.1791 40.9933 94.5391 41.22C94.8991 41.4467 95.3391 41.56 95.8591 41.56C96.0857 41.56 96.3124 41.54 96.5391 41.5C96.7791 41.4467 96.9857 41.3733 97.1591 41.28C97.3457 41.1733 97.4924 41.0467 97.5991 40.9C97.7191 40.74 97.7791 40.56 97.7791 40.36C97.7791 40.0933 97.6924 39.8733 97.5191 39.7C97.3591 39.5267 97.1591 39.3933 96.9191 39.3C96.6924 39.1933 96.4457 39.1133 96.1791 39.06C95.9257 38.9933 95.6991 38.94 95.4991 38.9C95.1124 38.8067 94.7457 38.7 94.3991 38.58C94.0524 38.46 93.7457 38.3 93.4791 38.1C93.2124 37.9 92.9991 37.6467 92.8391 37.34C92.6791 37.0333 92.5991 36.6533 92.5991 36.2C92.5991 35.7067 92.6991 35.28 92.8991 34.92C93.1124 34.5467 93.3857 34.24 93.7191 34C94.0657 33.76 94.4524 33.58 94.8791 33.46C95.3191 33.34 95.7591 33.28 96.1991 33.28C96.8391 33.28 97.4524 33.4 98.0391 33.64C98.6257 33.88 99.0924 34.28 99.4391 34.84L98.0391 35.9ZM103.646 38.92C103.646 39.3333 103.732 39.7133 103.906 40.06C104.092 40.3933 104.332 40.68 104.626 40.92C104.919 41.16 105.259 41.3467 105.646 41.48C106.032 41.6133 106.432 41.68 106.846 41.68C107.406 41.68 107.892 41.5533 108.306 41.3C108.719 41.0333 109.099 40.6867 109.446 40.26L110.806 41.3C109.806 42.5933 108.406 43.24 106.606 43.24C105.859 43.24 105.179 43.1133 104.566 42.86C103.966 42.6067 103.452 42.26 103.026 41.82C102.612 41.3667 102.292 40.84 102.066 40.24C101.839 39.6267 101.726 38.9667 101.726 38.26C101.726 37.5533 101.846 36.9 102.086 36.3C102.339 35.6867 102.679 35.16 103.106 34.72C103.546 34.2667 104.066 33.9133 104.666 33.66C105.266 33.4067 105.919 33.28 106.626 33.28C107.466 33.28 108.172 33.4267 108.746 33.72C109.332 34.0133 109.812 34.4 110.186 34.88C110.559 35.3467 110.826 35.88 110.986 36.48C111.159 37.0667 111.246 37.6667 111.246 38.28V38.92H103.646ZM109.326 37.48C109.312 37.08 109.246 36.7133 109.126 36.38C109.019 36.0467 108.852 35.76 108.626 35.52C108.399 35.2667 108.112 35.0733 107.766 34.94C107.432 34.7933 107.039 34.72 106.586 34.72C106.146 34.72 105.739 34.8067 105.366 34.98C105.006 35.14 104.699 35.3533 104.446 35.62C104.192 35.8867 103.992 36.1867 103.846 36.52C103.712 36.84 103.646 37.16 103.646 37.48H109.326ZM118.839 35.9C118.626 35.6333 118.359 35.4133 118.039 35.24C117.732 35.0533 117.352 34.96 116.899 34.96C116.472 34.96 116.099 35.0533 115.779 35.24C115.472 35.4133 115.319 35.6733 115.319 36.02C115.319 36.3 115.406 36.5267 115.579 36.7C115.766 36.8733 115.979 37.0133 116.219 37.12C116.472 37.2267 116.739 37.3067 117.019 37.36C117.299 37.4133 117.539 37.46 117.739 37.5C118.126 37.5933 118.486 37.7067 118.819 37.84C119.166 37.9733 119.459 38.1467 119.699 38.36C119.952 38.5733 120.146 38.8333 120.279 39.14C120.426 39.4467 120.499 39.82 120.499 40.26C120.499 40.7933 120.386 41.2533 120.159 41.64C119.932 42.0133 119.639 42.32 119.279 42.56C118.919 42.8 118.506 42.9733 118.039 43.08C117.586 43.1867 117.126 43.24 116.659 43.24C115.872 43.24 115.179 43.12 114.579 42.88C113.992 42.64 113.466 42.2 112.999 41.56L114.359 40.44C114.652 40.7333 114.979 40.9933 115.339 41.22C115.699 41.4467 116.139 41.56 116.659 41.56C116.886 41.56 117.112 41.54 117.339 41.5C117.579 41.4467 117.786 41.3733 117.959 41.28C118.146 41.1733 118.292 41.0467 118.399 40.9C118.519 40.74 118.579 40.56 118.579 40.36C118.579 40.0933 118.492 39.8733 118.319 39.7C118.159 39.5267 117.959 39.3933 117.719 39.3C117.492 39.1933 117.246 39.1133 116.979 39.06C116.726 38.9933 116.499 38.94 116.299 38.9C115.912 38.8067 115.546 38.7 115.199 38.58C114.852 38.46 114.546 38.3 114.279 38.1C114.012 37.9 113.799 37.6467 113.639 37.34C113.479 37.0333 113.399 36.6533 113.399 36.2C113.399 35.7067 113.499 35.28 113.699 34.92C113.912 34.5467 114.186 34.24 114.519 34C114.866 33.76 115.252 33.58 115.679 33.46C116.119 33.34 116.559 33.28 116.999 33.28C117.639 33.28 118.252 33.4 118.839 33.64C119.426 33.88 119.892 34.28 120.239 34.84L118.839 35.9Z" fill="#EDEAEA"/>
</svg>
