<svg width="132" height="22" viewBox="0 0 132 22" fill="none" xmlns="http://www.w3.org/2000/svg">
<path d="M1.47875 16.0597C1.46028 15.7402 1.47576 15.3852 1.47576 15.062H1.47875V7.00457C1.47875 7.00457 0.985849 7.00457 0 7.00457C0 7.00457 0 6.08031 0 4.23178C0 4.23178 0.492904 4.23178 1.47875 4.23178C1.47875 4.23178 1.47875 2.82249 1.47875 0C1.47875 0 2.48356 0 4.50078 0C4.50078 0 4.50078 1.41319 4.50078 4.23178C4.50078 4.23178 5.10742 4.23178 6.32079 4.23178C6.32079 4.23178 6.32079 5.15604 6.32079 7.00457C6.32079 7.00457 5.71409 7.00457 4.50078 7.00457V15.062H6.1191V17.6191H3.1208C2.57436 17.6191 2.088 17.3471 1.78842 16.9308C1.66433 16.7663 1.5583 16.4936 1.47871 16.0597H1.47875Z" fill="#E63D1A"/>
<path d="M33.1124 21.171C33.1124 21.171 33.1124 15.5263 33.1124 4.23262C33.1124 4.23262 34.0338 4.23262 35.8804 4.23262C35.8804 4.23262 35.8804 4.73305 35.8804 5.7298C36.8775 4.53818 38.2616 3.94226 40.0209 3.94226C41.2229 3.94226 42.2997 4.22112 43.2552 4.78644C44.2108 5.34786 44.9577 6.13454 45.4925 7.1391C46.0309 8.14735 46.3 9.28168 46.3 10.5421C46.3 11.8101 46.027 12.9557 45.4886 13.9718C44.9463 14.9915 44.1993 15.7897 43.2402 16.3665C42.2808 16.9432 41.2001 17.2335 40.002 17.2335C39.2322 17.2335 38.5382 17.115 37.9242 16.8746C37.3097 16.6376 36.7108 16.2596 36.1345 15.7439V21.171H33.1124ZM39.5659 6.73805C38.546 6.73805 37.6891 7.1085 36.9952 7.85329C36.3051 8.59418 35.9563 9.52234 35.9563 10.6337C35.9563 11.7146 36.3126 12.6198 37.0217 13.3455C37.7346 14.0712 38.6104 14.4377 39.657 14.4377C40.6694 14.4377 41.5224 14.0673 42.2163 13.334C42.9103 12.6007 43.2552 11.6916 43.2552 10.6109C43.2552 9.49175 42.9064 8.56748 42.2125 7.83419C41.5149 7.1048 40.6352 6.73805 39.5659 6.73805Z" fill="#E63D1A"/>
<path d="M60.8793 4.23241C60.8793 4.23241 60.8793 8.4644 60.8793 16.9317C60.8793 16.9317 59.9578 16.9317 58.1114 16.9317C58.1114 16.9317 58.1114 16.3817 58.1114 15.2856C57.5047 15.9807 56.8791 16.477 56.2306 16.7789C55.5823 17.0844 54.8125 17.2333 53.9253 17.2333C52.7082 17.2333 51.62 16.9508 50.653 16.3893C49.6861 15.824 48.9316 15.0412 48.3855 14.0328C47.8434 13.0245 47.5704 11.8941 47.5704 10.6337C47.5704 9.35807 47.8434 8.20854 48.3932 7.19248C48.9392 6.17273 49.7012 5.37845 50.6795 4.80164C51.6579 4.22872 52.7612 3.94226 53.9897 3.94226C54.9036 3.94226 55.6885 4.09894 56.3445 4.416C57.0042 4.73285 57.5957 5.23697 58.1114 5.93207V4.23262H60.8793V4.23241ZM54.259 6.73805C53.2048 6.73805 52.3366 7.11219 51.654 7.85698C50.9678 8.60178 50.6265 9.54884 50.6265 10.6986C50.6265 11.8099 50.9715 12.7114 51.6654 13.4026C52.3555 14.0901 53.2542 14.4375 54.3575 14.4375C55.4535 14.4375 56.3368 14.0862 57.0079 13.3835C57.679 12.6847 58.0128 11.7641 58.0128 10.6337C58.0128 9.48415 57.664 8.54839 56.9625 7.82269C56.261 7.1009 55.3623 6.73805 54.259 6.73805Z" fill="#E63D1A"/>
<path d="M73.0764 4.23262C73.0764 4.23262 74.0396 4.23262 75.9619 4.23262C75.9619 4.23262 75.9619 7.66232 75.9619 14.5256C75.9619 15.786 75.8559 16.8325 75.6359 17.6652C75.4159 18.4976 75.0632 19.2081 74.5742 19.7962C73.376 21.2665 71.6621 22 69.4325 22C67.8894 22 66.5547 21.6448 65.421 20.9382C64.2871 20.2277 63.4643 19.2385 62.9563 17.9629H66.3878C66.8314 18.4518 67.2939 18.8032 67.7757 19.0057C68.2572 19.2118 68.8486 19.3149 69.554 19.3149C70.6801 19.3149 71.5333 18.9788 72.1208 18.3067C72.7049 17.6383 73.0233 16.6185 73.0764 15.2511C72.4811 15.954 71.8668 16.4581 71.2261 16.7713C70.5853 17.0805 69.8194 17.2333 68.9322 17.2333C67.7453 17.2333 66.6836 16.9471 65.7395 16.3741C64.7954 15.7973 64.0598 14.9991 63.5326 13.9718C63.0056 12.9442 62.7441 11.7871 62.7441 10.4961C62.7441 8.61718 63.3318 7.05511 64.511 5.80989C65.6865 4.56487 67.169 3.94226 68.9548 3.94226C70.7598 3.94226 72.1361 4.57637 73.0766 5.84418V4.23262H73.0764ZM69.2543 6.73805C68.2154 6.73805 67.3812 7.0933 66.748 7.8075C66.1148 8.518 65.8 9.46115 65.8 10.6337C65.8 11.7871 66.1187 12.7114 66.7594 13.4028C67.4001 14.0901 68.2609 14.4377 69.3416 14.4377C70.4373 14.4377 71.3131 14.0864 71.9653 13.3913C72.6177 12.6923 72.94 11.7565 72.94 10.5879C72.94 9.43836 72.6024 8.51019 71.9237 7.7999C71.2487 7.0933 70.3578 6.73805 69.2543 6.73805Z" fill="#E63D1A"/>
<path d="M90.8585 11.9399C90.8585 11.9399 87.605 11.9399 81.0948 11.9399C81.2805 12.7075 81.6862 13.3186 82.3082 13.7654C82.93 14.2125 83.6883 14.4377 84.5831 14.4377C85.2049 14.4377 85.7243 14.3422 86.1378 14.1513C86.5547 13.9603 86.9567 13.6356 87.351 13.1736H90.6497C90.4715 13.7465 90.138 14.3346 89.6487 14.9379C88.3444 16.4696 86.6799 17.2335 84.6514 17.2335C83.7034 17.2335 82.8048 17.0616 81.963 16.7179C81.1174 16.3778 80.3931 15.9119 79.7902 15.3277C79.1874 14.7394 78.7059 14.0406 78.3532 13.2231C77.9966 12.4058 77.8187 11.5427 77.8187 10.6337C77.8187 9.40756 78.1143 8.28472 78.702 7.25737C79.2897 6.23393 80.0936 5.42425 81.1135 4.83223C82.1298 4.23632 83.2484 3.94226 84.4616 3.94226C85.6978 3.94226 86.8126 4.23262 87.806 4.82073C88.7994 5.40515 89.5729 6.21853 90.1341 7.25737C90.6915 8.30012 90.972 9.46875 90.972 10.7674C90.972 11.1836 90.9341 11.577 90.8583 11.9399H90.8585ZM81.0075 9.25499H87.9956C87.8023 8.4414 87.4042 7.81879 86.805 7.38736C86.2059 6.95572 85.4399 6.73805 84.5073 6.73805C83.6011 6.73805 82.8541 6.95182 82.255 7.37955C81.6597 7.81119 81.2426 8.4338 81.0075 9.25499Z" fill="#E63D1A"/>
<path d="M92.8372 16.9317C92.8372 16.9317 92.8372 12.6999 92.8372 4.23262C92.8372 4.23262 93.7662 4.23262 95.6279 4.23262C95.6279 4.23262 95.6279 4.63736 95.6279 5.45094C96.1814 4.90862 96.7312 4.51908 97.2696 4.28601C97.8119 4.05684 98.4489 3.94226 99.1806 3.94226C101.016 3.94226 102.358 4.59157 103.204 5.88627C103.507 6.37911 103.719 6.93662 103.841 7.55533C103.962 8.17404 104.023 9.03341 104.023 10.1296V16.9317H101.005C101.005 16.9317 101.005 14.8616 101.005 10.7216C101.005 9.07921 100.788 8.00216 100.36 7.48654C99.9504 6.98632 99.3627 6.73805 98.5929 6.73805C97.554 6.73805 96.8031 7.14669 96.3369 7.96787C96.151 8.25823 96.026 8.62087 95.9577 9.05251C95.8933 9.48805 95.859 10.1181 95.859 10.947V16.9317C95.859 16.9317 94.8505 16.9317 92.8372 16.9317Z" fill="#E63D1A"/>
<path d="M115.422 12.7572C115.422 12.7572 116.559 12.7572 118.835 12.7572C118.307 14.1819 117.504 15.2856 116.419 16.0647C115.331 16.8438 114.053 17.2333 112.578 17.2333C111.661 17.2333 110.785 17.0577 109.95 16.7064C109.12 16.3587 108.403 15.8889 107.804 15.2969C107.201 14.7088 106.724 14.0022 106.371 13.1849C106.015 12.3639 105.836 11.4968 105.836 10.5879C105.836 9.36567 106.128 8.24283 106.712 7.22308C107.3 6.20703 108.1 5.40515 109.12 4.82073C110.136 4.23262 111.259 3.94226 112.48 3.94226C113.382 3.94226 114.243 4.10264 115.062 4.42729C115.881 4.75194 116.597 5.21787 117.212 5.82139C117.61 6.21483 117.928 6.60047 118.163 6.97851C118.394 7.35676 118.618 7.85329 118.834 8.472H115.422C114.83 7.31467 113.848 6.73805 112.48 6.73805C111.429 6.73805 110.569 7.0931 109.897 7.8075C109.226 8.51779 108.893 9.43836 108.893 10.5649C108.893 11.6764 109.241 12.6005 109.943 13.334C110.64 14.0673 111.513 14.4377 112.559 14.4377C113.181 14.4377 113.719 14.3001 114.174 14.0328C114.629 13.7654 115.047 13.3416 115.422 12.7572Z" fill="#E63D1A"/>
<path d="M121.467 21.1704C121.467 21.1704 122.255 19.3637 123.833 15.7431C123.833 15.7431 122.293 11.9084 119.214 4.23175C119.214 4.23175 120.363 4.23175 122.669 4.23175C122.669 4.23175 123.601 6.97785 125.467 12.4661C125.467 12.4661 126.487 9.72005 128.523 4.23175C128.523 4.23175 129.679 4.23175 132 4.23175C132 4.23175 129.573 9.87672 124.724 21.1704C124.724 21.1704 123.639 21.1704 121.467 21.1704Z" fill="#E63D1A"/>
<path fill-rule="evenodd" clip-rule="evenodd" d="M14.421 4.28436H25.4103C28.8415 4.28436 31.649 7.11219 31.649 10.5682C31.649 14.0244 28.8415 16.8522 25.4103 16.8522H14.421C10.9897 16.8522 8.18231 14.0244 8.18231 10.5682C8.18231 7.11198 10.9897 4.28436 14.421 4.28436ZM14.421 5.45299H25.4103C28.2034 5.45299 30.4888 7.75492 30.4888 10.5682C30.4888 13.3816 28.2034 15.6836 25.4103 15.6836H14.421C11.6278 15.6836 9.34249 13.3816 9.34249 10.5682C9.34249 7.75492 11.6278 5.45299 14.421 5.45299ZM15.0032 8.38903C15.0032 8.38903 15.0032 9.74925 15.0032 12.4684C15.0032 12.4684 14.7804 12.4684 14.3345 12.4684C14.3345 12.4684 14.3345 12.336 14.3345 12.0719C14.1865 12.2376 14.034 12.3574 13.8768 12.4309C13.7197 12.5044 13.5388 12.5413 13.3331 12.5413C13.0492 12.5413 12.7915 12.4713 12.5585 12.3315C12.3256 12.1906 12.142 11.9974 12.0086 11.7518C11.8743 11.5052 11.8076 11.2327 11.8076 10.9345C11.8076 10.6345 11.8753 10.3585 12.0094 10.1072C12.1446 9.855 12.3283 9.65725 12.5613 9.51372C12.7943 9.37018 13.0492 9.29831 13.3278 9.29831C13.5187 9.29831 13.6979 9.3324 13.864 9.40057C14.0312 9.46875 14.1684 9.56259 14.2752 9.68128V8.38924H15.0034L15.0032 8.38903ZM13.419 9.97184C13.1725 9.97184 12.965 10.062 12.797 10.2415C12.628 10.4209 12.544 10.6446 12.544 10.9105C12.544 11.1783 12.6316 11.4048 12.807 11.5896C12.9833 11.7746 13.1972 11.8676 13.4483 11.8676C13.694 11.8676 13.9023 11.7764 14.0732 11.5951C14.244 11.4138 14.329 11.1912 14.329 10.929C14.329 10.652 14.2432 10.4238 14.0724 10.2433C13.9005 10.062 13.6832 9.97184 13.419 9.97184ZM15.5944 12.4684C15.5944 12.4684 15.5944 11.4489 15.5944 9.40878C15.5944 9.40878 15.8374 9.40878 16.3224 9.40878C16.3224 9.40878 16.3224 10.4283 16.3224 12.4684C16.3224 12.4684 16.0794 12.4684 15.5944 12.4684ZM15.5944 9.0792C15.5944 9.0792 15.5944 8.84921 15.5944 8.38903C15.5944 8.38903 15.8374 8.38903 16.3224 8.38903C16.3224 8.38903 16.3224 8.61923 16.3224 9.0792C16.3224 9.0792 16.0794 9.0792 15.5944 9.0792ZM19.2589 9.40878C19.2589 9.40878 19.4909 9.40878 19.9541 9.40878C19.9541 9.40878 19.9541 10.2351 19.9541 11.8888C19.9541 12.1925 19.9286 12.4446 19.8756 12.6452C19.8226 12.8459 19.7376 13.0169 19.6197 13.1586C19.3308 13.5128 18.918 13.6896 18.3808 13.6896C18.009 13.6896 17.6875 13.604 17.4143 13.4338C17.1411 13.2625 16.9428 13.0243 16.8204 12.7169H17.6473C17.7541 12.8348 17.8657 12.9194 17.9817 12.9683C18.0977 13.018 18.2402 13.0428 18.41 13.0428C18.6813 13.0428 18.887 12.9617 19.0285 12.7999C19.1692 12.6387 19.246 12.3931 19.2589 12.0635C19.1154 12.2329 18.9674 12.3545 18.813 12.4298C18.6585 12.5044 18.474 12.5413 18.2601 12.5413C17.9741 12.5413 17.7185 12.4721 17.491 12.3341C17.2634 12.1951 17.0863 12.0029 16.9593 11.7553C16.8323 11.5078 16.7693 11.229 16.7693 10.9181C16.7693 10.4653 16.9108 10.0889 17.195 9.78888C17.4781 9.48887 17.8353 9.33876 18.2656 9.33876C18.7005 9.33876 19.0322 9.49154 19.2587 9.7971V9.40878H19.2589ZM18.338 10.0125C18.0877 10.0125 17.8867 10.0979 17.734 10.27C17.5815 10.4413 17.5056 10.6686 17.5056 10.9511C17.5056 11.229 17.5823 11.4516 17.7368 11.6183C17.8911 11.7838 18.0985 11.8676 18.359 11.8676C18.623 11.8676 18.834 11.783 18.9912 11.6154C19.1482 11.4471 19.2259 11.2216 19.2259 10.9401C19.2259 10.663 19.1447 10.4394 18.981 10.2682C18.8185 10.0979 18.6039 10.0125 18.338 10.0125ZM20.5461 12.4684C20.5461 12.4684 20.5461 11.4489 20.5461 9.40878C20.5461 9.40878 20.7891 9.40878 21.2743 9.40878C21.2743 9.40878 21.2743 10.4283 21.2743 12.4684C21.2743 12.4684 21.0313 12.4684 20.5461 12.4684ZM20.5461 9.0792C20.5461 9.0792 20.5461 8.84921 20.5461 8.38903C20.5461 8.38903 20.7891 8.38903 21.2743 8.38903C21.2743 8.38903 21.2743 8.61923 21.2743 9.0792C21.2743 9.0792 21.0313 9.0792 20.5461 9.0792ZM21.9968 12.4684C21.9968 12.4684 21.9968 11.6715 21.9968 10.0768C21.9968 10.0768 21.8781 10.0768 21.6406 10.0768C21.6406 10.0768 21.6406 9.85418 21.6406 9.40878C21.6406 9.40878 21.7593 9.40878 21.9968 9.40878C21.9968 9.40878 21.9968 9.06914 21.9968 8.38903C21.9968 8.38903 22.239 8.38903 22.725 8.38903C22.725 8.38903 22.725 8.7297 22.725 9.40878C22.725 9.40878 22.8712 9.40878 23.1635 9.40878C23.1635 9.40878 23.1635 9.63138 23.1635 10.0768C23.1635 10.0768 23.0173 10.0768 22.725 10.0768C22.725 10.0768 22.725 10.8748 22.725 12.4684C22.725 12.4684 22.482 12.4684 21.9968 12.4684ZM26.5711 9.40878C26.5711 9.40878 26.5711 10.4283 26.5711 12.4684C26.5711 12.4684 26.3491 12.4684 25.9043 12.4684C25.9043 12.4684 25.9043 12.336 25.9043 12.0719C25.7581 12.2393 25.6074 12.359 25.4513 12.4317C25.2949 12.5052 25.1096 12.5411 24.8957 12.5411C24.6024 12.5411 24.3402 12.4732 24.1072 12.3378C23.8744 12.2017 23.6925 12.013 23.5608 11.7701C23.4304 11.5271 23.3645 11.2546 23.3645 10.9511C23.3645 10.6437 23.4304 10.3667 23.5627 10.122C23.6944 9.87615 23.878 9.68477 24.1137 9.54575C24.3494 9.40776 24.6152 9.33876 24.9112 9.33876C25.1314 9.33876 25.3206 9.37654 25.4786 9.45293C25.6376 9.52932 25.7801 9.65089 25.9043 9.81825V9.40878H26.5711ZM24.9761 10.0125C24.722 10.0125 24.5129 10.1026 24.3484 10.2819C24.183 10.4614 24.1009 10.6897 24.1009 10.9667C24.1009 11.2345 24.184 11.4516 24.3512 11.6183C24.5174 11.7838 24.7341 11.8676 24.9999 11.8676C25.2639 11.8676 25.4768 11.783 25.6384 11.6136C25.8001 11.4452 25.8806 11.2234 25.8806 10.9511C25.8806 10.6741 25.7966 10.4487 25.6274 10.2737C25.4584 10.1 25.2419 10.0125 24.9761 10.0125ZM27.1652 12.4684C27.1652 12.4684 27.1652 11.1084 27.1652 8.38903C27.1652 8.38903 27.408 8.38903 27.8932 8.38903C27.8932 8.38903 27.8932 9.74904 27.8932 12.4684C27.8932 12.4684 27.6502 12.4684 27.1652 12.4684Z" fill="#E63D1A"/>
</svg>
