<svg width="92" height="37" viewBox="0 0 92 37" fill="none" xmlns="http://www.w3.org/2000/svg">
<path d="M1.03065 11.055C1.01777 10.835 1.02856 10.5906 1.02856 10.3681H1.03065V4.82171C1.03065 4.82171 0.687107 4.82171 0 4.82171C0 4.82171 0 4.18548 0 2.91301C0 2.91301 0.343539 2.91301 1.03065 2.91301C1.03065 2.91301 1.03065 1.9429 1.03065 0C1.03065 0 1.73097 0 3.13691 0C3.13691 0 3.13691 0.972795 3.13691 2.91301C3.13691 2.91301 3.55972 2.91301 4.4054 2.91301C4.4054 2.91301 4.4054 3.54924 4.4054 4.82171C4.4054 4.82171 3.98254 4.82171 3.13691 4.82171V10.3681H4.26483V12.1284H2.1751C1.79425 12.1284 1.45527 11.9411 1.24648 11.6546C1.15999 11.5414 1.08609 11.3537 1.03062 11.055H1.03065Z" fill="#E63D1A"/>
<path d="M23.0782 14.5734C23.0782 14.5734 23.0782 10.6878 23.0782 2.91362C23.0782 2.91362 23.7205 2.91362 25.0075 2.91362C25.0075 2.91362 25.0075 3.2581 25.0075 3.94423C25.7025 3.12395 26.6671 2.71375 27.8933 2.71375C28.7311 2.71375 29.4816 2.9057 30.1475 3.29485C30.8135 3.68131 31.3341 4.22284 31.7068 4.91434C32.0821 5.60838 32.2696 6.38922 32.2696 7.25685C32.2696 8.1297 32.0794 8.91831 31.7041 9.61773C31.3261 10.3197 30.8055 10.8691 30.137 11.2662C29.4683 11.6631 28.7151 11.863 27.8801 11.863C27.3436 11.863 26.8599 11.7814 26.4319 11.6159C26.0037 11.4528 25.5862 11.1926 25.1846 10.8376V14.5734H23.0782ZM27.5762 4.63827C26.8653 4.63827 26.2681 4.89328 25.7844 5.40596C25.3035 5.91597 25.0604 6.55488 25.0604 7.31989C25.0604 8.06397 25.3087 8.68706 25.8029 9.1866C26.2998 9.68615 26.9102 9.93846 27.6397 9.93846C28.3453 9.93846 28.9398 9.68346 29.4234 9.17869C29.9071 8.67392 30.1475 8.04814 30.1475 7.3042C30.1475 6.53382 29.9044 5.89759 29.4208 5.39282C28.9345 4.89073 28.3214 4.63827 27.5762 4.63827Z" fill="#E63D1A"/>
<path d="M42.4311 2.91348C42.4311 2.91348 42.4311 5.82663 42.4311 11.6552C42.4311 11.6552 41.7888 11.6552 40.5019 11.6552C40.5019 11.6552 40.5019 11.2767 40.5019 10.5221C40.0791 11.0006 39.643 11.3422 39.191 11.55C38.7392 11.7604 38.2027 11.8629 37.5843 11.8629C36.736 11.8629 35.9776 11.6683 35.3037 11.2819C34.6297 10.8927 34.1039 10.3539 33.7232 9.65972C33.3454 8.96567 33.1552 8.18752 33.1552 7.31989C33.1552 6.4418 33.3454 5.65051 33.7286 4.95109C34.1091 4.24913 34.6403 3.70237 35.3221 3.30531C36.004 2.91093 36.773 2.71375 37.6292 2.71375C38.2662 2.71375 38.8132 2.8216 39.2705 3.03985C39.7303 3.25796 40.1425 3.60498 40.5019 4.08346V2.91362H42.4311V2.91348ZM37.8169 4.63827C37.0822 4.63827 36.477 4.89582 36.0013 5.40851C35.523 5.9212 35.2852 6.57312 35.2852 7.36456C35.2852 8.12956 35.5256 8.75011 36.0093 9.2259C36.4902 9.69915 37.1166 9.93832 37.8855 9.93832C38.6494 9.93832 39.2651 9.69647 39.7328 9.21276C40.2006 8.73173 40.4332 8.09804 40.4332 7.31989C40.4332 6.52859 40.19 5.88445 39.7011 5.3849C39.2122 4.88804 38.5859 4.63827 37.8169 4.63827Z" fill="#E63D1A"/>
<path d="M50.9321 2.91362C50.9321 2.91362 51.6035 2.91362 52.9432 2.91362C52.9432 2.91362 52.9432 5.27451 52.9432 9.99896C52.9432 10.8666 52.8693 11.5869 52.716 12.1601C52.5627 12.7332 52.3169 13.2222 51.976 13.6271C51.141 14.6392 49.9465 15.1441 48.3924 15.1441C47.317 15.1441 46.3867 14.8995 45.5966 14.4131C44.8063 13.9241 44.2328 13.2432 43.8787 12.3651H46.2704C46.5795 12.7016 46.9019 12.9435 47.2377 13.0829C47.5733 13.2248 47.9855 13.2957 48.4771 13.2957C49.262 13.2957 49.8567 13.0644 50.2662 12.6017C50.6732 12.1416 50.8952 11.4396 50.9321 10.4984C50.5172 10.9822 50.0891 11.3292 49.6425 11.5448C49.1959 11.7577 48.6621 11.8629 48.0438 11.8629C47.2165 11.8629 46.4765 11.6658 45.8185 11.2714C45.1605 10.8744 44.6479 10.3249 44.2804 9.61773C43.9131 8.9104 43.7308 8.11387 43.7308 7.22518C43.7308 5.9318 44.1405 4.85652 44.9623 3.99936C45.7816 3.14233 46.8148 2.71375 48.0595 2.71375C49.3176 2.71375 50.2768 3.15025 50.9323 4.02296V2.91362H50.9321ZM48.2683 4.63827C47.5442 4.63827 46.9628 4.88281 46.5214 5.37444C46.0801 5.86352 45.8607 6.51276 45.8607 7.31989C45.8607 8.11387 46.0828 8.7501 46.5294 9.22604C46.976 9.69915 47.5759 9.93846 48.3291 9.93846C49.0928 9.93846 49.7032 9.69661 50.1577 9.21813C50.6124 8.73696 50.8371 8.09281 50.8371 7.28837C50.8371 6.49707 50.6018 5.85815 50.1288 5.36921C49.6583 4.88281 49.0374 4.63827 48.2683 4.63827Z" fill="#E63D1A"/>
<path d="M63.3255 8.21904C63.3255 8.21904 61.058 8.21904 56.5205 8.21904C56.65 8.74742 56.9327 9.16809 57.3662 9.47567C57.7996 9.7834 58.3282 9.93846 58.9518 9.93846C59.3852 9.93846 59.7472 9.87273 60.0353 9.74128C60.3259 9.60982 60.6061 9.38634 60.8809 9.06829H63.18C63.0558 9.46267 62.8234 9.8675 62.4824 10.2828C61.5733 11.3372 60.4132 11.863 58.9994 11.863C58.3387 11.863 57.7124 11.7447 57.1257 11.5081C56.5363 11.274 56.0315 10.9532 55.6113 10.5511C55.1912 10.1461 54.8555 9.66509 54.6097 9.10236C54.3612 8.53977 54.2372 7.94566 54.2372 7.31989C54.2372 6.47587 54.4432 5.70295 54.8528 4.99576C55.2625 4.29125 55.8227 3.73389 56.5336 3.32637C57.2419 2.91616 58.0215 2.71375 58.8671 2.71375C59.7287 2.71375 60.5057 2.91362 61.1981 3.31846C61.8904 3.72075 62.4295 4.28065 62.8207 4.99576C63.2092 5.71355 63.4047 6.51799 63.4047 7.41191C63.4047 7.69843 63.3782 7.96927 63.3254 8.21904H63.3255ZM56.4597 6.37084H61.3302C61.1955 5.8108 60.918 5.38222 60.5004 5.08523C60.0828 4.78811 59.549 4.63827 58.8989 4.63827C58.2674 4.63827 57.7467 4.78542 57.3291 5.07986C56.9143 5.37699 56.6235 5.80557 56.4597 6.37084Z" fill="#E63D1A"/>
<path d="M64.7047 11.6552C64.7047 11.6552 64.7047 8.74219 64.7047 2.91362C64.7047 2.91362 65.3522 2.91362 66.6498 2.91362C66.6498 2.91362 66.6498 3.19223 66.6498 3.75227C67.0355 3.37895 67.4187 3.11081 67.794 2.95037C68.1719 2.79262 68.616 2.71375 69.1259 2.71375C70.405 2.71375 71.3406 3.1607 71.9299 4.05194C72.1413 4.39119 72.2894 4.77496 72.3739 5.20086C72.4584 5.62676 72.5008 6.21832 72.5008 6.97287V11.6552H70.3972C70.3972 11.6552 70.3972 10.2302 70.3972 7.38039C70.3972 6.24985 70.2464 5.50844 69.9479 5.15351C69.6624 4.80917 69.2528 4.63827 68.7163 4.63827C67.9922 4.63827 67.4689 4.91957 67.1439 5.48484C67.0143 5.68471 66.9272 5.93434 66.8796 6.23147C66.8347 6.53128 66.8109 6.96495 66.8109 7.5356V11.6552C66.8109 11.6552 66.108 11.6552 64.7047 11.6552Z" fill="#E63D1A"/>
<path d="M80.4456 8.78163C80.4456 8.78163 81.2384 8.78163 82.8241 8.78163C82.4567 9.76234 81.8964 10.5221 81.1407 11.0584C80.3822 11.5947 79.4916 11.8629 78.4636 11.8629C77.8241 11.8629 77.2135 11.742 76.6321 11.5001C76.0534 11.2608 75.5539 10.9374 75.1363 10.5299C74.7162 10.125 74.3831 9.63865 74.1375 9.07607C73.889 8.51093 73.7648 7.914 73.7648 7.28837C73.7648 6.44703 73.9682 5.67411 74.3753 4.97215C74.7848 4.27273 75.3425 3.72075 76.0534 3.31846C76.7615 2.91362 77.5439 2.71375 78.3948 2.71375C79.0239 2.71375 79.6237 2.82414 80.1945 3.04762C80.7653 3.2711 81.2649 3.59183 81.693 4.00727C81.9705 4.2781 82.1924 4.54357 82.3562 4.8038C82.5174 5.06417 82.6734 5.40596 82.824 5.83186H80.4456C80.0334 5.03519 79.3488 4.63827 78.3948 4.63827C77.6628 4.63827 77.0629 4.88267 76.5952 5.37444C76.1274 5.86338 75.8948 6.49707 75.8948 7.27254C75.8948 8.03768 76.1379 8.67377 76.6268 9.17869C77.1131 9.68346 77.7209 9.93846 78.4504 9.93846C78.8838 9.93846 79.259 9.84376 79.5761 9.65972C79.8933 9.47567 80.184 9.18392 80.4456 8.78163Z" fill="#E63D1A"/>
<path d="M84.6585 14.573C84.6585 14.573 85.2081 13.3294 86.3076 10.837C86.3076 10.837 85.2347 8.19738 83.0887 2.91302C83.0887 2.91302 83.8894 2.91302 85.4963 2.91302C85.4963 2.91302 86.1465 4.80334 87.4466 8.5813C87.4466 8.5813 88.1574 6.69098 89.5766 2.91302C89.5766 2.91302 90.3827 2.91302 92 2.91302C92 2.91302 90.3086 6.79883 86.9287 14.573C86.9287 14.573 86.1728 14.573 84.6585 14.573Z" fill="#E63D1A"/>
<path fill-rule="evenodd" clip-rule="evenodd" d="M10.0509 2.94922H17.7101C20.1016 2.94922 22.0583 4.8958 22.0583 7.27478C22.0583 9.6539 20.1016 11.6005 17.7101 11.6005H10.0509C7.65943 11.6005 5.70276 9.6539 5.70276 7.27478C5.70276 4.89566 7.65943 2.94922 10.0509 2.94922ZM10.0509 3.75366H17.7101C19.6569 3.75366 21.2497 5.33823 21.2497 7.27478C21.2497 9.21146 19.6569 10.796 17.7101 10.796H10.0509C8.10417 10.796 6.51137 9.21146 6.51137 7.27478C6.51137 5.33823 8.10417 3.75366 10.0509 3.75366ZM10.4567 5.77473C10.4567 5.77473 10.4567 6.71106 10.4567 8.58286C10.4567 8.58286 10.3014 8.58286 9.99066 8.58286C9.99066 8.58286 9.99066 8.49169 9.99066 8.30991C9.88751 8.42398 9.78123 8.50639 9.67168 8.55699C9.56213 8.6076 9.4361 8.63304 9.29273 8.63304C9.0948 8.63304 8.9152 8.58484 8.7528 8.48858C8.59053 8.39161 8.46251 8.2586 8.36959 8.08954C8.27595 7.91977 8.22949 7.7322 8.22949 7.52695C8.22949 7.32043 8.27666 7.13046 8.37015 6.95744C8.46436 6.78386 8.59238 6.64773 8.75479 6.54893C8.91719 6.45012 9.0948 6.40065 9.28903 6.40065C9.42203 6.40065 9.54692 6.42411 9.66272 6.47104C9.77924 6.51797 9.87486 6.58257 9.94932 6.66427V5.77488H10.4569L10.4567 5.77473ZM9.35255 6.86429C9.18076 6.86429 9.03612 6.92634 8.91904 7.04988C8.80125 7.17343 8.74271 7.32736 8.74271 7.51041C8.74271 7.69474 8.80381 7.85065 8.926 7.97787C9.04891 8.10523 9.19796 8.16926 9.37301 8.16926C9.54422 8.16926 9.68944 8.1065 9.80851 7.98169C9.92758 7.85687 9.98683 7.70364 9.98683 7.52314C9.98683 7.33245 9.92701 7.17541 9.80794 7.05116C9.68816 6.92634 9.53669 6.86429 9.35255 6.86429ZM10.8688 8.58286C10.8688 8.58286 10.8688 7.88104 10.8688 6.4767C10.8688 6.4767 11.0381 6.4767 11.3762 6.4767C11.3762 6.4767 11.3762 7.17851 11.3762 8.58286C11.3762 8.58286 11.2068 8.58286 10.8688 8.58286ZM10.8688 6.24982C10.8688 6.24982 10.8688 6.09151 10.8688 5.77473C10.8688 5.77473 11.0381 5.77473 11.3762 5.77473C11.3762 5.77473 11.3762 5.93319 11.3762 6.24982C11.3762 6.24982 11.2068 6.24982 10.8688 6.24982ZM13.4228 6.4767C13.4228 6.4767 13.5845 6.4767 13.9073 6.4767C13.9073 6.4767 13.9073 7.0455 13.9073 8.18382C13.9073 8.39288 13.8895 8.56647 13.8526 8.70457C13.8157 8.84267 13.7564 8.96042 13.6743 9.05795C13.4729 9.30179 13.1852 9.42349 12.8108 9.42349C12.5516 9.42349 12.3276 9.36455 12.1372 9.24737C11.9468 9.12948 11.8085 8.96551 11.7233 8.7539H12.2996C12.374 8.83504 12.4518 8.89328 12.5326 8.92692C12.6135 8.96112 12.7128 8.97823 12.8311 8.97823C13.0203 8.97823 13.1636 8.92239 13.2622 8.81101C13.3603 8.70004 13.4138 8.53099 13.4228 8.30411C13.3228 8.42073 13.2196 8.50441 13.112 8.55629C13.0043 8.6076 12.8758 8.63304 12.7267 8.63304C12.5274 8.63304 12.3492 8.58541 12.1906 8.49042C12.032 8.39472 11.9086 8.26241 11.82 8.09194C11.7315 7.92161 11.6876 7.72965 11.6876 7.51564C11.6876 7.20396 11.7862 6.94486 11.9843 6.73834C12.1817 6.53182 12.4306 6.42849 12.7305 6.42849C13.0336 6.42849 13.2648 6.53366 13.4226 6.744V6.4767H13.4228ZM12.781 6.89228C12.6065 6.89228 12.4664 6.95108 12.36 7.06953C12.2537 7.18742 12.2008 7.3439 12.2008 7.5384C12.2008 7.72965 12.2543 7.88288 12.362 7.99766C12.4695 8.11159 12.614 8.16926 12.7956 8.16926C12.9796 8.16926 13.1267 8.11103 13.2362 7.99568C13.3456 7.87977 13.3998 7.72456 13.3998 7.53077C13.3998 7.34008 13.3432 7.18615 13.2291 7.06826C13.1159 6.95108 12.9663 6.89228 12.781 6.89228ZM14.3199 8.58286C14.3199 8.58286 14.3199 7.88104 14.3199 6.4767C14.3199 6.4767 14.4893 6.4767 14.8275 6.4767C14.8275 6.4767 14.8275 7.17851 14.8275 8.58286C14.8275 8.58286 14.6581 8.58286 14.3199 8.58286ZM14.3199 6.24982C14.3199 6.24982 14.3199 6.09151 14.3199 5.77473C14.3199 5.77473 14.4893 5.77473 14.8275 5.77473C14.8275 5.77473 14.8275 5.93319 14.8275 6.24982C14.8275 6.24982 14.6581 6.24982 14.3199 6.24982ZM15.331 8.58286C15.331 8.58286 15.331 8.03427 15.331 6.93652C15.331 6.93652 15.2483 6.93652 15.0828 6.93652C15.0828 6.93652 15.0828 6.78329 15.0828 6.4767C15.0828 6.4767 15.1655 6.4767 15.331 6.4767C15.331 6.4767 15.331 6.2429 15.331 5.77473C15.331 5.77473 15.4998 5.77473 15.8386 5.77473C15.8386 5.77473 15.8386 6.00924 15.8386 6.4767C15.8386 6.4767 15.9404 6.4767 16.1442 6.4767C16.1442 6.4767 16.1442 6.62992 16.1442 6.93652C16.1442 6.93652 16.0423 6.93652 15.8386 6.93652C15.8386 6.93652 15.8386 7.48582 15.8386 8.58286C15.8386 8.58286 15.6692 8.58286 15.331 8.58286ZM18.5192 6.4767C18.5192 6.4767 18.5192 7.17851 18.5192 8.58286C18.5192 8.58286 18.3645 8.58286 18.0544 8.58286C18.0544 8.58286 18.0544 8.49169 18.0544 8.30991C17.9525 8.42511 17.8475 8.50752 17.7387 8.55756C17.6297 8.60816 17.5006 8.6329 17.3515 8.6329C17.147 8.6329 16.9643 8.58611 16.8019 8.49296C16.6397 8.39924 16.5129 8.26934 16.4211 8.10212C16.3302 7.9349 16.2843 7.74732 16.2843 7.5384C16.2843 7.3268 16.3302 7.13611 16.4224 6.96762C16.5142 6.79842 16.6422 6.66667 16.8065 6.57098C16.9707 6.47599 17.156 6.42849 17.3623 6.42849C17.5158 6.42849 17.6476 6.4545 17.7577 6.50709C17.8686 6.55967 17.9679 6.64335 18.0544 6.75855V6.4767H18.5192ZM17.4075 6.89228C17.2305 6.89228 17.0847 6.95433 16.97 7.07773C16.8548 7.20127 16.7975 7.35846 16.7975 7.54915C16.7975 7.73347 16.8555 7.88288 16.972 7.99766C17.0878 8.11159 17.2388 8.16926 17.4241 8.16926C17.6081 8.16926 17.7565 8.11102 17.8691 7.99441C17.9818 7.8785 18.0379 7.72584 18.0379 7.5384C18.0379 7.34772 17.9794 7.19251 17.8615 7.07208C17.7437 6.95249 17.5928 6.89228 17.4075 6.89228ZM18.9332 8.58286C18.9332 8.58286 18.9332 7.64668 18.9332 5.77473C18.9332 5.77473 19.1025 5.77473 19.4406 5.77473C19.4406 5.77473 19.4406 6.71092 19.4406 8.58286C19.4406 8.58286 19.2713 8.58286 18.9332 8.58286Z" fill="#E63D1A"/>
<rect x="30.6666" y="18.5427" width="61.3333" height="17.8295" rx="8.91473" fill="#E63D1A"/>
<path d="M41.4642 25.7029C41.2265 25.4557 40.9745 25.2703 40.7082 25.1467C40.4515 25.0135 40.1424 24.947 39.7811 24.947C39.4293 24.947 39.1202 25.0135 38.854 25.1467C38.5972 25.2703 38.3785 25.4462 38.1978 25.6744C38.0267 25.8931 37.8935 26.1499 37.7985 26.4446C37.7129 26.7299 37.6701 27.0294 37.6701 27.3432C37.6701 27.657 37.7224 27.9566 37.827 28.2418C37.9316 28.5176 38.079 28.7601 38.2692 28.9693C38.4593 29.1785 38.6876 29.3449 38.9538 29.4685C39.2201 29.5826 39.5196 29.6397 39.8524 29.6397C40.2138 29.6397 40.5228 29.5779 40.7795 29.4542C41.0363 29.3211 41.274 29.1309 41.4927 28.8837L42.4056 29.7966C42.0728 30.1674 41.6829 30.4337 41.236 30.5953C40.7986 30.757 40.3326 30.8378 39.8381 30.8378C39.3151 30.8378 38.8349 30.7522 38.3975 30.5811C37.9696 30.4099 37.5988 30.1722 37.285 29.8679C36.9712 29.5541 36.7287 29.1832 36.5575 28.7553C36.3864 28.3179 36.3008 27.8377 36.3008 27.3147C36.3008 26.7917 36.3864 26.3115 36.5575 25.8741C36.7287 25.4367 36.9664 25.0611 37.2707 24.7473C37.5845 24.4335 37.9554 24.191 38.3833 24.0198C38.8207 23.8392 39.3056 23.7488 39.8381 23.7488C40.3326 23.7488 40.8033 23.8392 41.2502 24.0198C41.7067 24.191 42.1013 24.4572 42.4341 24.8186L41.4642 25.7029Z" fill="#EDEAEA"/>
<path d="M44.8364 27.2862C44.8364 27.6285 44.8887 27.9471 44.9933 28.2418C45.0979 28.5271 45.2453 28.7744 45.4355 28.9835C45.6257 29.1832 45.8586 29.3449 46.1344 29.4685C46.4102 29.5826 46.7192 29.6397 47.0615 29.6397C47.4039 29.6397 47.7129 29.5826 47.9887 29.4685C48.2644 29.3449 48.4974 29.1832 48.6876 28.9835C48.8778 28.7744 49.0251 28.5271 49.1297 28.2418C49.2343 27.9471 49.2866 27.6285 49.2866 27.2862C49.2866 26.9439 49.2343 26.6301 49.1297 26.3448C49.0251 26.05 48.8778 25.8028 48.6876 25.6031C48.4974 25.3939 48.2644 25.2322 47.9887 25.1181C47.7129 24.9945 47.4039 24.9327 47.0615 24.9327C46.7192 24.9327 46.4102 24.9945 46.1344 25.1181C45.8586 25.2322 45.6257 25.3939 45.4355 25.6031C45.2453 25.8028 45.0979 26.05 44.9933 26.3448C44.8887 26.6301 44.8364 26.9439 44.8364 27.2862ZM43.4671 27.2862C43.4671 26.7917 43.5574 26.3305 43.7381 25.9026C43.9283 25.4747 44.185 25.0991 44.5083 24.7758C44.8317 24.4525 45.212 24.2005 45.6494 24.0198C46.0868 23.8296 46.5575 23.7346 47.0615 23.7346C47.5655 23.7346 48.0362 23.8296 48.4736 24.0198C48.911 24.2005 49.2914 24.4525 49.6147 24.7758C49.938 25.0991 50.19 25.4747 50.3707 25.9026C50.5609 26.3305 50.6559 26.7917 50.6559 27.2862C50.6559 27.7807 50.5609 28.2466 50.3707 28.684C50.19 29.1119 49.938 29.4875 49.6147 29.8108C49.2914 30.1246 48.911 30.3766 48.4736 30.5668C48.0362 30.7475 47.5655 30.8378 47.0615 30.8378C46.5575 30.8378 46.0868 30.7475 45.6494 30.5668C45.212 30.3766 44.8317 30.1246 44.5083 29.8108C44.185 29.4875 43.9283 29.1119 43.7381 28.684C43.5574 28.2466 43.4671 27.7807 43.4671 27.2862Z" fill="#EDEAEA"/>
<path d="M58.5401 30.6666H57.2564V29.6254H57.2279C57.0662 29.9868 56.7857 30.2815 56.3863 30.5098C55.987 30.7285 55.5258 30.8378 55.0028 30.8378C54.6699 30.8378 54.3561 30.7855 54.0614 30.6809C53.7666 30.5858 53.5051 30.4337 53.2769 30.2245C53.0582 30.0153 52.8822 29.749 52.7491 29.4257C52.616 29.0929 52.5494 28.703 52.5494 28.2561V23.9057H53.8332V27.8995C53.8332 28.2133 53.8759 28.4843 53.9615 28.7125C54.0471 28.9313 54.1612 29.1119 54.3039 29.2546C54.4465 29.3877 54.6081 29.4875 54.7888 29.5541C54.979 29.6111 55.1739 29.6397 55.3736 29.6397C55.6399 29.6397 55.8871 29.5969 56.1153 29.5113C56.3435 29.4257 56.5432 29.2926 56.7144 29.1119C56.8856 28.9217 57.0187 28.684 57.1138 28.3987C57.2089 28.1135 57.2564 27.7759 57.2564 27.386V23.9057H58.5401V30.6666Z" fill="#EDEAEA"/>
<path d="M60.7605 23.9057H62.0442V24.947H62.0727C62.1583 24.7663 62.2724 24.6046 62.415 24.462C62.5577 24.3099 62.7146 24.1815 62.8857 24.0769C63.0664 23.9723 63.2613 23.8915 63.4705 23.8344C63.6797 23.7678 63.8889 23.7346 64.0981 23.7346C64.3073 23.7346 64.4975 23.7631 64.6687 23.8201L64.6116 25.2037C64.507 25.1752 64.4024 25.1514 64.2978 25.1324C64.1932 25.1134 64.0886 25.1039 63.984 25.1039C63.3564 25.1039 62.8762 25.2798 62.5434 25.6316C62.2106 25.9834 62.0442 26.5302 62.0442 27.2719V30.6666H60.7605V23.9057Z" fill="#EDEAEA"/>
<path d="M69.9193 25.6031C69.7672 25.4129 69.577 25.256 69.3488 25.1324C69.1301 24.9993 68.8591 24.9327 68.5358 24.9327C68.2315 24.9327 67.9652 24.9993 67.737 25.1324C67.5183 25.256 67.4089 25.4414 67.4089 25.6887C67.4089 25.8884 67.4708 26.05 67.5944 26.1736C67.7275 26.2972 67.8796 26.3971 68.0508 26.4732C68.2315 26.5492 68.4217 26.6063 68.6213 26.6443C68.821 26.6824 68.9922 26.7156 69.1348 26.7442C69.4106 26.8107 69.6673 26.8916 69.9051 26.9867C70.1523 27.0817 70.3615 27.2054 70.5327 27.3575C70.7133 27.5096 70.8512 27.6951 70.9463 27.9138C71.0509 28.1325 71.1032 28.3987 71.1032 28.7125C71.1032 29.0929 71.0224 29.421 70.8607 29.6967C70.6991 29.963 70.4899 30.1817 70.2331 30.3529C69.9764 30.524 69.6816 30.6476 69.3488 30.7237C69.0255 30.7998 68.6974 30.8378 68.3646 30.8378C67.8036 30.8378 67.3091 30.7522 66.8812 30.5811C66.4628 30.4099 66.0872 30.0961 65.7544 29.6397L66.7243 28.8409C66.9335 29.0501 67.1665 29.2355 67.4232 29.3972C67.68 29.5588 67.9938 29.6397 68.3646 29.6397C68.5263 29.6397 68.6879 29.6254 68.8496 29.5969C69.0207 29.5588 69.1681 29.5065 69.2917 29.44C69.4249 29.3639 69.5295 29.2736 69.6055 29.169C69.6911 29.0549 69.7339 28.9265 69.7339 28.7839C69.7339 28.5937 69.6721 28.4368 69.5485 28.3132C69.4344 28.1895 69.2917 28.0945 69.1206 28.0279C68.9589 27.9518 68.783 27.8948 68.5928 27.8567C68.4121 27.8092 68.2505 27.7711 68.1079 27.7426C67.8321 27.6761 67.5706 27.6 67.3234 27.5144C67.0761 27.4288 66.8574 27.3147 66.6672 27.1721C66.4771 27.0294 66.3249 26.8488 66.2108 26.6301C66.0967 26.4114 66.0396 26.1403 66.0396 25.817C66.0396 25.4652 66.111 25.1609 66.2536 24.9042C66.4057 24.6379 66.6007 24.4192 66.8384 24.248C67.0856 24.0769 67.3614 23.9485 67.6657 23.8629C67.9795 23.7773 68.2933 23.7346 68.6071 23.7346C69.0635 23.7346 69.5009 23.8201 69.9193 23.9913C70.3377 24.1625 70.6705 24.4477 70.9178 24.8471L69.9193 25.6031Z" fill="#EDEAEA"/>
<path d="M73.9179 27.7569C73.9179 28.0517 73.9797 28.3227 74.1034 28.5699C74.2365 28.8076 74.4076 29.0121 74.6168 29.1832C74.826 29.3544 75.0685 29.4875 75.3443 29.5826C75.62 29.6777 75.9053 29.7253 76.2001 29.7253C76.5995 29.7253 76.9466 29.6349 77.2413 29.4542C77.5361 29.2641 77.8071 29.0168 78.0544 28.7125L79.0243 29.4542C78.3111 30.3766 77.3127 30.8378 76.0289 30.8378C75.4964 30.8378 75.0115 30.7475 74.574 30.5668C74.1461 30.3861 73.78 30.1389 73.4758 29.8251C73.181 29.5018 72.9528 29.1262 72.7911 28.6983C72.6294 28.2609 72.5486 27.7902 72.5486 27.2862C72.5486 26.7822 72.6342 26.3163 72.8054 25.8884C72.986 25.4509 73.2285 25.0753 73.5328 24.7615C73.8466 24.4382 74.2175 24.1862 74.6454 24.0056C75.0733 23.8249 75.5392 23.7346 76.0432 23.7346C76.6423 23.7346 77.1462 23.8392 77.5551 24.0484C77.9735 24.2576 78.3159 24.5333 78.5821 24.8756C78.8484 25.2085 79.0385 25.5888 79.1527 26.0167C79.2763 26.4351 79.3381 26.863 79.3381 27.3004V27.7569H73.9179ZM77.9688 26.7299C77.9593 26.4446 77.9117 26.1831 77.8261 25.9454C77.7501 25.7077 77.6312 25.5032 77.4696 25.3321C77.3079 25.1514 77.1035 25.0135 76.8562 24.9184C76.6185 24.8138 76.338 24.7615 76.0147 24.7615C75.7009 24.7615 75.4108 24.8233 75.1446 24.947C74.8878 25.0611 74.6691 25.2132 74.4885 25.4034C74.3078 25.5936 74.1652 25.8075 74.0606 26.0453C73.9655 26.2735 73.9179 26.5017 73.9179 26.7299H77.9688Z" fill="#EDEAEA"/>
<path d="M84.7534 25.6031C84.6013 25.4129 84.4111 25.256 84.1829 25.1324C83.9642 24.9993 83.6932 24.9327 83.3699 24.9327C83.0656 24.9327 82.7993 24.9993 82.5711 25.1324C82.3524 25.256 82.2431 25.4414 82.2431 25.6887C82.2431 25.8884 82.3049 26.05 82.4285 26.1736C82.5616 26.2972 82.7137 26.3971 82.8849 26.4732C83.0656 26.5492 83.2558 26.6063 83.4555 26.6443C83.6551 26.6824 83.8263 26.7156 83.9689 26.7442C84.2447 26.8107 84.5015 26.8916 84.7392 26.9867C84.9864 27.0817 85.1956 27.2054 85.3668 27.3575C85.5474 27.5096 85.6853 27.6951 85.7804 27.9138C85.885 28.1325 85.9373 28.3987 85.9373 28.7125C85.9373 29.0929 85.8565 29.421 85.6948 29.6967C85.5332 29.963 85.324 30.1817 85.0672 30.3529C84.8105 30.524 84.5157 30.6476 84.1829 30.7237C83.8596 30.7998 83.5315 30.8378 83.1987 30.8378C82.6377 30.8378 82.1432 30.7522 81.7153 30.5811C81.2969 30.4099 80.9213 30.0961 80.5885 29.6397L81.5584 28.8409C81.7676 29.0501 82.0006 29.2355 82.2573 29.3972C82.5141 29.5588 82.8279 29.6397 83.1987 29.6397C83.3604 29.6397 83.522 29.6254 83.6837 29.5969C83.8548 29.5588 84.0022 29.5065 84.1258 29.44C84.259 29.3639 84.3636 29.2736 84.4396 29.169C84.5252 29.0549 84.568 28.9265 84.568 28.7839C84.568 28.5937 84.5062 28.4368 84.3826 28.3132C84.2685 28.1895 84.1258 28.0945 83.9547 28.0279C83.793 27.9518 83.6171 27.8948 83.4269 27.8567C83.2463 27.8092 83.0846 27.7711 82.942 27.7426C82.6662 27.6761 82.4047 27.6 82.1575 27.5144C81.9102 27.4288 81.6915 27.3147 81.5013 27.1721C81.3112 27.0294 81.159 26.8488 81.0449 26.6301C80.9308 26.4114 80.8738 26.1403 80.8738 25.817C80.8738 25.4652 80.9451 25.1609 81.0877 24.9042C81.2398 24.6379 81.4348 24.4192 81.6725 24.248C81.9197 24.0769 82.1955 23.9485 82.4998 23.8629C82.8136 23.7773 83.1274 23.7346 83.4412 23.7346C83.8976 23.7346 84.335 23.8201 84.7534 23.9913C85.1718 24.1625 85.5047 24.4477 85.7519 24.8471L84.7534 25.6031Z" fill="#EDEAEA"/>
</svg>
