<svg width="217" height="36" viewBox="0 0 217 36" fill="none" xmlns="http://www.w3.org/2000/svg">
<path d="M2.43098 26.0753C2.40062 25.5565 2.42605 24.9801 2.42605 24.4553H2.43098V11.3729C2.43098 11.3729 1.62068 11.3729 0 11.3729C0 11.3729 0 9.87227 0 6.87091C0 6.87091 0.810305 6.87091 2.43098 6.87091C2.43098 6.87091 2.43098 4.58272 2.43098 0C2.43098 0 4.08283 0 7.39902 0C7.39902 0 7.39902 2.29453 7.39902 6.87091C7.39902 6.87091 8.3963 6.87091 10.391 6.87091C10.391 6.87091 10.391 8.37159 10.391 11.3729C10.391 11.3729 9.39361 11.3729 7.39902 11.3729V24.4553H10.0594V28.6072H5.13041C4.2321 28.6072 3.43255 28.1655 2.94006 27.4896C2.73606 27.2226 2.56175 26.7798 2.43092 26.0753H2.43098Z" fill="#B1B1B1"/>
<path d="M54.4346 34.3742C54.4346 34.3742 54.4346 25.2091 54.4346 6.87226C54.4346 6.87226 55.9494 6.87226 58.9851 6.87226C58.9851 6.87226 58.9851 7.68478 58.9851 9.30315C60.6243 7.36837 62.8996 6.40082 65.7918 6.40082C67.7678 6.40082 69.538 6.85359 71.1089 7.77147C72.6797 8.68301 73.9076 9.9603 74.7867 11.5913C75.6718 13.2284 76.1142 15.0701 76.1142 17.1166C76.1142 19.1754 75.6654 21.0355 74.7803 22.6852C73.8889 24.3409 72.6609 25.6369 71.0841 26.5735C69.5069 27.5097 67.7303 27.9811 65.7607 27.9811C64.4952 27.9811 63.3544 27.7887 62.3449 27.3983C61.3348 27.0136 60.3501 26.3997 59.4027 25.5626V34.3742H54.4346ZM65.0438 10.9402C63.3671 10.9402 61.9585 11.5417 60.8177 12.7509C59.6832 13.9539 59.1098 15.4609 59.1098 17.2653C59.1098 19.0204 59.6956 20.4901 60.8612 21.6683C62.0332 22.8466 63.473 23.4417 65.1936 23.4417C66.8579 23.4417 68.2602 22.8403 69.401 21.6497C70.5418 20.459 71.1089 18.983 71.1089 17.2283C71.1089 15.4112 70.5354 13.9105 69.3946 12.7199C68.2478 11.5357 66.8016 10.9402 65.0438 10.9402Z" fill="#B1B1B1"/>
<path d="M100.082 6.87192C100.082 6.87192 100.082 13.7432 100.082 27.491C100.082 27.491 98.5671 27.491 95.5317 27.491C95.5317 27.491 95.5317 26.5981 95.5317 24.8184C94.5343 25.947 93.5058 26.7528 92.4397 27.2429C91.3739 27.7391 90.1085 27.9808 88.6499 27.9808C86.6491 27.9808 84.8601 27.522 83.2706 26.6105C81.681 25.6926 80.4406 24.4216 79.5428 22.7843C78.6516 21.1472 78.2029 19.3118 78.2029 17.2653C78.2029 15.1942 78.6516 13.3277 79.5555 11.678C80.453 10.0223 81.7058 8.73269 83.3141 7.79614C84.9225 6.86592 86.7363 6.40082 88.7558 6.40082C90.2583 6.40082 91.5485 6.65521 92.627 7.17C93.7115 7.68445 94.6838 8.50297 95.5317 9.63156V6.87226H100.082V6.87192ZM89.1985 10.9402C87.4655 10.9402 86.0382 11.5477 84.9161 12.7569C83.788 13.9662 83.227 15.5039 83.227 17.3707C83.227 19.1751 83.794 20.6388 84.9349 21.761C86.0693 22.8773 87.5466 23.4414 89.3604 23.4414C91.1621 23.4414 92.6143 22.8709 93.7176 21.73C94.8209 20.5954 95.3695 19.1007 95.3695 17.2653C95.3695 15.3989 94.7961 13.8795 93.6428 12.7013C92.4896 11.5293 91.0123 10.9402 89.1985 10.9402Z" fill="#B1B1B1"/>
<path d="M120.133 6.87226C120.133 6.87226 121.717 6.87226 124.877 6.87226C124.877 6.87226 124.877 12.4409 124.877 23.5844C124.877 25.6309 124.702 27.33 124.341 28.6819C123.979 30.0336 123.399 31.1872 122.595 32.1421C120.626 34.5293 117.808 35.7202 114.143 35.7202C111.606 35.7202 109.412 35.1434 107.548 33.9962C105.684 32.8426 104.332 31.2365 103.496 29.1654H109.137C109.867 29.9592 110.627 30.5297 111.419 30.8584C112.211 31.1932 113.183 31.3605 114.343 31.3605C116.194 31.3605 117.596 30.8148 118.562 29.7235C119.522 28.6383 120.046 26.9825 120.133 24.7624C119.154 25.9036 118.145 26.7222 117.091 27.2306C116.038 27.7327 114.779 27.9808 113.32 27.9808C111.369 27.9808 109.624 27.516 108.072 26.5858C106.52 25.6492 105.31 24.3533 104.444 22.6852C103.577 21.0168 103.147 19.1381 103.147 17.0419C103.147 13.9912 104.114 11.455 106.052 9.43318C107.985 7.41172 110.422 6.40082 113.358 6.40082C116.325 6.40082 118.587 7.43039 120.133 9.48886V6.87226H120.133ZM113.85 10.9402C112.142 10.9402 110.771 11.517 109.73 12.6766C108.689 13.8302 108.171 15.3615 108.171 17.2653C108.171 19.1381 108.695 20.6388 109.748 21.7613C110.802 22.8773 112.217 23.4417 113.993 23.4417C115.795 23.4417 117.234 22.8713 118.307 21.7427C119.379 20.6077 119.909 19.0884 119.909 17.191C119.909 15.3245 119.354 13.8175 118.238 12.6643C117.129 11.517 115.664 10.9402 113.85 10.9402Z" fill="#B1B1B1"/>
<path d="M149.366 19.3861C149.366 19.3861 144.017 19.3861 133.315 19.3861C133.62 20.6324 134.287 21.6246 135.31 22.3501C136.332 23.076 137.579 23.4417 139.05 23.4417C140.072 23.4417 140.926 23.2867 141.605 22.9766C142.291 22.6666 142.952 22.1394 143.6 21.3893H149.023C148.73 22.3195 148.181 23.2744 147.377 24.2539C145.233 26.7408 142.496 27.9811 139.162 27.9811C137.603 27.9811 136.126 27.702 134.742 27.1439C133.352 26.5918 132.161 25.8353 131.17 24.8867C130.179 23.9315 129.388 22.7969 128.808 21.4696C128.222 20.1426 127.929 18.7413 127.929 17.2653C127.929 15.2745 128.415 13.4514 129.381 11.7834C130.348 10.1217 131.669 8.80704 133.346 7.84582C135.016 6.87826 136.855 6.40082 138.85 6.40082C140.882 6.40082 142.715 6.87226 144.348 7.82715C145.981 8.77603 147.252 10.0967 148.175 11.7834C149.091 13.4764 149.553 15.3739 149.553 17.4824C149.553 18.1582 149.49 18.797 149.366 19.3861H149.366ZM133.171 15.0268H144.659C144.342 13.7058 143.687 12.6949 142.702 11.9944C141.717 11.2936 140.458 10.9402 138.925 10.9402C137.435 10.9402 136.207 11.2873 135.222 11.9818C134.244 12.6826 133.558 13.6935 133.171 15.0268Z" fill="#B1B1B1"/>
<path d="M152.619 27.491C152.619 27.491 152.619 20.6201 152.619 6.87226C152.619 6.87226 154.146 6.87226 157.206 6.87226C157.206 6.87226 157.206 7.52941 157.206 8.85038C158.116 7.96985 159.02 7.33737 159.905 6.95894C160.797 6.58686 161.844 6.40082 163.047 6.40082C166.064 6.40082 168.271 7.45506 169.661 9.55721C170.159 10.3574 170.509 11.2626 170.708 12.2672C170.907 13.2717 171.007 14.667 171.007 16.4468V27.491H166.045C166.045 27.491 166.045 24.1299 166.045 17.408C166.045 14.7414 165.69 12.9927 164.986 12.1555C164.312 11.3433 163.346 10.9402 162.081 10.9402C160.373 10.9402 159.138 11.6037 158.372 12.937C158.066 13.4084 157.861 13.9972 157.749 14.6981C157.643 15.4052 157.586 16.4281 157.586 17.7741V27.491C157.586 27.491 155.929 27.491 152.619 27.491Z" fill="#B1B1B1"/>
<path d="M189.747 20.7131C189.747 20.7131 191.617 20.7131 195.357 20.7131C194.49 23.0263 193.169 24.8184 191.386 26.0833C189.597 27.3483 187.497 27.9808 185.072 27.9808C183.563 27.9808 182.123 27.6957 180.752 27.1252C179.387 26.5608 178.209 25.7979 177.224 24.8367C176.233 23.8818 175.447 22.7346 174.868 21.4076C174.282 20.0746 173.989 18.6666 173.989 17.191C173.989 15.2065 174.469 13.3834 175.429 11.7277C176.395 10.078 177.71 8.77603 179.387 7.82715C181.057 6.87226 182.903 6.40082 184.91 6.40082C186.393 6.40082 187.808 6.66121 189.155 7.18833C190.501 7.71545 191.679 8.47196 192.689 9.45185C193.344 10.0907 193.867 10.7168 194.253 11.3306C194.633 11.9448 195.001 12.7509 195.357 13.7555H189.747C188.775 11.8764 187.16 10.9402 184.91 10.9402C183.183 10.9402 181.768 11.5167 180.665 12.6766C179.561 13.8299 179.013 15.3245 179.013 17.1536C179.013 18.9584 179.586 20.4587 180.74 21.6497C181.886 22.8403 183.32 23.4417 185.041 23.4417C186.063 23.4417 186.948 23.2183 187.696 22.7843C188.444 22.3502 189.13 21.662 189.747 20.7131Z" fill="#B1B1B1"/>
<path d="M199.684 34.3732C199.684 34.3732 200.98 31.4398 203.573 25.5611C203.573 25.5611 201.043 19.335 195.981 6.87085C195.981 6.87085 197.869 6.87085 201.66 6.87085C201.66 6.87085 203.193 11.3295 206.26 20.2406C206.26 20.2406 207.936 15.7819 211.284 6.87085C211.284 6.87085 213.185 6.87085 217 6.87085C217 6.87085 213.011 16.0363 205.038 34.3732C205.038 34.3732 203.255 34.3732 199.684 34.3732Z" fill="#B1B1B1"/>
<path fill-rule="evenodd" clip-rule="evenodd" d="M23.7071 6.9563H41.7729C47.4137 6.9563 52.0289 11.5477 52.0289 17.159C52.0289 22.7706 47.4137 27.362 41.7729 27.362H23.7071C18.0664 27.362 13.4512 22.7706 13.4512 17.159C13.4512 11.5474 18.0664 6.9563 23.7071 6.9563ZM23.7071 8.85373H41.7729C46.3647 8.85373 50.1216 12.5913 50.1216 17.159C50.1216 21.727 46.3647 25.4646 41.7729 25.4646H23.7071C19.1154 25.4646 15.3584 21.727 15.3584 17.159C15.3584 12.5913 19.1154 8.85373 23.7071 8.85373ZM24.6643 13.6208C24.6643 13.6208 24.6643 15.8293 24.6643 20.2444C24.6643 20.2444 24.298 20.2444 23.565 20.2444C23.565 20.2444 23.565 20.0293 23.565 19.6005C23.3217 19.8696 23.071 20.064 22.8126 20.1833C22.5542 20.3027 22.257 20.3627 21.9188 20.3627C21.452 20.3627 21.0283 20.249 20.6453 20.022C20.2626 19.7932 19.9606 19.4795 19.7414 19.0808C19.5205 18.6803 19.411 18.2379 19.411 17.7538C19.411 17.2667 19.5222 16.8186 19.7427 16.4105C19.9649 16.001 20.2669 15.68 20.65 15.4469C21.033 15.2139 21.452 15.0972 21.9101 15.0972C22.2238 15.0972 22.5184 15.1525 22.7915 15.2632C23.0663 15.3739 23.2919 15.5263 23.4675 15.719V13.6212H24.6646L24.6643 13.6208ZM22.0599 16.1908C21.6547 16.1908 21.3136 16.3371 21.0374 16.6285C20.7596 16.9199 20.6215 17.283 20.6215 17.7148C20.6215 18.1495 20.7656 18.5173 21.0538 18.8174C21.3437 19.1178 21.6953 19.2688 22.1082 19.2688C22.512 19.2688 22.8545 19.1208 23.1354 18.8264C23.4162 18.532 23.556 18.1705 23.556 17.7448C23.556 17.295 23.4149 16.9246 23.134 16.6315C22.8515 16.3371 22.4943 16.1908 22.0599 16.1908ZM25.6362 20.2444C25.6362 20.2444 25.6362 18.589 25.6362 15.2765C25.6362 15.2765 26.0357 15.2765 26.833 15.2765C26.833 15.2765 26.833 16.9319 26.833 20.2444C26.833 20.2444 26.4335 20.2444 25.6362 20.2444ZM25.6362 14.7414C25.6362 14.7414 25.6362 14.368 25.6362 13.6208C25.6362 13.6208 26.0357 13.6208 26.833 13.6208C26.833 13.6208 26.833 13.9946 26.833 14.7414C26.833 14.7414 26.4335 14.7414 25.6362 14.7414ZM31.6604 15.2765C31.6604 15.2765 32.0418 15.2765 32.8032 15.2765C32.8032 15.2765 32.8032 16.6182 32.8032 19.3031C32.8032 19.7962 32.7613 20.2057 32.6742 20.5314C32.587 20.8572 32.4473 21.1349 32.2536 21.3649C31.7787 21.9401 31.1 22.2271 30.2169 22.2271C29.6056 22.2271 29.0771 22.0881 28.628 21.8117C28.1789 21.5336 27.8528 21.1469 27.6517 20.6478H29.0111C29.1867 20.8392 29.37 20.9765 29.5607 21.0559C29.7514 21.1366 29.9857 21.1769 30.2648 21.1769C30.7109 21.1769 31.0491 21.0452 31.2817 20.7825C31.5129 20.5207 31.6393 20.122 31.6604 19.5869C31.4244 19.8619 31.1811 20.0593 30.9274 20.1817C30.6734 20.3027 30.3701 20.3627 30.0185 20.3627C29.5483 20.3627 29.128 20.2504 28.754 20.0263C28.38 19.8006 28.0888 19.4885 27.88 19.0864C27.6712 18.6847 27.5676 18.2319 27.5676 17.7271C27.5676 16.9919 27.8002 16.3808 28.2674 15.8937C28.7329 15.4066 29.3201 15.1629 30.0276 15.1629C30.7424 15.1629 31.2877 15.4109 31.66 15.907V15.2765H31.6604ZM30.1465 16.2568C29.735 16.2568 29.4045 16.3955 29.1535 16.6749C28.9028 16.9529 28.7782 17.322 28.7782 17.7808C28.7782 18.2319 28.9042 18.5933 29.1582 18.864C29.4119 19.1328 29.7527 19.2688 30.1811 19.2688C30.6151 19.2688 30.9619 19.1314 31.2203 18.8594C31.4784 18.586 31.6061 18.2199 31.6061 17.7628C31.6061 17.313 31.4727 16.9499 31.2036 16.6719C30.9365 16.3955 30.5836 16.2568 30.1465 16.2568ZM33.7765 20.2444C33.7765 20.2444 33.7765 18.589 33.7765 15.2765C33.7765 15.2765 34.1759 15.2765 34.9736 15.2765C34.9736 15.2765 34.9736 16.9319 34.9736 20.2444C34.9736 20.2444 34.5741 20.2444 33.7765 20.2444ZM33.7765 14.7414C33.7765 14.7414 33.7765 14.368 33.7765 13.6208C33.7765 13.6208 34.1759 13.6208 34.9736 13.6208C34.9736 13.6208 34.9736 13.9946 34.9736 14.7414C34.9736 14.7414 34.5741 14.7414 33.7765 14.7414ZM36.1613 20.2444C36.1613 20.2444 36.1613 18.9504 36.1613 16.3611C36.1613 16.3611 35.9663 16.3611 35.5758 16.3611C35.5758 16.3611 35.5758 15.9997 35.5758 15.2765C35.5758 15.2765 35.7709 15.2765 36.1613 15.2765C36.1613 15.2765 36.1613 14.7251 36.1613 13.6208C36.1613 13.6208 36.5595 13.6208 37.3584 13.6208C37.3584 13.6208 37.3584 14.174 37.3584 15.2765C37.3584 15.2765 37.5987 15.2765 38.0793 15.2765C38.0793 15.2765 38.0793 15.638 38.0793 16.3611C38.0793 16.3611 37.839 16.3611 37.3584 16.3611C37.3584 16.3611 37.3584 17.6568 37.3584 20.2444C37.3584 20.2444 36.959 20.2444 36.1613 20.2444ZM43.6812 15.2765C43.6812 15.2765 43.6812 16.9319 43.6812 20.2444C43.6812 20.2444 43.3163 20.2444 42.585 20.2444C42.585 20.2444 42.585 20.0293 42.585 19.6005C42.3447 19.8723 42.097 20.0666 41.8403 20.1847C41.5832 20.304 41.2786 20.3624 40.927 20.3624C40.4448 20.3624 40.0138 20.252 39.6307 20.0323C39.248 19.8113 38.949 19.5048 38.7325 19.1104C38.518 18.716 38.4098 18.2736 38.4098 17.7808C38.4098 17.2817 38.518 16.8319 38.7355 16.4345C38.952 16.0354 39.254 15.7246 39.6414 15.4989C40.0289 15.2749 40.4659 15.1629 40.9525 15.1629C41.3145 15.1629 41.6255 15.2242 41.8852 15.3482C42.1466 15.4723 42.3809 15.6696 42.585 15.9414V15.2765H43.6812ZM41.0591 16.2568C40.6415 16.2568 40.2976 16.4031 40.0272 16.6942C39.7554 16.9856 39.6203 17.3564 39.6203 17.8061C39.6203 18.2409 39.7571 18.5933 40.0319 18.864C40.305 19.1328 40.6613 19.2688 41.0983 19.2688C41.5323 19.2688 41.8822 19.1314 42.148 18.8564C42.4137 18.583 42.5461 18.2229 42.5461 17.7808C42.5461 17.331 42.408 16.9649 42.1299 16.6809C41.852 16.3988 41.4961 16.2568 41.0591 16.2568ZM44.6578 20.2444C44.6578 20.2444 44.6578 18.0362 44.6578 13.6208C44.6578 13.6208 45.057 13.6208 45.8546 13.6208C45.8546 13.6208 45.8546 15.829 45.8546 20.2444C45.8546 20.2444 45.4551 20.2444 44.6578 20.2444Z" fill="#B1B1B1"/>
</svg>
