<svg  viewBox="0 0 35 31"  xmlns="http://www.w3.org/2000/svg">
<path  d="M34.2496 15.5001C34.2496 16.0554 34.029 16.5879 33.6363 16.9806C33.2437 17.3732 32.7111 17.5938 32.1558 17.5938H7.89765L16.8882 26.5802C17.0829 26.7749 17.2373 27.006 17.3427 27.2603C17.448 27.5147 17.5022 27.7873 17.5022 28.0626C17.5022 28.3379 17.448 28.6105 17.3427 28.8648C17.2373 29.1192 17.0829 29.3503 16.8882 29.545C16.6936 29.7396 16.4624 29.894 16.2081 29.9994C15.9538 30.1048 15.6811 30.159 15.4058 30.159C15.1305 30.159 14.8579 30.1048 14.6036 29.9994C14.3492 29.894 14.1181 29.7396 13.9235 29.545L1.36097 16.9825C1.16598 16.788 1.01128 16.5569 0.905733 16.3025C0.800181 16.0482 0.74585 15.7755 0.74585 15.5001C0.74585 15.2247 0.800181 14.952 0.905733 14.6976C1.01128 14.4432 1.16598 14.2122 1.36097 14.0177L13.9235 1.45521C14.3166 1.06206 14.8498 0.841187 15.4058 0.841187C15.9618 0.841187 16.4951 1.06206 16.8882 1.45521C17.2814 1.84836 17.5022 2.38158 17.5022 2.93758C17.5022 3.49358 17.2814 4.02681 16.8882 4.41996L7.89765 13.4063H32.1558C32.7111 13.4063 33.2437 13.6269 33.6363 14.0196C34.029 14.4122 34.2496 14.9448 34.2496 15.5001Z" fill="#c4c4c4" />
</svg>
