<svg width="214" height="213" viewBox="0 0 214 213" fill="none" xmlns="http://www.w3.org/2000/svg">
<g filter="url(#filter0_d_933_1362)">
<circle cx="66.425" cy="60.1512" r="2" transform="rotate(-45 66.425 60.1512)" fill="white"/>
</g>
<path d="M136.717 155.888L140.39 162.83L135.179 165.587L131.506 158.645L132.371 158.187L135.638 164.361L139.109 162.525L135.842 156.351L136.717 155.888Z" fill="white"/>
<path d="M126.806 163.751C126.625 163.294 126.525 162.864 126.507 162.461C126.485 162.068 126.538 161.703 126.665 161.369C126.786 161.037 126.981 160.742 127.25 160.486C127.515 160.239 127.841 160.038 128.23 159.884C128.591 159.741 128.95 159.669 129.305 159.67C129.663 159.678 130.003 159.76 130.326 159.916C130.648 160.072 130.943 160.298 131.21 160.595C131.474 160.9 131.696 161.282 131.877 161.738C132.118 162.345 132.219 162.897 132.179 163.394C132.142 163.897 131.976 164.334 131.681 164.704C131.389 165.08 130.98 165.373 130.455 165.581C129.958 165.778 129.477 165.839 129.013 165.763C128.544 165.696 128.121 165.493 127.742 165.155C127.359 164.825 127.047 164.357 126.806 163.751ZM130.947 162.108C130.776 161.678 130.573 161.325 130.337 161.048C130.097 160.78 129.823 160.609 129.517 160.533C129.211 160.457 128.874 160.492 128.506 160.638C128.138 160.784 127.868 160.99 127.697 161.255C127.526 161.52 127.448 161.831 127.464 162.188C127.475 162.554 127.566 162.952 127.736 163.382C127.909 163.818 128.115 164.166 128.352 164.427C128.59 164.688 128.861 164.853 129.164 164.922C129.463 165 129.801 164.965 130.175 164.816C130.734 164.594 131.067 164.249 131.173 163.781C131.279 163.313 131.204 162.755 130.947 162.108Z" fill="white"/>
<path d="M121.132 162.347L122.071 162.071L123.503 166.959L125.171 166.47C124.98 165.556 124.844 164.767 124.764 164.102C124.686 163.445 124.67 162.896 124.717 162.454C124.763 162.013 124.872 161.667 125.044 161.418C125.215 161.169 125.452 161.001 125.755 160.912C125.846 160.885 125.94 160.865 126.036 160.853C126.122 160.835 126.198 160.832 126.262 160.844L126.466 161.54C126.42 161.539 126.371 161.541 126.32 161.549C126.268 161.556 126.218 161.567 126.169 161.582C126.014 161.627 125.892 161.732 125.802 161.895C125.713 162.059 125.657 162.286 125.635 162.575C125.605 162.866 125.606 163.221 125.637 163.64C125.67 164.066 125.734 164.559 125.83 165.12C125.925 165.68 126.048 166.309 126.199 167.006L122.789 168.005L121.132 162.347Z" fill="white"/>
<path d="M122.193 168.192L121.179 168.395L119.272 165.354C119.161 165.174 119.059 165 118.966 164.831C118.865 164.665 118.772 164.5 118.688 164.337C118.604 164.182 118.533 164.028 118.472 163.875L118.429 163.884C118.422 164.072 118.4 164.32 118.364 164.626C118.329 164.94 118.291 165.254 118.249 165.569L117.727 169.083L116.702 169.287L117.882 162.21C117.947 161.823 118.047 161.478 118.181 161.174C118.306 160.865 118.487 160.612 118.725 160.415C118.954 160.213 119.255 160.074 119.629 160C119.802 159.965 119.955 159.946 120.089 159.942C120.221 159.93 120.336 159.926 120.434 159.929L120.584 160.684C120.502 160.685 120.406 160.69 120.295 160.697C120.177 160.705 120.057 160.722 119.935 160.746C119.712 160.791 119.53 160.872 119.389 160.99C119.239 161.102 119.123 161.248 119.039 161.429C118.954 161.603 118.893 161.803 118.855 162.027L118.706 162.853L122.193 168.192Z" fill="white"/>
<path d="M115.267 167.295C115.228 166.952 115.105 166.708 114.896 166.562C114.681 166.424 114.392 166.376 114.027 166.417C113.663 166.458 113.338 166.55 113.051 166.693C112.766 166.844 112.477 167.031 112.185 167.256L112.47 169.77L111.508 169.879L110.845 164.021L111.807 163.912L112.102 166.524C112.406 166.276 112.712 166.071 113.018 165.911C113.318 165.759 113.691 165.658 114.135 165.608C114.733 165.54 115.217 165.644 115.587 165.919C115.951 166.195 116.162 166.596 116.222 167.12L116.47 169.317L115.508 169.426L115.267 167.295Z" fill="white"/>
<path d="M109.522 166.386C109.521 166.32 109.524 166.224 109.53 166.1C109.529 165.982 109.531 165.854 109.537 165.714C109.542 165.582 109.548 165.454 109.554 165.329C109.56 165.212 109.567 165.116 109.573 165.043L106.47 170.016L105.282 170.029L105.218 164.133L106.12 164.124L106.158 167.599C106.159 167.717 106.161 167.871 106.163 168.061C106.158 168.252 106.152 168.439 106.147 168.623C106.142 168.813 106.136 168.956 106.13 169.052L109.211 164.09L110.41 164.077L110.474 169.973L109.561 169.982L109.522 166.386Z" fill="white"/>
<path d="M99.5431 168.823L101.462 168.977L101.868 163.911L102.822 163.988L102.416 169.053L104.313 169.205L104.248 170.017L99.4781 169.634L99.5431 168.823Z" fill="white"/>
<path d="M96.2209 166.691C95.7147 166.606 95.3057 166.473 94.9939 166.294C94.6821 166.115 94.4638 165.888 94.339 165.614C94.2058 165.346 94.1704 165.028 94.2327 164.659C94.2939 164.298 94.4302 163.997 94.6417 163.758C94.846 163.517 95.1303 163.353 95.4946 163.266C95.8589 163.179 96.3086 163.181 96.8437 163.271L99.4793 163.717L98.4965 169.53L97.542 169.369L97.9454 166.983L96.2209 166.691ZM95.1964 164.766C95.1365 165.121 95.2227 165.381 95.455 165.546C95.6788 165.718 96.0149 165.842 96.4632 165.918L98.0793 166.191L98.3946 164.325L96.7569 164.048C96.3519 163.98 96.0071 163.996 95.7224 164.097C95.4304 164.196 95.255 164.419 95.1964 164.766Z" fill="white"/>
<path d="M85.471 166.42L87.2538 160.8L88.1765 161.092L86.6431 165.926L89.5475 166.847L91.0808 162.014L92.0035 162.306L90.2208 167.926L85.471 166.42Z" fill="white"/>
<path d="M80.1455 161.055C80.3403 160.604 80.5739 160.229 80.8463 159.932C81.109 159.638 81.4038 159.418 81.7306 159.271C82.0508 159.122 82.3966 159.052 82.7683 159.06C83.1303 159.073 83.5032 159.162 83.8869 159.328C84.2438 159.482 84.5475 159.685 84.7981 159.937C85.0458 160.196 85.2284 160.494 85.3459 160.833C85.4634 161.171 85.5119 161.539 85.4916 161.938C85.4615 162.34 85.3491 162.767 85.1543 163.218C84.8956 163.817 84.5765 164.279 84.1972 164.602C83.8149 164.932 83.3888 165.124 82.9187 165.176C82.4458 165.236 81.9501 165.153 81.4317 164.929C80.9403 164.717 80.5574 164.42 80.283 164.038C79.9991 163.66 79.8429 163.217 79.8144 162.709C79.7764 162.205 79.8867 161.654 80.1455 161.055ZM84.2354 162.821C84.4185 162.397 84.5246 162.004 84.5535 161.641C84.5728 161.281 84.501 160.967 84.3381 160.697C84.1751 160.427 83.9119 160.213 83.5484 160.056C83.1848 159.899 82.8489 159.854 82.5406 159.92C82.2322 159.987 81.9574 160.152 81.7159 160.415C81.4648 160.682 81.2476 161.028 81.0645 161.452C80.8784 161.883 80.7771 162.274 80.7607 162.627C80.7444 162.979 80.8191 163.287 80.9849 163.55C81.1411 163.817 81.4044 164.031 81.7747 164.191C82.3267 164.429 82.8058 164.42 83.2119 164.164C83.618 163.909 83.9592 163.461 84.2354 162.821Z" fill="white"/>
<path d="M77.1411 156.058L77.9994 156.528L75.5496 160.994L77.0733 161.83C77.5856 161.048 78.0487 160.395 78.4626 159.869C78.8729 159.35 79.2508 158.951 79.5962 158.672C79.9417 158.393 80.2631 158.226 80.5605 158.172C80.858 158.118 81.1449 158.166 81.4214 158.318C81.505 158.364 81.585 158.416 81.6615 158.475C81.7352 158.524 81.7906 158.575 81.828 158.629L81.4788 159.266C81.4472 159.232 81.4107 159.199 81.3693 159.168C81.3278 159.137 81.2845 159.109 81.2395 159.084C81.0981 159.007 80.9378 158.994 80.7585 159.046C80.5793 159.098 80.3794 159.219 80.1589 159.407C79.932 159.592 79.6811 159.843 79.4065 160.161C79.1282 160.485 78.8244 160.879 78.4949 161.342C78.1654 161.806 77.8071 162.337 77.42 162.936L74.305 161.227L77.1411 156.058Z" fill="white"/>
<path d="M72.3698 160.043L73.7564 158.019L71.1158 156.21L69.7293 158.233L68.9307 157.686L72.2635 152.822L73.062 153.369L71.576 155.538L74.2165 157.348L75.7026 155.179L76.5011 155.726L73.1683 160.59L72.3698 160.043Z" fill="white"/>
<path d="M68.0824 157.094L67.2893 156.431L68.4635 153.039C68.5343 152.84 68.6061 152.652 68.6787 152.473C68.7457 152.29 68.816 152.115 68.8896 151.947C68.9585 151.785 69.0334 151.632 69.1144 151.49L69.0807 151.461C68.9293 151.574 68.7229 151.712 68.4616 151.876C68.1955 152.045 67.9267 152.212 67.655 152.377L64.5896 154.172L63.7881 153.502L70.0427 149.986C70.3849 149.794 70.7161 149.655 71.0365 149.57C71.3559 149.473 71.6667 149.456 71.9689 149.518C72.2702 149.569 72.5671 149.717 72.8596 149.962C72.9946 150.075 73.1056 150.182 73.1927 150.284C73.2846 150.38 73.36 150.467 73.419 150.545L72.9249 151.135C72.8724 151.072 72.8087 151 72.7338 150.918C72.6532 150.831 72.5651 150.748 72.4695 150.668C72.2951 150.522 72.1178 150.431 71.9376 150.395C71.7565 150.349 71.5692 150.35 71.3757 150.398C71.1869 150.441 70.9933 150.518 70.795 150.63L70.0576 151.031L68.0824 157.094Z" fill="white"/>
<path d="M60.2938 145.772C60.7642 145.319 61.2395 145.009 61.7199 144.842C62.195 144.68 62.6545 144.655 63.0983 144.768C63.5369 144.885 63.9418 145.137 64.3129 145.522C64.6587 145.882 64.8872 146.267 64.9986 146.679C65.1046 147.096 65.0886 147.524 64.9505 147.962C64.8071 148.405 64.534 148.846 64.1314 149.284L65.1686 150.362L67.0631 148.54L67.7343 149.237L63.4855 153.325L62.8144 152.627L64.582 150.927L63.5372 149.841C63.1 150.19 62.6704 150.415 62.2483 150.516C61.8159 150.617 61.4012 150.603 61.0043 150.476C60.6023 150.344 60.231 150.101 59.8904 149.747C59.5395 149.382 59.3166 148.976 59.2215 148.528C59.1211 148.085 59.1585 147.627 59.3336 147.153C59.5034 146.685 59.8235 146.224 60.2938 145.772ZM63.2072 148.8C63.5613 148.459 63.8217 148.132 63.9885 147.819C64.1503 147.501 64.2132 147.196 64.1773 146.905C64.1362 146.619 63.986 146.341 63.7267 146.071C63.4673 145.802 63.1956 145.641 62.9113 145.589C62.6218 145.542 62.3174 145.595 61.998 145.75C61.6786 145.905 61.3419 146.152 60.9879 146.493C60.6338 146.834 60.376 147.158 60.2145 147.466C60.0529 147.774 59.9927 148.071 60.0339 148.357C60.075 148.643 60.2253 148.921 60.4846 149.191C60.7439 149.46 61.0157 149.621 61.2999 149.673C61.5841 149.725 61.8858 149.679 62.205 149.535C62.5191 149.385 62.8531 149.14 63.2072 148.8Z" fill="white"/>
<path d="M53.166 141.029L58.0041 137.659L58.5573 138.453L54.3962 141.351L56.1378 143.852L60.2989 140.953L60.8521 141.748L56.0141 145.117L53.166 141.029Z" fill="white"/>
<path d="M50.5909 136.898C50.2393 136.263 50.1782 135.63 50.4078 135C50.6339 134.364 51.1928 133.799 52.0846 133.305C52.6684 132.982 53.2122 132.798 53.7158 132.754C54.2095 132.707 54.6478 132.787 55.0307 132.994C55.4036 133.198 55.709 133.515 55.947 133.945C56.0926 134.208 56.187 134.462 56.2301 134.706C56.2731 134.951 56.281 135.177 56.2536 135.385C56.2163 135.59 56.1587 135.781 56.0807 135.958L56.1127 136.016C56.2147 135.943 56.3455 135.854 56.5052 135.749C56.6649 135.643 56.8057 135.557 56.9276 135.49L59.0449 134.317L59.5137 135.164L52.0457 139.299L51.6621 138.606L52.3007 138.101L52.2794 138.063C52.075 138.042 51.8728 137.995 51.6727 137.921C51.4691 137.841 51.277 137.721 51.0963 137.561C50.9121 137.395 50.7436 137.174 50.5909 136.898ZM51.3883 136.658C51.5801 137.004 51.8019 137.246 52.0539 137.383C52.2994 137.524 52.5803 137.569 52.8967 137.52C53.213 137.47 53.575 137.337 53.9828 137.12L54.1464 137.029C54.5698 136.795 54.9042 136.551 55.1496 136.298C55.3951 136.045 55.5361 135.77 55.5729 135.473C55.6061 135.169 55.5197 134.831 55.3137 134.459C55.1397 134.145 54.911 133.936 54.6277 133.833C54.3408 133.724 54.0232 133.703 53.6748 133.77C53.3164 133.834 52.9447 133.973 52.5598 134.186C51.9695 134.513 51.5619 134.889 51.3369 135.316C51.1083 135.735 51.1255 136.183 51.3883 136.658Z" fill="white"/>
<path d="M49.8325 128.191C50.2828 127.995 50.7091 127.881 51.1114 127.849C51.504 127.814 51.8697 127.855 52.2085 127.971C52.5443 128.08 52.845 128.265 53.1105 128.525C53.3664 128.782 53.578 129.101 53.7451 129.485C53.9006 129.841 53.9838 130.197 53.9948 130.552C53.999 130.91 53.9286 131.253 53.7834 131.58C53.6382 131.907 53.4221 132.21 53.135 132.487C52.8383 132.761 52.4648 132.996 52.0144 133.192C51.4162 133.453 50.8681 133.572 50.3702 133.55C49.8655 133.53 49.4234 133.379 49.0441 133.096C48.6581 132.816 48.3522 132.418 48.1263 131.9C47.9122 131.41 47.8354 130.931 47.8959 130.465C47.9468 129.994 48.1351 129.564 48.4609 129.174C48.7771 128.78 49.2343 128.452 49.8325 128.191ZM51.6141 132.275C52.0376 132.09 52.3838 131.875 52.6528 131.629C52.9121 131.38 53.0744 131.101 53.1398 130.793C53.2052 130.484 53.1587 130.148 53.0003 129.786C52.842 129.423 52.6275 129.16 52.3568 128.998C52.0861 128.836 51.7727 128.769 51.4166 128.796C51.0508 128.82 50.6562 128.924 50.2328 129.109C49.8026 129.297 49.4612 129.514 49.2086 129.76C48.956 130.006 48.8004 130.282 48.7417 130.588C48.6734 130.889 48.7199 131.225 48.8812 131.595C49.1217 132.146 49.4777 132.467 49.9491 132.557C50.4206 132.647 50.9756 132.553 51.6141 132.275Z" fill="white"/>
<path d="M45.7156 125.235L46.4849 124.969L47.3446 127.454L52.1472 125.792L52.4637 126.707L46.8918 128.635L45.7156 125.235Z" fill="white"/>
<path d="M44.7065 121.968C44.5256 121.265 44.6254 120.637 45.0058 120.085C45.3844 119.525 46.0673 119.119 47.0545 118.865C47.7007 118.699 48.2732 118.657 48.7718 118.741C49.2614 118.819 49.6656 119.007 49.9842 119.304C50.2939 119.595 50.51 119.979 50.6324 120.454C50.7073 120.746 50.7349 121.015 50.7153 121.262C50.6956 121.51 50.6464 121.731 50.5677 121.925C50.4801 122.114 50.3763 122.285 50.2564 122.437L50.2729 122.501C50.3899 122.455 50.539 122.402 50.72 122.34C50.901 122.278 51.0589 122.23 51.1939 122.195L53.5376 121.592L53.7787 122.53L45.512 124.657L45.3146 123.89L46.0594 123.562L46.0484 123.519C45.8559 123.448 45.672 123.351 45.4969 123.23C45.3199 123.101 45.164 122.937 45.0293 122.736C44.8927 122.529 44.7851 122.273 44.7065 121.968ZM45.5387 121.935C45.6374 122.319 45.7914 122.609 46.0009 122.805C46.2032 123.002 46.4637 123.117 46.7823 123.149C47.1009 123.18 47.4848 123.142 47.934 123.034L48.1151 122.988C48.5839 122.867 48.9688 122.715 49.2699 122.531C49.571 122.348 49.7767 122.117 49.8868 121.839C49.9951 121.554 49.9963 121.205 49.8903 120.793C49.8008 120.445 49.6318 120.186 49.3834 120.015C49.1332 119.837 48.8311 119.737 48.477 119.714C48.1139 119.686 47.7193 119.727 47.2932 119.837C46.6398 120.005 46.1507 120.267 45.8259 120.623C45.4992 120.972 45.4035 121.41 45.5387 121.935Z" fill="white"/>
<path d="M43.6352 116.856C43.5206 116.146 43.5914 115.596 43.8478 115.206C44.1041 114.815 44.5725 114.565 45.253 114.455L49.2167 113.815L49.3289 114.51L48.5334 114.828L48.5405 114.871C48.7773 115.004 48.9827 115.149 49.1568 115.306C49.3224 115.458 49.4565 115.644 49.5591 115.865C49.6605 116.079 49.7375 116.349 49.7901 116.675C49.8462 117.022 49.8356 117.347 49.7581 117.649C49.6795 117.944 49.5264 118.192 49.2987 118.392C49.0638 118.594 48.7509 118.726 48.36 118.789C47.7808 118.883 47.2987 118.726 46.9138 118.321C46.5215 117.916 46.2344 117.242 46.0522 116.298L45.86 115.315L45.5125 115.371C45.0274 115.45 44.7078 115.609 44.5535 115.849C44.3991 116.09 44.353 116.402 44.415 116.785C44.4641 117.089 44.5579 117.371 44.6965 117.631C44.8278 117.892 44.9707 118.133 45.1251 118.353L44.4557 118.762C44.2773 118.531 44.1129 118.249 43.9626 117.917C43.8052 117.586 43.696 117.232 43.6352 116.856ZM46.6953 116.072C46.8412 116.791 47.0383 117.275 47.2866 117.525C47.5338 117.767 47.842 117.859 48.2112 117.799C48.537 117.746 48.7601 117.61 48.8805 117.39C48.9998 117.163 49.0343 116.893 48.984 116.582C48.9045 116.09 48.7045 115.702 48.384 115.42C48.0563 115.139 47.6101 115.044 47.0454 115.135L46.5242 115.219L46.6953 116.072Z" fill="white"/>
<path d="M42.7779 106.642L48.6663 106.342L48.7105 107.21L44.9533 107.401C44.7995 107.409 44.6382 107.414 44.4694 107.415C44.3002 107.409 44.1347 107.403 43.9728 107.396L43.9745 107.429L48.8072 109.11L48.8486 109.923L44.2089 112.032L44.2105 112.065C44.3709 112.042 44.5353 112.026 44.7038 112.018C44.8719 112.002 45.0438 111.99 45.2196 111.981L48.9437 111.791L48.9879 112.659L43.0996 112.959L43.0341 111.673L47.6744 109.576L42.8434 107.927L42.7779 106.642Z" fill="white"/>
<path d="M43.1402 99.3343L49.0236 99.7198L48.9668 100.587L45.2128 100.341C45.0591 100.331 44.8984 100.317 44.7306 100.298C44.5632 100.273 44.3995 100.247 44.2395 100.222L44.2373 100.255L48.8424 102.486L48.7891 103.298L43.936 104.854L43.9339 104.887C44.0958 104.883 44.261 104.886 44.4293 104.897C44.598 104.901 44.7702 104.909 44.9459 104.92L48.6669 105.164L48.6101 106.031L42.7267 105.646L42.8108 104.362L47.6632 102.816L43.056 100.619L43.1402 99.3343Z" fill="white"/>
<path d="M43.2274 98.3897L43.3997 97.3702L46.9205 96.6713C47.1279 96.632 47.3269 96.5987 47.5175 96.5714C47.7093 96.5369 47.8962 96.509 48.0783 96.4877C48.2531 96.4652 48.4226 96.4529 48.5865 96.4509L48.5939 96.4075C48.4204 96.3335 48.197 96.2251 47.9237 96.0822C47.6431 95.9381 47.3632 95.7904 47.0838 95.639L43.9865 93.8994L44.1606 92.869L50.3532 96.4929C50.6915 96.6915 50.9786 96.9073 51.2143 97.1405C51.4585 97.3678 51.6303 97.6274 51.7297 97.9193C51.8376 98.2053 51.8597 98.5363 51.7961 98.9123C51.7668 99.0858 51.7303 99.2359 51.6866 99.3623C51.6501 99.4901 51.6131 99.5991 51.5755 99.6894L50.8163 99.5611C50.8442 99.484 50.8746 99.3924 50.9074 99.2864C50.9414 99.1731 50.9688 99.0551 50.9896 98.9321C51.0274 98.708 51.0165 98.509 50.9566 98.3353C50.9052 98.1555 50.8097 97.9944 50.6702 97.8518C50.5379 97.7104 50.3736 97.5823 50.1774 97.4673L49.4586 97.0334L43.2274 98.3897Z" fill="white"/>
<path d="M45.7701 86.9004L46.0744 85.8893L48.0659 89.1194L51.7804 87.3886L51.457 88.463L47.8247 90.1496L50.6898 91.012L50.4107 91.9389L44.765 90.2395L45.044 89.3125L47.7826 90.1369L45.7701 86.9004Z" fill="white"/>
<path d="M46.3017 85.0803L46.6867 84.1207L50.2755 84.1856C50.4866 84.1913 50.6881 84.201 50.8801 84.2148C51.0748 84.2218 51.2634 84.2343 51.4459 84.2521C51.6215 84.2673 51.7897 84.2913 51.9504 84.3241L51.9667 84.2833C51.813 84.1742 51.6177 84.0208 51.381 83.8231C51.1374 83.6227 50.8952 83.4189 50.6544 83.2116L47.9973 80.8538L48.3863 79.8839L53.6678 84.7405C53.9562 85.0064 54.1909 85.2783 54.3717 85.5563C54.5621 85.8302 54.6748 86.1204 54.7099 86.4268C54.7545 86.7291 54.7058 87.0573 54.5639 87.4112C54.4983 87.5745 54.4308 87.7134 54.3612 87.8277C54.2985 87.9447 54.2391 88.0434 54.1832 88.1237L53.4686 87.837C53.5122 87.7676 53.5613 87.6846 53.6159 87.5879C53.6732 87.4845 53.7251 87.3749 53.7715 87.2592C53.8561 87.0482 53.8876 86.8515 53.866 86.669C53.854 86.4824 53.7949 86.3047 53.6889 86.1357C53.5896 85.9695 53.4563 85.8093 53.289 85.6553L52.6788 85.0786L46.3017 85.0803Z" fill="white"/>
<path d="M49.6419 77.125C49.9693 76.477 50.458 76.0707 51.1081 75.9062C51.7614 75.7351 52.543 75.8794 53.4528 76.339C54.0485 76.6399 54.5062 76.9862 54.8259 77.3778C55.1425 77.7595 55.3228 78.167 55.3669 78.6001C55.4078 79.0233 55.3174 79.4542 55.0959 79.8927C54.9603 80.1611 54.8036 80.3818 54.6258 80.5549C54.4479 80.728 54.2654 80.8617 54.078 80.956C53.8875 81.0405 53.697 81.1004 53.5066 81.1356L53.4769 81.1945C53.5948 81.2377 53.7421 81.2957 53.9189 81.3686C54.0957 81.4415 54.2463 81.5093 54.3706 81.5721L56.5306 82.6634L56.0941 83.5274L48.4753 79.6782L48.8324 78.9713L49.6086 79.2156L49.6285 79.1763C49.5308 78.9956 49.4562 78.8017 49.4046 78.5949C49.3563 78.3815 49.3474 78.1552 49.3779 77.9159C49.4117 77.6701 49.4997 77.4065 49.6419 77.125ZM50.2891 77.6492C50.1105 78.0026 50.0354 78.3221 50.0638 78.6075C50.0855 78.8896 50.2058 79.1476 50.4246 79.3813C50.6433 79.6151 50.9572 79.8394 51.3663 80.0543L51.5332 80.1386C51.9652 80.3569 52.3549 80.4962 52.7023 80.5567C53.0497 80.6172 53.3565 80.5791 53.6227 80.4425C53.8922 80.2993 54.1229 80.0379 54.3147 79.6583C54.4767 79.3375 54.5206 79.0311 54.4464 78.7389C54.3755 78.4402 54.2143 78.1656 53.9628 77.9153C53.7081 77.6552 53.3843 77.4259 52.9916 77.2275C52.3894 76.9233 51.8488 76.798 51.3698 76.8518C50.894 76.899 50.5338 77.1648 50.2891 77.6492Z" fill="white"/>
<path d="M57.5792 75.4962C57.3049 75.9388 56.9691 76.2785 56.572 76.5155C56.1787 76.7462 55.7302 76.8435 55.2263 76.8072C54.7263 76.7647 54.1803 76.5599 53.5882 76.1929C52.9711 75.8103 52.5332 75.3964 52.2742 74.9512C52.0153 74.5059 51.9037 74.0528 51.9393 73.5917C51.9788 73.1243 52.1377 72.6663 52.4159 72.2176C52.5743 71.962 52.755 71.7332 52.9579 71.5311C53.1546 71.3252 53.3367 71.1706 53.5043 71.0674L54.0302 71.7429C53.8814 71.8578 53.7202 71.9994 53.5467 72.168C53.3732 72.3365 53.2324 72.508 53.1242 72.6825C52.9155 73.0191 52.8152 73.3409 52.8234 73.6479C52.8315 73.9549 52.9429 74.2484 53.1577 74.5282C53.3725 74.808 53.6887 75.0774 54.1063 75.3363C54.5052 75.5836 54.8777 75.7412 55.2239 75.8091C55.57 75.8771 55.8805 75.8495 56.1552 75.7265C56.4299 75.6034 56.6658 75.383 56.8629 75.0651C57.0329 74.7908 57.1536 74.5335 57.225 74.293C57.3003 74.0463 57.3516 73.8106 57.3787 73.5859L58.108 74.038C58.0909 74.2604 58.0404 74.4879 57.9565 74.7206C57.8827 74.951 57.757 75.2095 57.5792 75.4962Z" fill="white"/>
<path d="M55.2186 68.1219C55.6494 67.5467 56.0943 67.2157 56.5534 67.1289C57.0124 67.0421 57.5177 67.2053 58.0695 67.6186L61.2829 70.0256L60.8609 70.589L60.0797 70.2375L60.0533 70.2727C60.1224 70.5352 60.1607 70.7838 60.1682 71.0185C60.1742 71.2429 60.1332 71.4688 60.0454 71.6961C59.9619 71.9177 59.8213 72.1605 59.6234 72.4246C59.4124 72.7063 59.1713 72.9243 58.9 73.0785C58.6332 73.2268 58.3487 73.2885 58.0465 73.2638C57.7385 73.2346 57.426 73.1014 57.1091 72.864C56.6395 72.5122 56.4171 72.057 56.4417 71.4982C56.4604 70.935 56.746 70.2601 57.2984 69.4736L57.8721 68.6527L57.5904 68.4417C57.1971 68.1471 56.8604 68.0278 56.5803 68.0837C56.3002 68.1396 56.0437 68.3231 55.8107 68.6342C55.626 68.8807 55.4883 69.144 55.3976 69.4242C55.3009 69.7 55.227 69.9699 55.1759 70.234L54.4168 70.0364C54.4591 69.7475 54.5476 69.4335 54.6824 69.0947C54.8112 68.7514 54.99 68.4271 55.2186 68.1219ZM57.908 69.7791C57.4918 70.3836 57.2802 70.8619 57.2731 71.2139C57.2704 71.56 57.4187 71.8452 57.718 72.0694C57.9821 72.2672 58.2352 72.3331 58.4771 72.2669C58.7235 72.1949 58.9412 72.0327 59.1302 71.7803C59.4292 71.3812 59.569 70.9682 59.5497 70.5415C59.5245 70.1103 59.283 69.7232 58.8251 69.3803L58.4026 69.0638L57.908 69.7791Z" fill="white"/>
<path d="M77.367 57.4624L73.6937 50.5203L78.9051 47.7628L82.5784 54.7048L81.7131 55.1627L78.4462 48.9887L74.9752 50.8254L78.242 56.9993L77.367 57.4624Z" fill="white"/>
<path d="M87.2782 49.5992C87.4594 50.0559 87.559 50.4858 87.577 50.889C87.5991 51.2826 87.5463 51.6467 87.4188 51.9814C87.298 52.3133 87.1032 52.6076 86.8342 52.8642C86.5694 53.1114 86.2427 53.312 85.8542 53.4662C85.4929 53.6096 85.1346 53.6808 84.7791 53.6798C84.421 53.672 84.0808 53.5901 83.7585 53.4339C83.4362 53.2778 83.1413 53.0517 82.8738 52.7554C82.6105 52.4497 82.3882 52.0685 82.2069 51.6118C81.9662 51.0051 81.8655 50.4533 81.905 49.9564C81.9418 49.4526 82.1078 49.016 82.4029 48.6464C82.6954 48.2699 83.104 47.9776 83.6289 47.7693C84.1264 47.5718 84.6073 47.5112 85.0715 47.5874C85.5397 47.654 85.9634 47.8567 86.3424 48.1954C86.7255 48.5247 87.0374 48.9926 87.2782 49.5992ZM83.1373 51.2425C83.3078 51.672 83.5111 52.0252 83.7473 52.3023C83.9876 52.5698 84.2608 52.7415 84.567 52.8172C84.8732 52.893 85.2103 52.8578 85.5784 52.7117C85.9465 52.5656 86.216 52.3601 86.3869 52.095C86.5579 51.8299 86.6357 51.519 86.6203 51.1621C86.609 50.7958 86.5182 50.3979 86.3478 49.9685C86.1747 49.5322 85.9693 49.1837 85.7317 48.923C85.4941 48.6623 85.2235 48.4974 84.9201 48.4285C84.6207 48.3501 84.2836 48.3853 83.9087 48.534C83.3497 48.7558 83.0172 49.1008 82.9111 49.569C82.8049 50.0371 82.8804 50.595 83.1373 51.2425Z" fill="white"/>
<path d="M92.9524 51.0034L92.0129 51.2787L90.581 46.3911L88.9131 46.8798C89.1045 47.7942 89.2403 48.5835 89.3203 49.2478C89.3982 49.9051 89.414 50.4545 89.3676 50.896C89.3212 51.3375 89.2122 51.6828 89.0406 51.9317C88.869 52.1807 88.6319 52.3495 88.3293 52.4381C88.2378 52.4649 88.1442 52.4847 88.0486 52.4974C87.9621 52.5151 87.8866 52.5181 87.822 52.5065L87.6179 51.8098C87.6643 51.8115 87.7131 51.8086 87.7644 51.8012C87.8157 51.7938 87.866 51.7829 87.9153 51.7685C88.0701 51.7231 88.1923 51.6186 88.2819 51.4548C88.3715 51.291 88.4274 51.0645 88.4496 50.7752C88.4789 50.4839 88.478 50.1288 88.447 49.71C88.4139 49.2841 88.3497 48.7909 88.2543 48.2305C88.1588 47.67 88.0358 47.0413 87.885 46.3442L91.2947 45.3453L92.9524 51.0034Z" fill="white"/>
<path d="M91.8912 45.1577L92.9052 44.9555L94.8124 47.9964C94.923 48.1762 95.025 48.3503 95.1184 48.5187C95.219 48.6856 95.3116 48.8503 95.3964 49.0129C95.4797 49.1682 95.5515 49.3222 95.6118 49.4747L95.655 49.4661C95.6623 49.2777 95.684 49.0303 95.7202 48.724C95.7549 48.4105 95.7932 48.0963 95.8351 47.7813L96.3573 44.2675L97.3822 44.0632L96.2018 51.1405C96.1368 51.5273 96.0374 51.8724 95.9034 52.1758C95.7781 52.4849 95.5967 52.7379 95.3593 52.9348C95.1305 53.1374 94.8291 53.276 94.4551 53.3505C94.2825 53.3849 94.1293 53.4043 93.9956 53.4085C93.8633 53.4199 93.7482 53.4241 93.6504 53.4212L93.4999 52.666C93.5819 52.6647 93.6782 52.6604 93.789 52.6533C93.9069 52.6447 94.027 52.6283 94.1493 52.6039C94.3722 52.5595 94.5542 52.4783 94.6952 52.3605C94.8449 52.2484 94.9615 52.1018 95.045 51.9206C95.13 51.7467 95.1912 51.5475 95.2288 51.3232L95.3781 50.4971L91.8912 45.1577Z" fill="white"/>
<path d="M98.817 46.0551C98.8558 46.3976 98.9794 46.6419 99.1878 46.7881C99.4027 46.9261 99.6923 46.9745 100.057 46.9332C100.421 46.892 100.746 46.7998 101.033 46.6567C101.318 46.5063 101.607 46.3186 101.899 46.0937L101.614 43.5797L102.576 43.4708L103.239 49.3294L102.278 49.4383L101.982 46.826C101.678 47.0744 101.373 47.2787 101.066 47.4389C100.766 47.591 100.393 47.6922 99.949 47.7425C99.3515 47.8101 98.8674 47.7063 98.4967 47.4309C98.1333 47.1547 97.922 46.7543 97.8626 46.2296L97.6138 44.0326L98.5757 43.9237L98.817 46.0551Z" fill="white"/>
<path d="M104.562 46.9644C104.563 47.0304 104.56 47.1258 104.554 47.2505C104.556 47.3678 104.553 47.4962 104.548 47.6356C104.542 47.7677 104.536 47.8961 104.53 48.0208C104.524 48.1382 104.517 48.2336 104.511 48.307L107.614 43.3339L108.802 43.321L108.866 49.2166L107.964 49.2265L107.926 45.7507C107.925 45.6333 107.923 45.4794 107.921 45.2887C107.926 45.098 107.932 44.9109 107.937 44.7275C107.942 44.5368 107.948 44.3937 107.954 44.2983L104.873 49.2602L103.674 49.2732L103.61 43.3776L104.523 43.3676L104.562 46.9644Z" fill="white"/>
<path d="M114.541 44.527L112.622 44.3733L112.216 49.439L111.262 49.3626L111.668 44.2968L109.771 44.1448L109.836 43.3334L114.606 43.7156L114.541 44.527Z" fill="white"/>
<path d="M117.863 46.6589C118.369 46.7444 118.778 46.8768 119.09 47.0559C119.402 47.2351 119.62 47.4616 119.745 47.7356C119.878 48.0036 119.914 48.3219 119.851 48.6907C119.79 49.0522 119.654 49.3527 119.442 49.5921C119.238 49.8328 118.954 49.9967 118.59 50.0838C118.225 50.171 117.776 50.1694 117.24 50.0789L114.605 49.6334L115.588 43.8198L116.542 43.9812L116.139 46.3673L117.863 46.6589ZM118.888 48.5836C118.948 48.2293 118.861 47.9693 118.629 47.8035C118.405 47.6318 118.069 47.5081 117.621 47.4323L116.005 47.1591L115.69 49.0246L117.327 49.3015C117.732 49.3699 118.077 49.3539 118.362 49.2533C118.654 49.1539 118.829 48.9306 118.888 48.5836Z" fill="white"/>
<path d="M128.613 46.9304L126.83 52.5504L125.908 52.2577L127.441 47.4241L124.537 46.5028L123.003 51.3364L122.081 51.0437L123.863 45.4237L128.613 46.9304Z" fill="white"/>
<path d="M133.939 52.2953C133.744 52.7463 133.51 53.1207 133.238 53.4185C132.975 53.7124 132.68 53.9326 132.353 54.079C132.033 54.2283 131.688 54.2986 131.316 54.2898C130.954 54.2773 130.581 54.1881 130.197 54.0224C129.84 53.8683 129.537 53.6652 129.286 53.4132C129.038 53.1544 128.856 52.8559 128.738 52.5176C128.621 52.1793 128.572 51.8108 128.593 51.4122C128.623 51.0098 128.735 50.5831 128.93 50.132C129.189 49.5328 129.508 49.0715 129.887 48.7481C130.269 48.4179 130.695 48.2265 131.165 48.1739C131.638 48.1146 132.134 48.1969 132.652 48.4207C133.144 48.633 133.527 48.9302 133.801 49.3122C134.085 49.6905 134.241 50.1334 134.27 50.6409C134.308 51.1446 134.197 51.6961 133.939 52.2953ZM129.849 50.5289C129.666 50.953 129.56 51.3466 129.531 51.7095C129.511 52.0686 129.583 52.3832 129.746 52.6533C129.909 52.9234 130.172 53.1369 130.536 53.2939C130.899 53.4509 131.235 53.4962 131.544 53.4296C131.852 53.3631 132.127 53.1982 132.368 52.9351C132.619 52.6681 132.836 52.3225 133.02 51.8984C133.206 51.4675 133.307 51.0759 133.323 50.7235C133.34 50.3711 133.265 50.0633 133.099 49.7999C132.943 49.5328 132.68 49.3192 132.309 49.1593C131.757 48.9209 131.278 48.9296 130.872 49.1856C130.466 49.4416 130.125 49.8893 129.849 50.5289Z" fill="white"/>
<path d="M136.943 57.2926L136.085 56.8216L138.535 52.3565L137.011 51.5205C136.499 52.3018 136.035 52.9553 135.622 53.481C135.211 54.0003 134.833 54.3994 134.488 54.6783C134.142 54.9572 133.821 55.1238 133.524 55.178C133.226 55.2323 132.939 55.1836 132.663 55.0319C132.579 54.9861 132.499 54.9338 132.423 54.8751C132.349 54.8263 132.293 54.775 132.256 54.721L132.605 54.0846C132.637 54.1186 132.673 54.1511 132.715 54.1823C132.756 54.2134 132.8 54.2413 132.845 54.266C132.986 54.3436 133.146 54.3563 133.326 54.304C133.505 54.2518 133.705 54.1315 133.925 53.943C134.152 53.758 134.403 53.5066 134.678 53.1889C134.956 52.8648 135.26 52.4711 135.589 52.0078C135.919 51.5445 136.277 51.0134 136.664 50.4144L139.779 52.1235L136.943 57.2926Z" fill="white"/>
<path d="M141.714 53.3075L140.328 55.3311L142.968 57.1405L144.355 55.1169L145.153 55.6641L141.821 60.5278L141.022 59.9806L142.508 57.8119L139.868 56.0025L138.382 58.1712L137.583 57.6241L140.916 52.7604L141.714 53.3075Z" fill="white"/>
<path d="M146.002 56.2556L146.795 56.9191L145.621 60.3111C145.55 60.51 145.478 60.6986 145.405 60.8768C145.338 61.0598 145.268 61.2352 145.195 61.4032C145.126 61.5655 145.051 61.7179 144.97 61.8605L145.003 61.8887C145.155 61.7763 145.361 61.6382 145.623 61.4744C145.889 61.305 146.157 61.1379 146.429 60.9732L149.495 59.1779L150.296 59.8484L144.041 63.3642C143.699 63.556 143.368 63.6948 143.048 63.7806C142.728 63.8767 142.417 63.8939 142.115 63.8323C141.814 63.781 141.517 63.633 141.225 63.3883C141.09 63.2754 140.979 63.1681 140.891 63.0665C140.8 62.9706 140.724 62.8836 140.665 62.8055L141.159 62.215C141.212 62.278 141.275 62.3504 141.35 62.4322C141.431 62.5188 141.519 62.602 141.615 62.682C141.789 62.8279 141.966 62.9189 142.147 62.9549C142.328 63.0013 142.515 63.0002 142.708 62.9518C142.897 62.909 143.091 62.8319 143.289 62.7205L144.027 62.3192L146.002 56.2556Z" fill="white"/>
<path d="M153.79 67.5785C153.32 68.031 152.845 68.3408 152.364 68.5078C151.889 68.6698 151.43 68.6947 150.986 68.5824C150.547 68.465 150.142 68.2134 149.771 67.8276C149.425 67.4683 149.197 67.0827 149.086 66.6708C148.98 66.2538 148.996 65.8263 149.134 65.3881C149.277 64.9448 149.55 64.5041 149.953 64.0658L148.916 62.9878L147.021 64.8105L146.35 64.113L150.599 60.0251L151.27 60.7227L149.502 62.4234L150.547 63.5094C150.984 63.1599 151.414 62.9348 151.836 62.8341C152.268 62.7335 152.683 62.7467 153.08 62.8736C153.482 63.0059 153.853 63.249 154.194 63.6031C154.545 63.9677 154.768 64.374 154.863 64.8218C154.963 65.2646 154.926 65.7229 154.751 66.1967C154.581 66.6654 154.261 67.126 153.79 67.5785ZM150.877 64.5504C150.523 64.8911 150.262 65.218 150.096 65.5311C149.934 65.8496 149.871 66.1544 149.907 66.4455C149.948 66.7315 150.098 67.0093 150.357 67.2788C150.617 67.5483 150.889 67.7092 151.173 67.7613C151.462 67.8084 151.767 67.7547 152.086 67.6C152.405 67.4454 152.742 67.1978 153.096 66.8571C153.45 66.5165 153.708 66.1921 153.87 65.8841C154.031 65.576 154.091 65.2789 154.05 64.9929C154.009 64.7068 153.859 64.4291 153.6 64.1595C153.34 63.89 153.068 63.7292 152.784 63.677C152.5 63.6249 152.198 63.6709 151.879 63.8151C151.565 63.9647 151.231 64.2098 150.877 64.5504Z" fill="white"/>
<path d="M160.918 72.3215L156.08 75.6914L155.527 74.8971L159.688 71.9988L157.946 69.4985L153.785 72.3968L153.232 71.6025L158.07 68.2327L160.918 72.3215Z" fill="white"/>
<path d="M163.493 76.4523C163.845 77.0874 163.906 77.72 163.676 78.3501C163.45 78.9865 162.891 79.5516 162 80.0453C161.416 80.3685 160.872 80.5521 160.368 80.5963C159.875 80.6432 159.436 80.5632 159.054 80.356C158.681 80.1518 158.375 79.8347 158.137 79.4048C157.992 79.1418 157.897 78.8881 157.854 78.6437C157.811 78.3993 157.803 78.1732 157.831 77.9652C157.868 77.7601 157.926 77.569 158.003 77.3917L157.971 77.334C157.869 77.4072 157.739 77.4964 157.579 77.6016C157.419 77.7068 157.278 77.7931 157.157 77.8606L155.039 79.0327L154.57 78.1858L162.038 74.0515L162.422 74.7444L161.783 75.2488L161.805 75.2873C162.009 75.3083 162.211 75.3556 162.411 75.4293C162.615 75.5093 162.807 75.6293 162.988 75.7891C163.172 75.9553 163.341 76.1764 163.493 76.4523ZM162.696 76.6925C162.504 76.3461 162.282 76.1043 162.03 75.9672C161.785 75.8265 161.504 75.7808 161.188 75.8302C160.871 75.8796 160.509 76.013 160.101 76.2303L159.938 76.3209C159.514 76.5553 159.18 76.7991 158.935 77.0523C158.689 77.3055 158.548 77.5806 158.511 77.8776C158.478 78.1809 158.564 78.5187 158.77 78.8908C158.944 79.2052 159.173 79.4139 159.456 79.5169C159.743 79.6263 160.061 79.6474 160.409 79.5803C160.768 79.516 161.139 79.3773 161.524 79.1642C162.115 78.8374 162.522 78.4609 162.747 78.0346C162.976 77.6147 162.959 77.1673 162.696 76.6925Z" fill="white"/>
<path d="M164.252 85.1587C163.801 85.3552 163.375 85.4692 162.973 85.5007C162.58 85.536 162.214 85.4956 161.876 85.3793C161.54 85.2698 161.239 85.085 160.974 84.8248C160.718 84.5684 160.506 84.2487 160.339 83.8656C160.184 83.5093 160.1 83.1536 160.089 82.7983C160.085 82.4402 160.156 82.0974 160.301 81.77C160.446 81.4426 160.662 81.1403 160.949 80.863C161.246 80.5895 161.619 80.3545 162.07 80.158C162.668 79.897 163.216 79.7779 163.714 79.8006C164.219 79.8204 164.661 79.9716 165.04 80.2541C165.426 80.5337 165.732 80.9323 165.958 81.4499C166.172 81.9405 166.249 82.4191 166.188 82.8855C166.137 83.3558 165.949 83.786 165.623 84.1762C165.307 84.5702 164.85 84.8977 164.252 85.1587ZM162.47 81.0755C162.047 81.2602 161.7 81.4753 161.431 81.7207C161.172 81.9699 161.01 82.2487 160.944 82.5573C160.879 82.8659 160.925 83.2016 161.084 83.5646C161.242 83.9275 161.457 84.19 161.727 84.3519C161.998 84.5138 162.311 84.5811 162.668 84.5537C163.033 84.5302 163.428 84.426 163.851 84.2412C164.281 84.0535 164.623 83.8366 164.875 83.5903C165.128 83.3441 165.284 83.0682 165.342 82.7625C165.411 82.4607 165.364 82.1249 165.203 81.7552C164.962 81.2041 164.606 80.8834 164.135 80.793C163.664 80.7027 163.109 80.7969 162.47 81.0755Z" fill="white"/>
<path d="M168.369 88.1147L167.599 88.3808L166.74 85.8964L161.937 87.5582L161.62 86.6434L167.192 84.7154L168.369 88.1147Z" fill="white"/>
<path d="M169.378 91.3823C169.558 92.0854 169.459 92.7131 169.078 93.2653C168.7 93.8246 168.017 94.2312 167.03 94.4852C166.383 94.6515 165.811 94.6927 165.312 94.609C164.823 94.5305 164.419 94.343 164.1 94.0463C163.79 93.755 163.574 93.3714 163.452 92.8955C163.377 92.6044 163.349 92.3351 163.369 92.0877C163.389 91.8403 163.438 91.6195 163.516 91.4251C163.604 91.2359 163.708 91.0653 163.828 90.9133L163.811 90.8494C163.694 90.8947 163.545 90.9482 163.364 91.0099C163.183 91.0716 163.025 91.1198 162.89 91.1545L160.547 91.7575L160.305 90.82L168.572 88.6932L168.77 89.4602L168.025 89.7881L168.036 89.8307C168.228 89.9023 168.412 89.9989 168.587 90.1204C168.764 90.2491 168.92 90.4134 169.055 90.6135C169.191 90.8207 169.299 91.0769 169.378 91.3823ZM168.545 91.4147C168.447 91.0312 168.293 90.7414 168.083 90.5454C167.881 90.3476 167.62 90.2329 167.302 90.2013C166.983 90.1696 166.599 90.2078 166.15 90.3159L165.969 90.3624C165.5 90.483 165.115 90.6351 164.814 90.8186C164.513 91.002 164.307 91.2329 164.197 91.5111C164.089 91.7964 164.088 92.1451 164.194 92.557C164.283 92.905 164.452 93.1644 164.701 93.3352C164.951 93.5131 165.253 93.6134 165.607 93.6358C165.97 93.6636 166.365 93.6227 166.791 93.513C167.444 93.3449 167.933 93.0828 168.258 92.7266C168.585 92.3775 168.681 91.9402 168.545 91.4147Z" fill="white"/>
<path d="M170.449 96.4944C170.564 97.2039 170.493 97.7539 170.236 98.1444C169.98 98.535 169.512 98.7852 168.831 98.8951L164.867 99.5354L164.755 98.8404L165.551 98.5225L165.544 98.4791C165.307 98.3465 165.101 98.2014 164.927 98.0438C164.762 97.8923 164.628 97.7059 164.525 97.4848C164.424 97.2709 164.347 97.0011 164.294 96.6753C164.238 96.3278 164.249 96.0029 164.326 95.7007C164.405 95.4057 164.558 95.1581 164.785 94.9579C165.02 94.7566 165.333 94.6243 165.724 94.5612C166.303 94.4676 166.785 94.6237 167.17 95.0295C167.563 95.4341 167.85 96.1083 168.032 97.052L168.224 98.0349L168.572 97.9788C169.057 97.9004 169.376 97.7411 169.531 97.5007C169.685 97.2604 169.731 96.9484 169.669 96.5647C169.62 96.2606 169.526 95.9786 169.388 95.7187C169.256 95.4577 169.113 95.217 168.959 94.9968L169.628 94.5879C169.807 94.819 169.971 95.1008 170.121 95.4331C170.279 95.7642 170.388 96.118 170.449 96.4944ZM167.389 97.2785C167.243 96.5592 167.046 96.0748 166.797 95.8252C166.55 95.5828 166.242 95.4915 165.873 95.5511C165.547 95.6037 165.324 95.74 165.204 95.9601C165.084 96.1873 165.05 96.4566 165.1 96.7679C165.18 97.2602 165.38 97.6476 165.7 97.9301C166.028 98.2114 166.474 98.3065 167.039 98.2153L167.56 98.1311L167.389 97.2785Z" fill="white"/>
<path d="M171.306 106.708L165.418 107.008L165.374 106.14L169.131 105.949C169.285 105.941 169.446 105.936 169.615 105.935C169.784 105.941 169.949 105.948 170.111 105.954L170.11 105.921L165.277 104.24L165.236 103.427L169.875 101.318L169.874 101.285C169.713 101.308 169.549 101.324 169.38 101.332C169.212 101.348 169.04 101.361 168.865 101.369L165.14 101.559L165.096 100.691L170.985 100.391L171.05 101.677L166.41 103.774L171.241 105.423L171.306 106.708Z" fill="white"/>
<path d="M170.944 114.016L165.061 113.63L165.117 112.763L168.871 113.009C169.025 113.019 169.186 113.033 169.354 113.052C169.521 113.077 169.685 113.103 169.845 113.128L169.847 113.095L165.242 110.864L165.295 110.052L170.148 108.496L170.15 108.463C169.988 108.467 169.823 108.464 169.655 108.453C169.486 108.449 169.314 108.441 169.138 108.43L165.417 108.186L165.474 107.319L171.357 107.704L171.273 108.989L166.421 110.534L171.028 112.732L170.944 114.016Z" fill="white"/>
<path d="M170.857 114.96L170.684 115.98L167.164 116.679C166.956 116.718 166.757 116.751 166.567 116.779C166.375 116.813 166.188 116.841 166.006 116.862C165.831 116.885 165.662 116.897 165.498 116.899L165.49 116.943C165.664 117.017 165.887 117.125 166.16 117.268C166.441 117.412 166.721 117.56 167 117.711L170.098 119.451L169.923 120.481L163.731 116.857C163.393 116.659 163.106 116.443 162.87 116.21C162.626 115.982 162.454 115.723 162.354 115.431C162.247 115.145 162.224 114.814 162.288 114.438C162.317 114.264 162.354 114.114 162.398 113.988C162.434 113.86 162.471 113.751 162.509 113.661L163.268 113.789C163.24 113.866 163.21 113.958 163.177 114.064C163.143 114.177 163.115 114.295 163.095 114.418C163.057 114.642 163.068 114.841 163.128 115.015C163.179 115.195 163.274 115.356 163.414 115.498C163.546 115.64 163.711 115.768 163.907 115.883L164.626 116.317L170.857 114.96Z" fill="white"/>
<path d="M168.314 126.45L168.01 127.461L166.018 124.231L162.304 125.962L162.627 124.887L166.259 123.201L163.394 122.338L163.673 121.411L169.319 123.111L169.04 124.038L166.302 123.213L168.314 126.45Z" fill="white"/>
<path d="M167.783 128.27L167.398 129.229L163.809 129.165C163.598 129.159 163.396 129.149 163.204 129.135C163.009 129.128 162.821 129.116 162.638 129.098C162.463 129.083 162.294 129.059 162.134 129.026L162.117 129.067C162.271 129.176 162.466 129.329 162.703 129.527C162.947 129.727 163.189 129.931 163.43 130.138L166.087 132.496L165.698 133.466L160.416 128.61C160.128 128.344 159.893 128.072 159.712 127.794C159.522 127.52 159.409 127.23 159.374 126.923C159.33 126.621 159.378 126.293 159.52 125.939C159.586 125.776 159.653 125.637 159.723 125.522C159.786 125.405 159.845 125.307 159.901 125.226L160.616 125.513C160.572 125.583 160.523 125.666 160.468 125.762C160.411 125.866 160.359 125.975 160.313 126.091C160.228 126.302 160.197 126.499 160.218 126.681C160.23 126.868 160.289 127.045 160.395 127.214C160.495 127.381 160.628 127.541 160.795 127.695L161.405 128.271L167.783 128.27Z" fill="white"/>
<path d="M164.442 136.225C164.115 136.873 163.626 137.279 162.976 137.444C162.323 137.615 161.541 137.471 160.631 137.011C160.036 136.71 159.578 136.364 159.258 135.972C158.942 135.591 158.761 135.183 158.717 134.75C158.676 134.327 158.767 133.896 158.988 133.457C159.124 133.189 159.281 132.968 159.458 132.795C159.636 132.622 159.819 132.488 160.006 132.394C160.197 132.31 160.387 132.25 160.577 132.214L160.607 132.156C160.489 132.112 160.342 132.054 160.165 131.982C159.988 131.909 159.838 131.841 159.713 131.778L157.554 130.687L157.99 129.823L165.609 133.672L165.252 134.379L164.475 134.134L164.456 134.174C164.553 134.355 164.628 134.548 164.68 134.755C164.728 134.969 164.737 135.195 164.706 135.434C164.672 135.68 164.584 135.944 164.442 136.225ZM163.795 135.701C163.974 135.347 164.049 135.028 164.02 134.743C163.999 134.46 163.878 134.203 163.66 133.969C163.441 133.735 163.127 133.511 162.718 133.296L162.551 133.211C162.119 132.993 161.729 132.854 161.382 132.793C161.034 132.733 160.728 132.771 160.461 132.908C160.192 133.051 159.961 133.312 159.769 133.692C159.607 134.013 159.564 134.319 159.638 134.611C159.709 134.91 159.87 135.184 160.121 135.435C160.376 135.695 160.7 135.924 161.093 136.123C161.695 136.427 162.235 136.552 162.714 136.498C163.19 136.451 163.55 136.185 163.795 135.701Z" fill="white"/>
<path d="M156.505 137.854C156.779 137.411 157.115 137.072 157.512 136.835C157.905 136.604 158.354 136.507 158.858 136.543C159.358 136.585 159.904 136.79 160.496 137.157C161.113 137.54 161.551 137.954 161.81 138.399C162.069 138.844 162.18 139.297 162.145 139.758C162.105 140.226 161.946 140.684 161.668 141.133C161.51 141.388 161.329 141.617 161.126 141.819C160.93 142.025 160.747 142.179 160.58 142.283L160.054 141.607C160.203 141.492 160.364 141.351 160.537 141.182C160.711 141.014 160.852 140.842 160.96 140.668C161.169 140.331 161.269 140.009 161.261 139.702C161.253 139.395 161.141 139.102 160.926 138.822C160.712 138.542 160.395 138.273 159.978 138.014C159.579 137.767 159.206 137.609 158.86 137.541C158.514 137.473 158.204 137.501 157.929 137.624C157.654 137.747 157.418 137.967 157.221 138.285C157.051 138.559 156.931 138.817 156.859 139.057C156.784 139.304 156.733 139.539 156.705 139.764L155.976 139.312C155.993 139.09 156.044 138.862 156.128 138.629C156.201 138.399 156.327 138.141 156.505 137.854Z" fill="white"/>
<path d="M158.866 145.228C158.435 145.803 157.99 146.134 157.531 146.221C157.072 146.308 156.566 146.145 156.015 145.732L152.801 143.325L153.223 142.761L154.004 143.113L154.031 143.077C153.962 142.815 153.923 142.566 153.916 142.332C153.91 142.107 153.951 141.881 154.039 141.654C154.122 141.432 154.263 141.19 154.461 140.925C154.672 140.644 154.913 140.426 155.184 140.272C155.451 140.123 155.735 140.062 156.038 140.086C156.346 140.115 156.658 140.249 156.975 140.486C157.445 140.838 157.667 141.293 157.642 141.852C157.624 142.415 157.338 143.09 156.786 143.876L156.212 144.697L156.494 144.908C156.887 145.203 157.224 145.322 157.504 145.266C157.784 145.211 158.04 145.027 158.273 144.716C158.458 144.469 158.596 144.206 158.687 143.926C158.783 143.65 158.857 143.38 158.908 143.116L159.667 143.314C159.625 143.603 159.536 143.917 159.402 144.255C159.273 144.599 159.094 144.923 158.866 145.228ZM156.176 143.571C156.592 142.967 156.804 142.488 156.811 142.136C156.814 141.79 156.665 141.505 156.366 141.281C156.102 141.083 155.849 141.017 155.607 141.083C155.361 141.155 155.143 141.317 154.954 141.57C154.655 141.969 154.515 142.382 154.534 142.809C154.56 143.24 154.801 143.627 155.259 143.97L155.682 144.286L156.176 143.571Z" fill="white"/>
<g filter="url(#filter1_d_933_1362)">
<circle cx="147.035" cy="153.489" r="2" transform="rotate(-45 147.035 153.489)" fill="white"/>
</g>
<defs>
<filter id="filter0_d_933_1362" x="60.425" y="58.1512" width="12" height="12" filterUnits="userSpaceOnUse" color-interpolation-filters="sRGB">
<feFlood flood-opacity="0" result="BackgroundImageFix"/>
<feColorMatrix in="SourceAlpha" type="matrix" values="0 0 0 0 0 0 0 0 0 0 0 0 0 0 0 0 0 0 127 0" result="hardAlpha"/>
<feOffset dy="4"/>
<feGaussianBlur stdDeviation="2"/>
<feComposite in2="hardAlpha" operator="out"/>
<feColorMatrix type="matrix" values="0 0 0 0 0 0 0 0 0 0 0 0 0 0 0 0 0 0 0.25 0"/>
<feBlend mode="normal" in2="BackgroundImageFix" result="effect1_dropShadow_933_1362"/>
<feBlend mode="normal" in="SourceGraphic" in2="effect1_dropShadow_933_1362" result="shape"/>
</filter>
<filter id="filter1_d_933_1362" x="141.035" y="151.489" width="12" height="12" filterUnits="userSpaceOnUse" color-interpolation-filters="sRGB">
<feFlood flood-opacity="0" result="BackgroundImageFix"/>
<feColorMatrix in="SourceAlpha" type="matrix" values="0 0 0 0 0 0 0 0 0 0 0 0 0 0 0 0 0 0 127 0" result="hardAlpha"/>
<feOffset dy="4"/>
<feGaussianBlur stdDeviation="2"/>
<feComposite in2="hardAlpha" operator="out"/>
<feColorMatrix type="matrix" values="0 0 0 0 0 0 0 0 0 0 0 0 0 0 0 0 0 0 0.25 0"/>
<feBlend mode="normal" in2="BackgroundImageFix" result="effect1_dropShadow_933_1362"/>
<feBlend mode="normal" in="SourceGraphic" in2="effect1_dropShadow_933_1362" result="shape"/>
</filter>
</defs>
</svg>
