<svg width="293" height="38" viewBox="0 0 293 38" fill="none" xmlns="http://www.w3.org/2000/svg">
<path d="M291.274 4.30261C291.994 3.89182 292.244 2.97562 291.833 2.25621C291.422 1.5368 290.506 1.28662 289.787 1.6974L291.274 4.30261ZM148.13 35.7962L148.103 34.2965L148.13 35.7962ZM1.57563 4.16076C0.781104 4.39532 0.327166 5.22957 0.561731 6.02409L4.38418 18.9716C4.61875 19.7662 5.45299 20.2201 6.24752 19.9855C7.04204 19.751 7.49598 18.9167 7.26142 18.1222L3.86368 6.61327L15.3726 3.21554C16.1671 2.98097 16.6211 2.14673 16.3865 1.3522C16.1519 0.557678 15.3177 0.10374 14.5232 0.338305L1.57563 4.16076ZM290.53 3C289.787 1.6974 289.787 1.69728 289.787 1.69727C289.787 1.69743 289.786 1.69754 289.786 1.69785C289.785 1.69848 289.783 1.69958 289.78 1.70114C289.775 1.70427 289.766 1.70928 289.754 1.71614C289.729 1.72985 289.692 1.75095 289.641 1.7792C289.54 1.83571 289.385 1.92083 289.179 2.03273C288.767 2.25651 288.147 2.58736 287.324 3.01042C285.678 3.85656 283.222 5.07151 279.997 6.53663C273.547 9.46695 264.024 13.3974 251.766 17.3792C227.248 25.343 191.796 33.5098 148.103 34.2965L148.157 37.296C192.194 36.5032 227.942 28.2718 252.692 20.2324C265.068 16.2126 274.696 12.2402 281.238 9.26797C284.509 7.78184 287.009 6.54564 288.696 5.67845C289.539 5.24484 290.179 4.90347 290.611 4.66921C290.827 4.55208 290.99 4.46172 291.101 4.4C291.156 4.36914 291.198 4.34544 291.227 4.32913C291.242 4.32098 291.253 4.31467 291.261 4.31024C291.265 4.30802 291.268 4.30628 291.27 4.305C291.271 4.30437 291.272 4.30377 291.273 4.30345C291.274 4.30297 291.274 4.30261 290.53 3ZM148.103 34.2965C104.423 35.0829 68.0485 27.5654 42.6008 19.8546C29.8779 15.9994 19.8898 12.097 13.0902 9.16253C9.69061 7.69536 7.0885 6.47036 5.34065 5.61451C4.46674 5.1866 3.80643 4.85099 3.36683 4.62357C3.14703 4.50986 2.98241 4.4232 2.87385 4.36558C2.81957 4.33677 2.77931 4.31521 2.75318 4.30117C2.74012 4.29414 2.73058 4.289 2.72459 4.28576C2.7216 4.28414 2.71949 4.283 2.71827 4.28234C2.71766 4.28201 2.71742 4.28187 2.71711 4.28171C2.71708 4.28169 2.71728 4.2818 2.00035 5.59937C1.28341 6.91695 1.28405 6.9173 1.28492 6.91777C1.2855 6.91809 1.28659 6.91868 1.28776 6.91931C1.29011 6.92058 1.29334 6.92233 1.29746 6.92456C1.3057 6.92902 1.3175 6.93539 1.33283 6.94363C1.36351 6.96012 1.40835 6.98412 1.46725 7.01538C1.58504 7.07791 1.75904 7.16949 1.98838 7.28813C2.44706 7.52542 3.12708 7.87096 4.02135 8.30885C5.80985 9.1846 8.45551 10.4298 11.9015 11.917C18.7932 14.8912 28.8879 18.8342 41.7309 22.7257C67.4151 30.5082 104.105 38.0891 148.157 37.296L148.103 34.2965Z" fill="#E75334"/>
</svg>
