<svg width="94" height="94" viewBox="0 0 94 94" fill="none" xmlns="http://www.w3.org/2000/svg">
<path d="M39.1665 62.6667C39.1665 56.165 39.1665 50.9167 50.9165 50.9167H66.5832C78.3332 50.9167 78.3332 47 78.3332 39.1667V31.3333C78.3332 23.5 78.3332 19.5833 66.5832 19.5833H62.6665" stroke="#E63D1A" stroke-width="5" stroke-linecap="round" stroke-linejoin="round"/>
<path d="M46.9999 7.83333H31.3332C28.7874 15.4708 28.7874 23.6958 31.3332 31.3333H46.9999C49.5457 23.6958 49.5457 15.4708 46.9999 7.83333Z" stroke="#292D32" stroke-width="5" stroke-linecap="round" stroke-linejoin="round"/>
<path d="M31.3332 7.83333H27.4165C19.5832 7.83333 15.6665 11.75 15.6665 19.5833C15.6665 27.4167 19.5832 31.3333 27.4165 31.3333H31.3332C27.4165 23.5 27.4165 15.6667 31.3332 7.83333Z" stroke="#292D32" stroke-width="5" stroke-linecap="round" stroke-linejoin="round"/>
<path d="M50.9167 7.83333H47C50.9167 15.6667 50.9167 23.5 47 31.3333H50.9167C58.75 31.3333 62.6667 27.4167 62.6667 19.5833C62.6667 11.75 58.75 7.83333 50.9167 7.83333Z" stroke="#292D32" stroke-width="5" stroke-linecap="round" stroke-linejoin="round"/>
<path d="M37.2085 86.1667H41.1252C47.0002 86.1667 47.0002 82.25 47.0002 80.2917V68.5417C47.0002 66.5833 47.0002 62.6667 41.1252 62.6667H37.2085C31.3335 62.6667 31.3335 66.5833 31.3335 68.5417V80.2917C31.3335 82.25 31.3335 86.1667 37.2085 86.1667Z" stroke="#292D32" stroke-width="5" stroke-linecap="round" stroke-linejoin="round"/>
</svg>
