<svg width="634" height="698" viewBox="0 0 634 698" fill="none" xmlns="http://www.w3.org/2000/svg">
<path d="M93.9475 101.966L531.511 610.617L485.633 650.084L48.0692 141.433L93.9475 101.966Z" fill="white"/>
<path d="M77.3535 153.266L74.9056 150.421L94.8254 133.285L88.7601 126.234L91.2383 124.102L105.79 141.018L103.312 143.15L97.2734 136.13L77.3535 153.266Z" fill="#E63D1A"/>
<path d="M113.964 173.109C112.228 174.602 110.459 175.739 108.656 176.52C106.874 177.283 105.09 177.662 103.304 177.658C101.536 177.676 99.8175 177.265 98.1495 176.426C96.4997 175.608 94.9404 174.345 93.4716 172.638C91.9485 170.867 90.8967 169.094 90.3162 167.32C89.7566 165.527 89.607 163.767 89.8674 162.039C90.1487 160.293 90.8191 158.598 91.8786 156.953C92.938 155.308 94.3356 153.739 96.0714 152.246C98.3719 150.267 100.706 148.919 103.074 148.203C105.441 147.487 107.768 147.484 110.054 148.195C112.357 148.927 114.525 150.474 116.556 152.835C118.496 155.09 119.647 157.401 120.008 159.767C120.391 162.116 120.05 164.426 118.985 166.699C117.959 168.976 116.286 171.112 113.964 173.109ZM98.624 155.277C96.7418 156.896 95.3477 158.554 94.4416 160.25C93.5356 161.946 93.188 163.657 93.399 165.383C93.628 167.13 94.4679 168.846 95.9185 170.533C97.3872 172.24 98.95 173.316 100.607 173.762C102.282 174.228 104.025 174.14 105.838 173.498C107.651 172.855 109.498 171.725 111.38 170.105C114.204 167.677 115.902 165.188 116.476 162.641C117.071 160.075 116.271 157.517 114.077 154.967C112.609 153.259 111.028 152.162 109.335 151.674C107.681 151.19 105.948 151.269 104.135 151.911C102.343 152.536 100.506 153.658 98.624 155.277Z" fill="#E63D1A"/>
<path d="M107.038 187.773L129.436 168.506L144.015 185.453L121.617 204.721L119.196 201.907L139.116 184.771L129.406 173.483L109.486 190.619L107.038 187.773Z" fill="#E63D1A"/>
<path d="M155.108 220.937C153.372 222.43 151.603 223.567 149.8 224.348C148.018 225.111 146.234 225.49 144.448 225.486C142.679 225.504 140.961 225.093 139.293 224.254C137.643 223.436 136.084 222.173 134.615 220.466C133.092 218.695 132.04 216.922 131.46 215.148C130.9 213.355 130.751 211.595 131.011 209.867C131.293 208.121 131.963 206.426 133.022 204.781C134.082 203.136 135.479 201.567 137.215 200.074C139.516 198.095 141.85 196.747 144.217 196.031C146.585 195.315 148.912 195.312 151.197 196.023C153.501 196.755 155.669 198.302 157.699 200.663C159.64 202.918 160.791 205.229 161.152 207.595C161.535 209.944 161.194 212.254 160.129 214.527C159.103 216.804 157.429 218.94 155.108 220.937ZM139.768 203.105C137.886 204.724 136.491 206.382 135.585 208.078C134.679 209.774 134.332 211.485 134.543 213.211C134.772 214.958 135.612 216.674 137.062 218.361C138.531 220.068 140.094 221.144 141.75 221.59C143.425 222.056 145.169 221.968 146.982 221.326C148.794 220.683 150.642 219.553 152.524 217.933C155.347 215.505 157.046 213.017 157.62 210.469C158.215 207.903 157.415 205.345 155.221 202.795C153.752 201.087 152.172 199.99 150.479 199.502C148.825 199.018 147.091 199.097 145.279 199.739C143.487 200.364 141.65 201.486 139.768 203.105Z" fill="#E63D1A"/>
<path d="M176.128 222.784C177.742 224.66 178.915 226.383 179.648 227.954C180.398 229.545 180.638 231.008 180.366 232.342C180.113 233.697 179.306 234.959 177.947 236.129C177.069 236.884 176.139 237.39 175.159 237.647C174.218 237.906 173.236 237.907 172.214 237.65C171.231 237.395 170.257 236.876 169.291 236.092L169.135 236.227C169.804 237.302 170.267 238.389 170.522 239.49C170.796 240.612 170.757 241.709 170.406 242.781C170.054 243.853 169.293 244.893 168.122 245.901C166.763 247.07 165.33 247.752 163.824 247.948C162.339 248.125 160.838 247.839 159.321 247.09C157.842 246.345 156.405 245.161 155.009 243.538L148.182 235.602L170.58 216.334L176.128 222.784ZM167.082 231.557C168.75 233.496 170.195 234.563 171.418 234.758C172.662 234.935 173.891 234.502 175.104 233.458C176.338 232.397 176.835 231.198 176.596 229.863C176.397 228.531 175.472 226.906 173.822 224.988L170.612 221.257L163.491 227.383L167.082 231.557ZM161.139 229.407L153.014 236.396L156.93 240.949C158.653 242.952 160.237 244.01 161.681 244.124C163.126 244.239 164.476 243.756 165.731 242.676C166.525 241.993 167.061 241.22 167.339 240.358C167.634 239.517 167.585 238.55 167.192 237.459C166.837 236.37 166.062 235.13 164.865 233.739L161.139 229.407Z" fill="#E63D1A"/>
<path d="M165.872 256.165L188.27 236.898L190.718 239.743L181.244 247.893L184.236 251.371C186.049 253.479 187.19 255.376 187.659 257.063C188.146 258.772 188.126 260.293 187.599 261.626C187.091 262.981 186.24 264.171 185.048 265.196C183.731 266.329 182.336 267.034 180.863 267.311C179.409 267.608 177.902 267.401 176.343 266.688C174.784 265.975 173.206 264.692 171.611 262.837L165.872 256.165ZM173.777 260.533C175.337 262.346 176.833 263.387 178.267 263.658C179.7 263.928 181.118 263.461 182.519 262.256C183.481 261.428 184.063 260.561 184.265 259.653C184.485 258.767 184.358 257.794 183.884 256.735C183.409 255.676 182.61 254.493 181.486 253.187L178.766 250.025L170.704 256.96L173.777 260.533ZM181.484 274.314L203.882 255.046L206.33 257.892L183.932 277.16L181.484 274.314Z" fill="#E63D1A"/>
<path d="M231.827 273.445C230.709 274.261 229.604 274.753 228.512 274.922C227.439 275.112 226.361 274.938 225.281 274.401C224.2 273.864 223.079 272.92 221.919 271.571C220.74 270.201 219.966 268.942 219.596 267.793C219.244 266.665 219.25 265.614 219.614 264.641C219.999 263.65 220.688 262.654 221.682 261.652L223.912 264.245C222.874 265.321 222.364 266.273 222.384 267.1C222.443 267.93 222.944 268.892 223.887 269.989C224.721 270.958 225.572 271.546 226.441 271.752C227.349 271.962 228.392 271.651 229.57 270.821L231.827 273.445ZM211.645 264.07L213.929 266.726L201.632 277.304C201.109 277.754 200.525 278.238 199.88 278.757C199.273 279.279 198.658 279.79 198.033 280.29C197.409 280.791 196.838 281.227 196.32 281.599C195.842 281.973 195.468 282.258 195.199 282.453L195.308 282.579L224.537 279.057L227.257 282.219L204.859 301.486L202.574 298.83L214.746 288.36C215.31 287.874 215.926 287.363 216.592 286.826C217.28 286.272 217.935 285.744 218.56 285.244C219.224 284.746 219.805 284.301 220.304 283.908C220.803 283.515 221.177 283.231 221.425 283.054L221.316 282.927L191.966 286.499L189.247 283.338L211.645 264.07Z" fill="#E63D1A"/>
<path d="M239.278 296.574L246.676 305.174C247.311 305.911 247.898 306.763 248.438 307.729C248.978 308.695 249.404 309.741 249.717 310.865C250.068 311.993 250.269 313.178 250.318 314.42C250.385 315.682 250.245 316.958 249.898 318.246C249.572 319.517 249.01 320.789 248.213 322.062C247.437 323.316 246.369 324.529 245.009 325.698C243.65 326.867 242.282 327.751 240.904 328.349C239.547 328.93 238.206 329.295 236.88 329.446C235.575 329.578 234.303 329.517 233.064 329.262C231.844 329.028 230.692 328.661 229.609 328.163C228.564 327.668 227.605 327.081 226.73 326.403C225.856 325.725 225.101 325.017 224.466 324.279L217.068 315.679L239.278 296.574ZM221.8 316.23L226.152 321.289C227.258 322.575 228.45 323.622 229.727 324.43C231.005 325.239 232.333 325.746 233.712 325.954C235.112 326.143 236.555 326.002 238.042 325.53C239.528 325.058 241.035 324.166 242.561 322.852C244.088 321.539 245.196 320.183 245.884 318.784C246.573 317.384 246.918 315.987 246.919 314.593C246.941 313.18 246.648 311.782 246.039 310.398C245.431 309.014 244.574 307.679 243.468 306.393L239.116 301.334L221.8 316.23Z" fill="#E63D1A"/>
<path d="M259.792 320.42L262.077 323.076L239.867 342.182L237.582 339.526L259.792 320.42Z" fill="#E63D1A"/>
<path d="M262.527 365.478C260.71 364.804 259.017 363.894 257.45 362.748C255.9 361.624 254.5 360.334 253.249 358.88C251.744 357.131 250.648 355.286 249.962 353.346C249.275 351.405 248.982 349.457 249.082 347.501C249.2 345.565 249.716 343.691 250.631 341.877C251.566 340.045 252.901 338.383 254.637 336.89C256.394 335.379 258.246 334.317 260.194 333.705C262.181 333.096 264.148 332.908 266.095 333.14C268.062 333.355 269.954 333.946 271.77 334.915C273.586 335.884 275.219 337.211 276.67 338.898C277.939 340.373 278.934 341.974 279.655 343.701C280.395 345.449 280.694 347.319 280.552 349.312L276.768 349.101C276.931 347.64 276.76 346.173 276.257 344.699C275.771 343.247 275.039 341.951 274.06 340.813C272.953 339.527 271.699 338.534 270.296 337.834C268.893 337.133 267.43 336.723 265.907 336.603C264.403 336.503 262.886 336.707 261.358 337.215C259.848 337.744 258.424 338.584 257.085 339.735C255.768 340.869 254.735 342.143 253.986 343.557C253.256 344.992 252.817 346.47 252.669 347.991C252.561 349.514 252.766 351.043 253.285 352.577C253.804 354.111 254.653 355.563 255.832 356.933C256.611 357.84 257.532 358.698 258.593 359.509C259.676 360.302 260.779 360.929 261.905 361.392L268.712 355.536L264.279 350.382L266.726 348.277L273.444 356.087L262.527 365.478Z" fill="#E63D1A"/>
<path d="M288.027 353.242L290.312 355.898L268.102 375.004L265.817 372.348L288.027 353.242Z" fill="#E63D1A"/>
<path d="M305.565 378.579L299.2 371.18L279.437 388.181L277.153 385.525L296.916 368.524L290.551 361.126L292.998 359.021L308.012 376.474L305.565 378.579Z" fill="#E63D1A"/>
<path d="M314.469 383.98L316.618 386.478L302.595 415.101L299.93 412.003L303.43 405.031L293.801 393.838L286.357 396.225L283.773 393.222L314.469 383.98ZM312.115 388.096L312.061 388.033L297.146 392.776L305.006 401.914L312.115 388.096Z" fill="#E63D1A"/>
<path d="M327.364 398.97L329.649 401.626L309.886 418.627L318.699 428.872L316.252 430.976L305.155 418.076L327.364 398.97Z" fill="#E63D1A"/>
<path d="M326.215 425.046L332.879 432.792L330.62 434.735L323.957 426.989L326.215 425.046Z" fill="#E63D1A"/>
<path d="M336.624 454.658L349.87 430.335L349.761 430.209C349.379 430.611 348.873 431.101 348.243 431.68C347.631 432.28 346.947 432.923 346.191 433.61C345.456 434.278 344.692 434.955 343.897 435.638L330.314 447.323L328.056 444.699L350.454 425.431L354.072 429.636L341.704 452.379L341.813 452.505L366.257 443.801L369.847 447.974L347.449 467.242L345.028 464.428L358.8 452.582C359.532 451.952 360.262 451.342 360.992 450.751C361.742 450.143 362.449 449.589 363.112 449.092C363.797 448.576 364.368 448.14 364.825 447.784L364.716 447.657L338.637 456.998L336.624 454.658Z" fill="#E63D1A"/>
<path d="M364.917 487.548L369.511 478.865L361.813 469.917L352.569 473.194L350.094 470.316L380.174 459.789L382.377 462.35L367.447 490.488L364.917 487.548ZM375.886 467.494C375.999 467.287 376.211 466.921 376.524 466.395C376.836 465.87 377.159 465.336 377.492 464.792C377.864 464.252 378.139 463.832 378.318 463.532C377.809 463.786 377.28 464.039 376.732 464.29C376.223 464.545 375.737 464.762 375.272 464.941C374.826 465.141 374.441 465.307 374.118 465.439L365.139 468.707L371.286 475.853L375.886 467.494Z" fill="#E63D1A"/>
<path d="M397.642 480.285C400.18 483.236 401.455 485.88 401.465 488.219C401.475 490.557 400.435 492.626 398.343 494.425C397.423 495.217 396.399 495.823 395.269 496.245C394.179 496.669 393 496.822 391.732 496.702C390.464 496.582 389.133 496.113 387.739 495.296C386.365 494.46 384.953 493.199 383.502 491.513L381.272 488.92L372.551 496.422L370.103 493.577L392.501 474.309L397.642 480.285ZM395.009 482.11L392.534 479.232L383.687 486.842L385.646 489.119C386.879 490.552 388.05 491.617 389.158 492.314C390.288 492.992 391.387 493.276 392.455 493.164C393.523 493.052 394.601 492.528 395.689 491.593C397.132 490.351 397.81 488.961 397.723 487.422C397.636 485.883 396.731 484.112 395.009 482.11Z" fill="#E63D1A"/>
<path d="M400.742 529.193L397.804 525.778L400.375 505.797L389.019 515.566L386.571 512.72L408.969 493.452L411.417 496.298L400.563 505.635L419.985 506.258L422.759 509.483L403.442 509.045L400.742 529.193Z" fill="#E63D1A"/>
<path d="M414.237 544.881L403.385 532.265L425.783 512.997L436.635 525.613L434.157 527.745L425.752 517.975L418.757 523.993L426.672 533.193L424.225 535.298L416.31 526.098L408.311 532.979L416.715 542.749L414.237 544.881Z" fill="#E63D1A"/>
<path d="M424.645 556.98L422.197 554.134L442.117 536.998L436.052 529.947L438.53 527.816L453.081 544.731L450.603 546.863L444.565 539.844L424.645 556.98Z" fill="#E63D1A"/>
<path d="M456.037 548.167L458.322 550.823L446.025 561.401C445.502 561.851 444.918 562.335 444.272 562.854C443.666 563.375 443.05 563.887 442.426 564.387C441.801 564.888 441.23 565.324 440.713 565.696C440.235 566.07 439.861 566.355 439.592 566.55L439.701 566.676L468.929 563.154L471.649 566.315L449.251 585.583L446.966 582.927L459.138 572.457C459.703 571.971 460.318 571.46 460.985 570.923C461.672 570.369 462.328 569.841 462.953 569.34C463.616 568.843 464.198 568.398 464.697 568.005C465.196 567.612 465.57 567.328 465.818 567.151L465.709 567.024L436.359 570.596L433.639 567.434L456.037 548.167Z" fill="#E63D1A"/>
<path d="M469.34 608.935L466.892 606.09L477.338 597.103L467.383 585.531L456.937 594.518L454.489 591.672L476.887 572.404L479.335 575.25L469.861 583.399L479.816 594.972L489.29 586.822L491.738 589.668L469.34 608.935Z" fill="#E63D1A"/>
<path d="M508.008 608.582L505.499 610.74L496.986 600.844L477.097 617.953L474.649 615.107L497.047 595.84L508.008 608.582Z" fill="#E63D1A"/>
<path d="M42.9993 60.1514L619.88 511.772L581.942 560.042L5.06129 108.422L42.9993 60.1514Z" fill="#E63D1A"/>
<path d="M85.5601 151.226L82.6088 148.907L99.0811 127.948L91.7686 122.201L93.8179 119.594L111.361 133.382L109.312 135.989L102.032 130.268L85.5601 151.226Z" fill="#F5F5F5"/>
<path d="M125.445 163.459C124.01 165.285 122.475 166.766 120.84 167.902C119.222 169.015 117.53 169.75 115.765 170.107C114.021 170.48 112.247 170.421 110.442 169.928C108.659 169.452 106.882 168.518 105.111 167.126C103.275 165.683 101.904 164.142 100.998 162.505C100.109 160.846 99.6321 159.136 99.5659 157.375C99.517 155.593 99.8619 153.781 100.601 151.941C101.339 150.102 102.426 148.268 103.862 146.442C105.764 144.022 107.818 142.219 110.023 141.033C112.228 139.847 114.526 139.375 116.918 139.617C119.331 139.877 121.762 140.968 124.21 142.893C126.549 144.731 128.119 146.784 128.919 149.05C129.737 151.294 129.832 153.648 129.206 156.11C128.618 158.567 127.365 161.017 125.445 163.459ZM106.951 148.924C105.395 150.904 104.328 152.824 103.75 154.684C103.173 156.543 103.149 158.305 103.681 159.969C104.234 161.649 105.385 163.177 107.134 164.552C108.905 165.943 110.65 166.692 112.371 166.798C114.113 166.922 115.819 166.483 117.49 165.482C119.16 164.481 120.774 162.991 122.33 161.011C124.665 158.04 125.877 155.238 125.967 152.603C126.075 149.947 124.806 147.579 122.161 145.5C120.39 144.108 118.623 143.342 116.859 143.202C115.134 143.057 113.436 143.484 111.766 144.485C110.112 145.464 108.508 146.943 106.951 148.924Z" fill="#F5F5F5"/>
<path d="M121.348 179.353L139.869 155.787L157.446 169.601L138.924 193.167L136.006 190.874L152.478 169.915L140.771 160.714L124.299 181.673L121.348 179.353Z" fill="#F5F5F5"/>
<path d="M175.049 202.444C173.613 204.271 172.078 205.752 170.443 206.887C168.825 208 167.134 208.735 165.368 209.092C163.624 209.466 161.85 209.406 160.045 208.913C158.262 208.437 156.485 207.503 154.714 206.111C152.878 204.668 151.507 203.128 150.601 201.491C149.713 199.831 149.235 198.121 149.169 196.361C149.12 194.578 149.465 192.767 150.204 190.927C150.943 189.087 152.03 187.254 153.465 185.428C155.367 183.007 157.421 181.204 159.626 180.018C161.831 178.832 164.129 178.361 166.521 178.603C168.934 178.862 171.365 179.954 173.813 181.878C176.152 183.716 177.722 185.769 178.522 188.035C179.34 190.28 179.436 192.633 178.809 195.095C178.222 197.552 176.968 200.002 175.049 202.444ZM156.554 187.909C154.998 189.889 153.931 191.809 153.353 193.669C152.776 195.529 152.753 197.29 153.284 198.954C153.837 200.635 154.989 202.162 156.737 203.537C158.508 204.929 160.254 205.678 161.974 205.784C163.716 205.907 165.422 205.468 167.093 204.468C168.763 203.467 170.377 201.976 171.933 199.996C174.268 197.025 175.48 194.223 175.571 191.589C175.678 188.932 174.409 186.564 171.764 184.485C169.993 183.094 168.226 182.328 166.462 182.187C164.737 182.042 163.04 182.47 161.369 183.47C159.716 184.449 158.111 185.929 156.554 187.909Z" fill="#F5F5F5"/>
<path d="M196.162 200.03C198.108 201.559 199.589 203.026 200.607 204.431C201.646 205.854 202.157 207.251 202.138 208.625C202.141 210.016 201.581 211.426 200.457 212.857C199.731 213.781 198.907 214.468 197.987 214.92C197.105 215.366 196.136 215.565 195.078 215.516C194.059 215.463 192.999 215.146 191.899 214.566L191.769 214.731C192.632 215.659 193.292 216.641 193.751 217.677C194.231 218.731 194.398 219.823 194.252 220.954C194.106 222.085 193.548 223.267 192.58 224.499C191.456 225.929 190.168 226.893 188.717 227.389C187.283 227.864 185.746 227.884 184.107 227.45C182.507 227.011 180.865 226.131 179.182 224.808L170.951 218.339L189.473 194.773L196.162 200.03ZM188.866 210.528C190.878 212.109 192.506 212.872 193.75 212.818C195.012 212.742 196.145 212.066 197.148 210.79C198.168 209.492 198.436 208.207 197.95 206.935C197.503 205.658 196.285 204.238 194.296 202.675L190.426 199.634L184.538 207.126L188.866 210.528ZM182.592 209.601L175.874 218.15L180.596 221.861C182.672 223.493 184.435 224.22 185.884 224.042C187.333 223.863 188.576 223.114 189.613 221.794C190.271 220.958 190.655 220.085 190.768 219.177C190.903 218.286 190.673 217.341 190.08 216.341C189.526 215.336 188.528 214.266 187.085 213.132L182.592 209.601Z" fill="#F5F5F5"/>
<path d="M192.278 235.101L210.8 211.535L213.751 213.854L205.917 223.822L209.524 226.657C211.71 228.375 213.193 230.021 213.972 231.594C214.773 233.185 215.038 234.692 214.767 236.117C214.518 237.559 213.901 238.907 212.915 240.161C211.825 241.547 210.579 242.525 209.176 243.096C207.795 243.683 206.267 243.782 204.594 243.392C202.92 243.002 201.121 242.051 199.197 240.539L192.278 235.101ZM200.906 237.824C202.786 239.302 204.46 240.03 205.927 240.008C207.394 239.986 208.707 239.238 209.865 237.764C210.661 236.752 211.074 235.777 211.103 234.839C211.155 233.919 210.847 232.983 210.18 232.031C209.513 231.08 208.502 230.072 207.147 229.007L203.868 226.429L197.201 234.912L200.906 237.824ZM211.1 249.894L229.622 226.328L232.573 228.647L214.052 252.213L211.1 249.894Z" fill="#F5F5F5"/>
<path d="M260.676 238.881C259.724 239.913 258.724 240.622 257.677 241.009C256.652 241.414 255.555 241.46 254.387 241.146C253.218 240.833 251.934 240.127 250.535 239.027C249.114 237.91 248.114 236.821 247.533 235.76C246.975 234.716 246.784 233.676 246.961 232.641C247.156 231.583 247.65 230.459 248.445 229.268L251.134 231.382C250.309 232.656 249.984 233.699 250.158 234.513C250.372 235.321 251.047 236.172 252.183 237.065C253.189 237.856 254.14 238.265 255.037 238.294C255.973 238.318 256.946 237.8 257.954 236.742L260.676 238.881ZM238.981 233.683L241.735 235.848L231.566 248.786C231.134 249.336 230.647 249.933 230.107 250.576C229.605 251.214 229.093 251.844 228.569 252.464C228.046 253.085 227.564 253.632 227.122 254.103C226.72 254.57 226.404 254.927 226.175 255.174L226.306 255.277L254.524 245.899L257.803 248.476L239.281 272.042L236.527 269.878L246.592 257.071C247.059 256.477 247.571 255.848 248.129 255.183C248.704 254.496 249.254 253.842 249.777 253.221C250.339 252.595 250.831 252.038 251.25 251.549C251.67 251.06 251.986 250.703 252.198 250.478L252.067 250.375L223.738 259.826L220.459 257.249L238.981 233.683Z" fill="#F5F5F5"/>
<path d="M272.367 260.244L281.286 267.254C282.051 267.855 282.791 268.579 283.505 269.425C284.219 270.271 284.836 271.218 285.356 272.267C285.914 273.311 286.334 274.442 286.615 275.66C286.918 276.894 287.018 278.184 286.917 279.528C286.833 280.85 286.516 282.22 285.966 283.639C285.434 285.037 284.606 286.45 283.482 287.88C282.358 289.311 281.171 290.46 279.922 291.33C278.69 292.177 277.434 292.809 276.152 293.225C274.887 293.619 273.619 293.815 272.348 293.813C271.098 293.828 269.892 293.698 268.728 293.424C267.603 293.145 266.545 292.759 265.554 292.265C264.563 291.771 263.685 291.223 262.92 290.622L254.001 283.612L272.367 260.244ZM258.779 283.202L264.026 287.325C265.359 288.374 266.733 289.168 268.146 289.71C269.559 290.251 270.967 290.485 272.368 290.412C273.787 290.317 275.186 289.886 276.567 289.12C277.947 288.353 279.268 287.167 280.531 285.561C281.793 283.955 282.633 282.39 283.052 280.868C283.47 279.346 283.549 277.896 283.289 276.516C283.047 275.115 282.495 273.792 281.635 272.547C280.775 271.301 279.678 270.154 278.345 269.106L273.098 264.983L258.779 283.202Z" fill="#F5F5F5"/>
<path d="M297.099 279.681L299.853 281.846L281.487 305.214L278.733 303.049L297.099 279.681Z" fill="#F5F5F5"/>
<path d="M308.236 323.674C306.315 323.374 304.472 322.816 302.709 322C300.968 321.201 299.343 320.209 297.834 319.023C296.02 317.597 294.592 315.994 293.551 314.215C292.509 312.435 291.855 310.568 291.587 308.614C291.341 306.676 291.501 304.719 292.064 302.742C292.646 300.742 293.654 298.83 295.089 297.003C296.542 295.155 298.173 293.732 299.983 292.734C301.832 291.731 303.74 291.148 305.707 290.985C307.691 290.801 309.671 291.004 311.646 291.595C313.622 292.187 315.484 293.17 317.233 294.544C318.763 295.747 320.046 297.129 321.082 298.691C322.14 300.27 322.785 302.058 323.018 304.057L319.24 304.612C319.127 303.135 318.684 301.719 317.911 300.363C317.159 299.025 316.193 297.892 315.012 296.964C313.679 295.916 312.254 295.187 310.736 294.778C309.219 294.369 307.697 294.258 306.17 294.446C304.665 294.651 303.205 295.159 301.79 295.969C300.397 296.797 299.147 297.914 298.04 299.323C296.951 300.709 296.169 302.177 295.694 303.726C295.241 305.292 295.084 306.841 295.223 308.374C295.401 309.903 295.89 311.373 296.69 312.785C297.49 314.196 298.601 315.461 300.022 316.578C300.962 317.316 302.032 317.979 303.232 318.567C304.45 319.132 305.658 319.53 306.857 319.76L312.486 312.598L307.141 308.397L309.164 305.823L317.263 312.188L308.236 323.674Z" fill="#F5F5F5"/>
<path d="M331.139 306.435L333.893 308.6L315.527 331.968L312.773 329.803L331.139 306.435Z" fill="#F5F5F5"/>
<path d="M353.209 327.946L345.536 321.915L329.194 342.709L326.439 340.544L342.782 319.75L335.108 313.72L337.132 311.145L355.233 325.371L353.209 327.946Z" fill="#F5F5F5"/>
<path d="M363.018 331.49L365.608 333.526L357.113 364.651L353.899 362.126L356.052 354.527L344.444 345.404L337.536 349.266L334.421 346.817L363.018 331.49ZM361.462 336.034L361.397 335.983L347.549 343.68L357.026 351.128L361.462 336.034Z" fill="#F5F5F5"/>
<path d="M378.564 343.709L381.319 345.874L364.976 366.667L375.601 375.017L373.577 377.592L360.198 367.077L378.564 343.709Z" fill="#F5F5F5"/>
<path d="M382.311 369.719L390.345 376.033L388.477 378.41L380.443 372.096L382.311 369.719Z" fill="#F5F5F5"/>
<path d="M398.138 396.895L406.671 370.177L406.54 370.074C406.238 370.549 405.829 371.135 405.315 371.835C404.823 372.551 404.268 373.325 403.65 374.156C403.049 374.966 402.42 375.788 401.763 376.625L390.53 390.916L387.809 388.777L406.33 365.211L410.692 368.639L402.73 393.617L402.862 393.72L425.382 380.185L429.71 383.586L411.189 407.152L408.27 404.859L419.658 390.369C420.264 389.599 420.871 388.849 421.481 388.118C422.108 387.365 422.703 386.675 423.266 386.05C423.845 385.402 424.328 384.856 424.713 384.411L424.582 384.308L400.565 398.802L398.138 396.895Z" fill="#F5F5F5"/>
<path d="M432.248 423.704L435.161 414.193L425.881 406.9L417.361 412.003L414.377 409.658L442.125 393.184L444.781 395.271L435.298 426.101L432.248 423.704ZM439.331 401.666C439.404 401.438 439.545 401.034 439.755 400.451C439.965 399.869 440.184 399.275 440.412 398.671C440.678 398.062 440.872 397.591 440.992 397.258C440.536 397.612 440.062 397.969 439.567 398.328C439.112 398.682 438.672 398.995 438.247 399.266C437.844 399.554 437.494 399.796 437.2 399.991L428.94 405.033L436.351 410.857L439.331 401.666Z" fill="#F5F5F5"/>
<path d="M463.22 409.923C466.28 412.328 468.035 414.686 468.483 416.996C468.93 419.306 468.29 421.561 466.56 423.761C465.799 424.729 464.901 425.535 463.864 426.18C462.866 426.82 461.729 427.208 460.455 427.345C459.18 427.482 457.777 427.287 456.246 426.76C454.732 426.211 453.101 425.25 451.352 423.875L448.663 421.762L441.452 430.937L438.501 428.618L457.022 405.052L463.22 409.923ZM460.96 412.258L457.976 409.913L450.661 419.221L453.022 421.076C454.508 422.244 455.865 423.061 457.09 423.526C458.334 423.969 459.472 424.028 460.507 423.702C461.541 423.376 462.508 422.64 463.407 421.496C464.6 419.978 465.01 418.467 464.636 416.963C464.262 415.459 463.037 413.89 460.96 412.258Z" fill="#F5F5F5"/>
<path d="M475.439 457.649L471.898 454.866L470.697 434.594L461.306 446.542L458.355 444.222L476.876 420.656L479.828 422.976L470.852 434.396L490.157 431.094L493.502 433.723L474.335 437.186L475.439 457.649Z" fill="#F5F5F5"/>
<path d="M491.709 470.437L478.625 460.154L497.147 436.588L510.23 446.871L508.181 449.478L498.049 441.515L492.264 448.875L501.806 456.374L499.783 458.949L490.241 451.449L483.626 459.866L493.758 467.829L491.709 470.437Z" fill="#F5F5F5"/>
<path d="M504.257 480.299L501.306 477.979L517.778 457.021L510.466 451.273L512.515 448.666L530.058 462.454L528.009 465.062L520.729 459.34L504.257 480.299Z" fill="#F5F5F5"/>
<path d="M533.621 465.255L536.376 467.42L526.207 480.358C525.775 480.908 525.288 481.504 524.748 482.147C524.246 482.785 523.734 483.415 523.21 484.036C522.687 484.657 522.204 485.203 521.763 485.675C521.361 486.142 521.045 486.499 520.815 486.745L520.947 486.848L549.164 477.471L552.444 480.048L533.922 503.614L531.168 501.449L541.232 488.643C541.699 488.049 542.212 487.419 542.77 486.754C543.345 486.067 543.894 485.413 544.418 484.792C544.98 484.167 545.471 483.609 545.891 483.12C546.311 482.632 546.626 482.275 546.839 482.05L546.707 481.947L518.379 491.398L515.1 488.821L533.621 465.255Z" fill="#F5F5F5"/>
<path d="M558.141 522.648L555.19 520.329L563.828 509.338L551.826 499.906L543.188 510.896L540.237 508.577L558.758 485.011L561.71 487.33L553.876 497.298L565.877 506.731L573.711 496.763L576.662 499.083L558.141 522.648Z" fill="#F5F5F5"/>
<path d="M596.279 514.5L594.203 517.14L583.94 509.073L567.493 529.999L564.542 527.679L583.064 504.114L596.279 514.5Z" fill="#F5F5F5"/>
</svg>
