<svg width="94" height="94" viewBox="0 0 94 94" fill="none" xmlns="http://www.w3.org/2000/svg">
<path d="M78.3335 47.7831V54.4418C78.3335 66.7793 71.2835 72.0668 60.7085 72.0668H25.4585C14.8835 72.0668 7.8335 66.7793 7.8335 54.4418V33.2917C7.8335 20.9542 14.8835 15.6667 25.4585 15.6667H36.0335C35.5243 17.155 35.2502 18.8 35.2502 20.5625V35.8376C35.2502 39.6368 36.5035 42.8484 38.736 45.0809C40.9685 47.3134 44.1802 48.5668 47.9793 48.5668V54.011C47.9793 56.0085 50.251 57.2223 51.9352 56.1257L63.2543 48.5668H73.4377C75.2002 48.5668 76.8452 48.2923 78.3335 47.7831Z" stroke="#292D32" stroke-width="5" stroke-miterlimit="10" stroke-linecap="round" stroke-linejoin="round"/>
<path d="M86.1667 20.5625V35.8376C86.1667 41.6734 83.19 46.0598 78.3333 47.7831C76.845 48.2923 75.2 48.5668 73.4375 48.5668H63.2542L51.935 56.1257C50.2508 57.2223 47.9792 56.0085 47.9792 54.011V48.5668C44.18 48.5668 40.9683 47.3134 38.7358 45.0809C36.5033 42.8484 35.25 39.6368 35.25 35.8376V20.5625C35.25 18.8 35.5242 17.155 36.0333 15.6667C37.7567 10.81 42.1433 7.83333 47.9792 7.83333H73.4375C81.075 7.83333 86.1667 12.925 86.1667 20.5625Z" stroke="#292D32" stroke-width="5" stroke-miterlimit="10" stroke-linecap="round" stroke-linejoin="round"/>
<path d="M28.9834 86.1667H57.1834" stroke="#292D32" stroke-width="5" stroke-miterlimit="10" stroke-linecap="round" stroke-linejoin="round"/>
<path d="M43.0835 72.0668V86.1667" stroke="#292D32" stroke-width="5" stroke-miterlimit="10" stroke-linecap="round" stroke-linejoin="round"/>
<path d="M72.4407 28.3958H72.476" stroke="#E63D1A" stroke-width="5" stroke-linecap="round" stroke-linejoin="round"/>
<path d="M61.4749 28.3958H61.5101" stroke="#E63D1A" stroke-width="5" stroke-linecap="round" stroke-linejoin="round"/>
<path d="M50.5071 28.3958H50.5424" stroke="#E63D1A" stroke-width="5" stroke-linecap="round" stroke-linejoin="round"/>
</svg>
