<svg  viewBox="0 0 20 20" xmlns="http://www.w3.org/2000/svg" id="insta"> 
<path d="M12.5256 10.0001C12.5256 11.3949 11.3949 12.5257 9.99999 12.5257V14.5257C12.4994 14.5257 14.5256 12.4995 14.5256 10.0001H12.5256ZM9.99999 12.5257C8.60512 12.5257 7.47435 11.3949 7.47435 10.0001H5.47435C5.47435 12.4995 7.50055 14.5257 9.99999 14.5257V12.5257ZM7.47435 10.0001C7.47435 8.60518 8.60512 7.47441 9.99999 7.47441V5.47441C7.50055 5.47441 5.47435 7.50061 5.47435 10.0001H7.47435ZM9.99999 7.47441C11.3949 7.47441 12.5256 8.60518 12.5256 10.0001H14.5256C14.5256 7.50061 12.4994 5.47441 9.99999 5.47441V7.47441ZM9.99999 17.4616C8.67211 17.4616 7.72629 17.461 6.98154 17.4102C6.24578 17.36 5.77961 17.2641 5.40343 17.1083L4.63807 18.9561C5.29855 19.2297 6.00781 19.3484 6.8454 19.4056C7.67401 19.4621 8.69948 19.4616 9.99999 19.4616V17.4616ZM0.538452 10.0001C0.538452 11.3006 0.537911 12.326 0.594446 13.1546C0.651595 13.9922 0.770388 14.7015 1.04397 15.362L2.89173 14.5966C2.73591 14.2204 2.64001 13.7543 2.58981 13.0185C2.53899 12.2738 2.53845 11.3279 2.53845 10.0001H0.538452ZM5.40343 17.1083C4.26625 16.6373 3.36277 15.7338 2.89173 14.5966L1.04397 15.362C1.71799 16.9892 3.01083 18.282 4.63807 18.9561L5.40343 17.1083ZM17.4615 10.0001C17.4615 11.3279 17.461 12.2738 17.4102 13.0185C17.36 13.7543 17.2641 14.2204 17.1083 14.5966L18.956 15.362C19.2296 14.7015 19.3484 13.9922 19.4055 13.1546C19.4621 12.326 19.4615 11.3006 19.4615 10.0001H17.4615ZM9.99999 19.4616C11.3005 19.4616 12.326 19.4621 13.1546 19.4056C13.9922 19.3484 14.7014 19.2297 15.3619 18.9561L14.5965 17.1083C14.2204 17.2641 13.7542 17.36 13.0184 17.4102C12.2737 17.461 11.3279 17.4616 9.99999 17.4616V19.4616ZM17.1083 14.5966C16.6372 15.7338 15.7337 16.6373 14.5965 17.1083L15.3619 18.9561C16.9892 18.282 18.282 16.9892 18.956 15.362L17.1083 14.5966ZM9.99999 2.53851C11.3279 2.53851 12.2737 2.53905 13.0184 2.58987C13.7542 2.64007 14.2204 2.73597 14.5965 2.89179L15.3619 1.04403C14.7014 0.770449 13.9922 0.651656 13.1546 0.594507C12.326 0.537972 11.3005 0.538513 9.99999 0.538513V2.53851ZM19.4615 10.0001C19.4615 8.69954 19.4621 7.67407 19.4055 6.84546C19.3484 6.00787 19.2296 5.29861 18.956 4.63813L17.1083 5.4035C17.2641 5.77967 17.36 6.24584 17.4102 6.9816C17.461 7.72635 17.4615 8.67217 17.4615 10.0001H19.4615ZM14.5965 2.89179C15.7337 3.36283 16.6372 4.26631 17.1083 5.4035L18.956 4.63813C18.282 3.01089 16.9892 1.71806 15.3619 1.04403L14.5965 2.89179ZM9.99999 0.538513C8.69948 0.538513 7.67401 0.537972 6.8454 0.594507C6.00781 0.651656 5.29855 0.770449 4.63807 1.04403L5.40343 2.89179C5.77961 2.73597 6.24578 2.64007 6.98154 2.58987C7.72629 2.53905 8.67211 2.53851 9.99999 2.53851V0.538513ZM2.53845 10.0001C2.53845 8.67217 2.53899 7.72635 2.58981 6.9816C2.64001 6.24584 2.73591 5.77967 2.89173 5.4035L1.04397 4.63813C0.770388 5.29861 0.651595 6.00787 0.594446 6.84546C0.537911 7.67407 0.538452 8.69954 0.538452 10.0001H2.53845ZM4.63807 1.04403C3.01083 1.71806 1.71799 3.01089 1.04397 4.63813L2.89173 5.4035C3.36277 4.26631 4.26625 3.36283 5.40343 2.89179L4.63807 1.04403Z" />
</svg>
