<svg  viewBox="0 0 20 20"  xmlns="http://www.w3.org/2000/svg" id="phone">
<path d="M10.0001 19.2308C4.92313 19.2308 0.769287 15.077 0.769287 10.0001C0.769287 4.92313 4.92313 0.769287 10.0001 0.769287C15.077 0.769287 19.2308 4.92313 19.2308 10.0001C19.2308 15.077 15.077 19.2308 10.0001 19.2308ZM10.0001 1.92313C5.55775 1.92313 1.92313 5.55775 1.92313 10.0001C1.92313 14.4424 5.55775 18.077 10.0001 18.077C14.4424 18.077 18.077 14.4424 18.077 10.0001C18.077 5.55775 14.4424 1.92313 10.0001 1.92313Z" />
<path d="M9.64085 6.34213L9.51397 6.12296C9.42836 5.9749 9.38562 5.90089 9.34179 5.84323C9.01866 5.41807 8.4432 5.26828 7.94483 5.47941C7.87724 5.50805 7.80219 5.55099 7.65195 5.63761C6.83644 6.15562 6.89782 7.92355 6.95028 8.18552C6.95028 8.18552 6.9609 9.05164 8.14374 11.0976C9.32658 13.1436 10.1991 13.8053 10.1991 13.8053C10.6955 14.2137 11.9024 14.9187 12.7594 14.4724C12.9096 14.3858 12.9846 14.3424 13.0433 14.2983C13.4755 13.9728 13.6333 13.4 13.4261 12.9079C13.398 12.8412 13.3553 12.7671 13.2697 12.619L13.143 12.3999C13.0052 12.1615 12.9139 12.0038 12.83 11.8902C12.7585 11.7934 12.655 11.7266 12.5455 11.673C12.0723 11.4418 11.138 11.6606 10.6462 11.4678C10.5953 11.4479 10.5455 11.4246 10.4971 11.3981C10.4477 11.371 10.4003 11.3411 10.3577 11.3045C10.225 11.1903 9.91153 10.8907 9.6227 10.3911C9.24881 9.7444 9.21883 9.28783 9.2181 9.27577V9.27497C9.21033 9.13319 9.22387 8.99268 9.2566 8.85696C9.37745 8.35594 9.99418 7.66362 9.9866 7.15304C9.98548 7.07748 9.97845 7.00176 9.95229 6.93149C9.89948 6.78965 9.8021 6.62104 9.64085 6.34213Z" />
</svg>
