<svg  viewBox="0 0 28 20" xmlns="http://www.w3.org/2000/svg" id="youtube">
<path  d="M12.1882 5.48001C11.8795 5.29139 11.4931 5.28416 11.1776 5.4611C10.8621 5.63804 10.6667 5.97157 10.6667 6.33329V13.6666C10.6667 14.0284 10.8621 14.3619 11.1776 14.5388C11.4931 14.7158 11.8795 14.7085 12.1882 14.5199L18.1882 10.8532C18.4854 10.6716 18.6667 10.3483 18.6667 9.99996C18.6667 9.65159 18.4854 9.32833 18.1882 9.14668L12.1882 5.48001ZM15.749 9.99996L12.6667 11.8836V8.11635L15.749 9.99996Z" />
<path d="M10.0001 0.666626C8.12271 0.666668 6.5872 0.717326 5.36139 0.928626C4.1277 1.14128 3.08948 1.53518 2.3112 2.31399C1.53296 3.09275 1.13981 4.13112 0.927722 5.36435C0.716984 6.58971 0.666748 8.12433 0.666748 9.99996C0.666748 11.8756 0.716984 13.4102 0.927722 14.6356C1.13981 15.8688 1.53296 16.9072 2.3112 17.6859C3.08948 18.4647 4.1277 18.8586 5.36139 19.0713C6.5872 19.2826 8.12271 19.3332 10.0001 19.3333H18.0001C19.8774 19.3332 21.413 19.2826 22.6388 19.0713C23.8725 18.8586 24.9107 18.4647 25.689 17.6859C26.4672 16.9072 26.8603 15.8688 27.0724 14.6356C27.2832 13.4102 27.3334 11.8756 27.3334 9.99996C27.3334 8.12433 27.2832 6.58971 27.0724 5.36435C26.8603 4.13112 26.4672 3.09275 25.689 2.31399C24.9107 1.53518 23.8725 1.14128 22.6388 0.928626C21.413 0.717326 19.8774 0.666668 18.0001 0.666626H10.0001ZM2.66675 9.99996C2.66675 8.12559 2.71989 6.74356 2.89879 5.70333C3.07633 4.67095 3.35908 4.09477 3.72588 3.72772C4.09264 3.36072 4.66861 3.07754 5.70113 2.89956C6.74154 2.72022 8.12428 2.66667 10.0001 2.66663H18.0001C19.8759 2.66667 21.2586 2.72022 22.299 2.89956C23.3315 3.07754 23.9075 3.36072 24.2743 3.72772C24.6411 4.09477 24.9238 4.67095 25.1014 5.70333C25.2803 6.74356 25.3334 8.12559 25.3334 9.99996C25.3334 11.8743 25.2803 13.2564 25.1014 14.2966C24.9238 15.329 24.6411 15.9051 24.2743 16.2722C23.9075 16.6392 23.3315 16.9224 22.299 17.1004C21.2586 17.2797 19.8759 17.3332 18.0001 17.3333H10.0001C8.12429 17.3332 6.74154 17.2797 5.70113 17.1004C4.66861 16.9224 4.09264 16.6392 3.72588 16.2722C3.35908 15.9051 3.07633 15.329 2.89879 14.2966C2.71989 13.2564 2.66675 11.8743 2.66675 9.99996Z" />
</svg>
