<svg width="217" height="36" viewBox="0 0 217 36" fill="none" xmlns="http://www.w3.org/2000/svg">
<path d="M2.43098 26.3551C2.40062 25.8363 2.42605 25.2599 2.42605 24.7351H2.43098V11.6527C2.43098 11.6527 1.62068 11.6527 0 11.6527C0 11.6527 0 10.1521 0 7.1507C0 7.1507 0.810305 7.1507 2.43098 7.1507C2.43098 7.1507 2.43098 4.8625 2.43098 0.279785C2.43098 0.279785 4.08283 0.279785 7.39902 0.279785C7.39902 0.279785 7.39902 2.57431 7.39902 7.1507C7.39902 7.1507 8.3963 7.1507 10.391 7.1507C10.391 7.1507 10.391 8.65137 10.391 11.6527C10.391 11.6527 9.39361 11.6527 7.39902 11.6527V24.7351H10.0594V28.887H5.13041C4.2321 28.887 3.43255 28.4453 2.94006 27.7694C2.73606 27.5024 2.56175 27.0596 2.43092 26.3551H2.43098Z" fill="#E63D1A"/>
<path d="M54.4347 34.654C54.4347 34.654 54.4347 25.4889 54.4347 7.15205C54.4347 7.15205 55.9495 7.15205 58.9852 7.15205C58.9852 7.15205 58.9852 7.96457 58.9852 9.58294C60.6244 7.64816 62.8997 6.6806 65.792 6.6806C67.768 6.6806 69.5382 7.13338 71.109 8.05125C72.6798 8.9628 73.9077 10.2401 74.7868 11.8711C75.6719 13.5082 76.1143 15.3499 76.1143 17.3964C76.1143 19.4552 75.6656 21.3153 74.7805 22.965C73.889 24.6207 72.661 25.9167 71.0842 26.8532C69.507 27.7894 67.7304 28.2609 65.7608 28.2609C64.4953 28.2609 63.3545 28.0685 62.345 27.6781C61.3349 27.2933 60.3503 26.6795 59.4028 25.8423V34.654H54.4347ZM65.0439 11.22C63.3672 11.22 61.9586 11.8215 60.8178 13.0307C59.6833 14.2337 59.1099 15.7407 59.1099 17.5451C59.1099 19.3002 59.6957 20.7698 60.8614 21.9481C62.0334 23.1264 63.4731 23.7215 65.1937 23.7215C66.858 23.7215 68.2603 23.12 69.4011 21.9294C70.5419 20.7388 71.109 19.2628 71.109 17.5081C71.109 15.691 70.5356 14.1903 69.3947 12.9997C68.2479 11.8154 66.8017 11.22 65.0439 11.22Z" fill="#E63D1A"/>
<path d="M100.082 7.15171C100.082 7.15171 100.082 14.023 100.082 27.7708C100.082 27.7708 98.5671 27.7708 95.5317 27.7708C95.5317 27.7708 95.5317 26.8779 95.5317 25.0982C94.5343 26.2268 93.5058 27.0326 92.4397 27.5227C91.3739 28.0188 90.1085 28.2606 88.6499 28.2606C86.6491 28.2606 84.8601 27.8018 83.2706 26.8902C81.681 25.9724 80.4406 24.7014 79.5428 23.064C78.6516 21.427 78.2029 19.5916 78.2029 17.5451C78.2029 15.474 78.6516 13.6075 79.5555 11.9578C80.453 10.3021 81.7058 9.01247 83.3141 8.07592C84.9225 7.14571 86.7363 6.6806 88.7558 6.6806C90.2583 6.6806 91.5485 6.935 92.627 7.44978C93.7115 7.96423 94.6838 8.78275 95.5317 9.91135V7.15205H100.082V7.15171ZM89.1985 11.22C87.4655 11.22 86.0382 11.8275 84.9161 13.0367C83.788 14.246 83.227 15.7837 83.227 17.6505C83.227 19.4549 83.794 20.9185 84.9349 22.0408C86.0693 23.1571 87.5466 23.7212 89.3604 23.7212C91.1621 23.7212 92.6143 23.1507 93.7176 22.0098C94.8209 20.8752 95.3695 19.3805 95.3695 17.5451C95.3695 15.6787 94.7961 14.1593 93.6428 12.9811C92.4896 11.8091 91.0123 11.22 89.1985 11.22Z" fill="#E63D1A"/>
<path d="M120.133 7.15205C120.133 7.15205 121.717 7.15205 124.877 7.15205C124.877 7.15205 124.877 12.7207 124.877 23.8642C124.877 25.9107 124.702 27.6097 124.341 28.9617C123.979 30.3134 123.399 31.467 122.595 32.4219C120.626 34.8091 117.808 36 114.143 36C111.606 36 109.412 35.4232 107.548 34.2759C105.684 33.1223 104.332 31.5163 103.496 29.4452H109.137C109.867 30.239 110.627 30.8095 111.419 31.1382C112.211 31.473 113.183 31.6403 114.343 31.6403C116.194 31.6403 117.596 31.0945 118.562 30.0033C119.522 28.918 120.046 27.2623 120.133 25.0422C119.154 26.1834 118.145 27.0019 117.091 27.5104C116.038 28.0125 114.779 28.2606 113.32 28.2606C111.369 28.2606 109.624 27.7958 108.072 26.8656C106.52 25.929 105.31 24.6331 104.444 22.965C103.577 21.2966 103.147 19.4179 103.147 17.3217C103.147 14.271 104.114 11.7348 106.052 9.71297C107.985 7.6915 110.422 6.6806 113.358 6.6806C116.325 6.6806 118.587 7.71018 120.133 9.76865V7.15205H120.133ZM113.85 11.22C112.142 11.22 110.771 11.7968 109.73 12.9564C108.689 14.11 108.171 15.6413 108.171 17.5451C108.171 19.4179 108.695 20.9185 109.748 22.0411C110.802 23.1571 112.217 23.7215 113.993 23.7215C115.795 23.7215 117.234 23.1511 118.307 22.0225C119.379 20.8875 119.909 19.3682 119.909 17.4707C119.909 15.6043 119.354 14.0973 118.238 12.944C117.129 11.7968 115.664 11.22 113.85 11.22Z" fill="#E63D1A"/>
<path d="M149.366 19.6659C149.366 19.6659 144.017 19.6659 133.315 19.6659C133.62 20.9122 134.287 21.9044 135.31 22.6299C136.332 23.3558 137.579 23.7215 139.05 23.7215C140.072 23.7215 140.926 23.5665 141.605 23.2564C142.291 22.9463 142.952 22.4192 143.6 21.669H149.023C148.73 22.5993 148.181 23.5541 147.377 24.5337C145.233 27.0206 142.496 28.2609 139.162 28.2609C137.603 28.2609 136.126 27.9818 134.742 27.4237C133.352 26.8716 132.161 26.1151 131.17 25.1665C130.179 24.2113 129.388 23.0767 128.808 21.7494C128.222 20.4224 127.929 19.0211 127.929 17.5451C127.929 15.5543 128.415 13.7312 129.381 12.0632C130.348 10.4015 131.669 9.08682 133.346 8.1256C135.016 7.15805 136.855 6.6806 138.85 6.6806C140.882 6.6806 142.715 7.15204 144.348 8.10693C145.981 9.05582 147.252 10.3765 148.175 12.0632C149.091 13.7562 149.553 15.6537 149.553 17.7621C149.553 18.438 149.49 19.0768 149.366 19.6659H149.366ZM133.171 15.3066H144.659C144.342 13.9856 143.687 12.9747 142.702 12.2742C141.717 11.5734 140.458 11.22 138.925 11.22C137.435 11.22 136.207 11.5671 135.222 12.2616C134.244 12.9624 133.558 13.9733 133.171 15.3066Z" fill="#E63D1A"/>
<path d="M152.619 27.7708C152.619 27.7708 152.619 20.8999 152.619 7.15205C152.619 7.15205 154.146 7.15205 157.206 7.15205C157.206 7.15205 157.206 7.8092 157.206 9.13017C158.116 8.24963 159.02 7.61715 159.905 7.23873C160.797 6.86664 161.844 6.6806 163.047 6.6806C166.064 6.6806 168.271 7.73484 169.661 9.83699C170.159 10.6372 170.509 11.5424 170.708 12.547C170.907 13.5515 171.007 14.9468 171.007 16.7266V27.7708H166.045C166.045 27.7708 166.045 24.4097 166.045 17.6878C166.045 15.0212 165.69 13.2724 164.986 12.4353C164.312 11.6231 163.346 11.22 162.081 11.22C160.373 11.22 159.138 11.8835 158.372 13.2168C158.066 13.6882 157.861 14.277 157.749 14.9778C157.643 15.685 157.586 16.7079 157.586 18.0539V27.7708C157.586 27.7708 155.929 27.7708 152.619 27.7708Z" fill="#E63D1A"/>
<path d="M189.747 20.9929C189.747 20.9929 191.617 20.9929 195.357 20.9929C194.49 23.3061 193.169 25.0982 191.386 26.3631C189.597 27.6281 187.497 28.2606 185.072 28.2606C183.563 28.2606 182.123 27.9755 180.752 27.405C179.387 26.8406 178.209 26.0777 177.224 25.1165C176.233 24.1616 175.447 23.0144 174.868 21.6874C174.282 20.3544 173.989 18.9464 173.989 17.4707C173.989 15.4863 174.469 13.6632 175.429 12.0075C176.395 10.3578 177.71 9.05582 179.387 8.10693C181.057 7.15204 182.902 6.6806 184.91 6.6806C186.393 6.6806 187.808 6.941 189.154 7.46812C190.501 7.99524 191.679 8.75175 192.689 9.73164C193.343 10.3705 193.867 10.9966 194.253 11.6104C194.633 12.2245 195.001 13.0307 195.357 14.0353H189.747C188.774 12.1562 187.16 11.22 184.91 11.22C183.183 11.22 181.768 11.7964 180.665 12.9564C179.561 14.1096 179.013 15.6043 179.013 17.4334C179.013 19.2382 179.586 20.7385 180.739 21.9294C181.886 23.12 183.32 23.7215 185.041 23.7215C186.063 23.7215 186.948 23.4981 187.696 23.064C188.444 22.6299 189.13 21.9418 189.747 20.9929Z" fill="#E63D1A"/>
<path d="M199.684 34.6529C199.684 34.6529 200.98 31.7196 203.573 25.8409C203.573 25.8409 201.043 19.6148 195.981 7.15063C195.981 7.15063 197.869 7.15063 201.66 7.15063C201.66 7.15063 203.193 11.6093 206.26 20.5204C206.26 20.5204 207.936 16.0617 211.284 7.15063C211.284 7.15063 213.185 7.15063 217 7.15063C217 7.15063 213.011 16.3161 205.038 34.6529C205.038 34.6529 203.255 34.6529 199.684 34.6529Z" fill="#E63D1A"/>
<path fill-rule="evenodd" clip-rule="evenodd" d="M23.7073 7.23608H41.7731C47.4138 7.23608 52.029 11.8275 52.029 17.4388C52.029 23.0504 47.4138 27.6418 41.7731 27.6418H23.7073C18.0665 27.6418 13.4513 23.0504 13.4513 17.4388C13.4513 11.8271 18.0665 7.23608 23.7073 7.23608ZM23.7073 9.13352H41.7731C46.3648 9.13352 50.1218 12.871 50.1218 17.4388C50.1218 22.0068 46.3648 25.7443 41.7731 25.7443H23.7073C19.1155 25.7443 15.3586 22.0068 15.3586 17.4388C15.3586 12.871 19.1155 9.13352 23.7073 9.13352ZM24.6644 13.9006C24.6644 13.9006 24.6644 16.1091 24.6644 20.5241C24.6644 20.5241 24.2981 20.5241 23.5652 20.5241C23.5652 20.5241 23.5652 20.3091 23.5652 19.8803C23.3218 20.1494 23.0712 20.3438 22.8128 20.4631C22.5544 20.5825 22.2571 20.6425 21.9189 20.6425C21.4521 20.6425 21.0285 20.5288 20.6454 20.3018C20.2627 20.073 19.9607 19.7593 19.7415 19.3605C19.5207 18.9601 19.4111 18.5177 19.4111 18.0336C19.4111 17.5465 19.5223 17.0984 19.7429 16.6903C19.9651 16.2808 20.267 15.9598 20.6501 15.7267C21.0332 15.4936 21.4521 15.377 21.9102 15.377C22.2239 15.377 22.5185 15.4323 22.7916 15.543C23.0665 15.6537 23.292 15.8061 23.4676 15.9988V13.901H24.6648L24.6644 13.9006ZM22.06 16.4705C21.6549 16.4705 21.3137 16.6169 21.0375 16.9083C20.7597 17.1997 20.6216 17.5628 20.6216 17.9946C20.6216 18.4293 20.7657 18.7971 21.0539 19.0971C21.3438 19.3975 21.6954 19.5486 22.1083 19.5486C22.5121 19.5486 22.8547 19.4005 23.1355 19.1061C23.4164 18.8117 23.5561 18.4503 23.5561 18.0246C23.5561 17.5748 23.415 17.2044 23.1342 16.9113C22.8516 16.6169 22.4944 16.4705 22.06 16.4705ZM25.6363 20.5241C25.6363 20.5241 25.6363 18.8688 25.6363 15.5563C25.6363 15.5563 26.0358 15.5563 26.8331 15.5563C26.8331 15.5563 26.8331 17.2117 26.8331 20.5241C26.8331 20.5241 26.4336 20.5241 25.6363 20.5241ZM25.6363 15.0212C25.6363 15.0212 25.6363 14.6478 25.6363 13.9006C25.6363 13.9006 26.0358 13.9006 26.8331 13.9006C26.8331 13.9006 26.8331 14.2744 26.8331 15.0212C26.8331 15.0212 26.4336 15.0212 25.6363 15.0212ZM31.6605 15.5563C31.6605 15.5563 32.0419 15.5563 32.8033 15.5563C32.8033 15.5563 32.8033 16.898 32.8033 19.5829C32.8033 20.076 32.7614 20.4855 32.6743 20.8112C32.5872 21.1369 32.4474 21.4147 32.2537 21.6447C31.7788 22.2199 31.1001 22.5069 30.217 22.5069C29.6057 22.5069 29.0772 22.3679 28.6281 22.0915C28.1791 21.8134 27.853 21.4267 27.6519 20.9276H29.0112C29.1868 21.1189 29.3701 21.2563 29.5608 21.3357C29.7515 21.4163 29.9858 21.4567 30.265 21.4567C30.711 21.4567 31.0492 21.325 31.2818 21.0623C31.513 20.8005 31.6394 20.4018 31.6605 19.8667C31.4246 20.1417 31.1812 20.3391 30.9275 20.4615C30.6735 20.5825 30.3702 20.6425 30.0186 20.6425C29.5484 20.6425 29.1282 20.5301 28.7542 20.3061C28.3801 20.0804 28.0889 19.7683 27.8801 19.3662C27.6713 18.9644 27.5678 18.5117 27.5678 18.0069C27.5678 17.2717 27.8003 16.6606 28.2675 16.1735C28.733 15.6864 29.3202 15.4426 30.0277 15.4426C30.7425 15.4426 31.2878 15.6907 31.6602 16.1868V15.5563H31.6605ZM30.1467 16.5366C29.7351 16.5366 29.4047 16.6753 29.1536 16.9547C28.903 17.2327 28.7783 17.6018 28.7783 18.0606C28.7783 18.5117 28.9043 18.8731 29.1583 19.1438C29.412 19.4125 29.7529 19.5486 30.1812 19.5486C30.6152 19.5486 30.9621 19.4112 31.2205 19.1392C31.4785 18.8658 31.6062 18.4997 31.6062 18.0426C31.6062 17.5928 31.4728 17.2297 31.2037 16.9516C30.9366 16.6753 30.5837 16.5366 30.1467 16.5366ZM33.7766 20.5241C33.7766 20.5241 33.7766 18.8688 33.7766 15.5563C33.7766 15.5563 34.1761 15.5563 34.9737 15.5563C34.9737 15.5563 34.9737 17.2117 34.9737 20.5241C34.9737 20.5241 34.5742 20.5241 33.7766 20.5241ZM33.7766 15.0212C33.7766 15.0212 33.7766 14.6478 33.7766 13.9006C33.7766 13.9006 34.1761 13.9006 34.9737 13.9006C34.9737 13.9006 34.9737 14.2744 34.9737 15.0212C34.9737 15.0212 34.5742 15.0212 33.7766 15.0212ZM36.1614 20.5241C36.1614 20.5241 36.1614 19.2302 36.1614 16.6409C36.1614 16.6409 35.9664 16.6409 35.576 16.6409C35.576 16.6409 35.576 16.2795 35.576 15.5563C35.576 15.5563 35.771 15.5563 36.1614 15.5563C36.1614 15.5563 36.1614 15.0049 36.1614 13.9006C36.1614 13.9006 36.5596 13.9006 37.3586 13.9006C37.3586 13.9006 37.3586 14.4537 37.3586 15.5563C37.3586 15.5563 37.5989 15.5563 38.0795 15.5563C38.0795 15.5563 38.0795 15.9177 38.0795 16.6409C38.0795 16.6409 37.8392 16.6409 37.3586 16.6409C37.3586 16.6409 37.3586 17.9365 37.3586 20.5241C37.3586 20.5241 36.9591 20.5241 36.1614 20.5241ZM43.6814 15.5563C43.6814 15.5563 43.6814 17.2117 43.6814 20.5241C43.6814 20.5241 43.3164 20.5241 42.5851 20.5241C42.5851 20.5241 42.5851 20.3091 42.5851 19.8803C42.3448 20.1521 42.0971 20.3464 41.8404 20.4645C41.5834 20.5838 41.2787 20.6422 40.9272 20.6422C40.4449 20.6422 40.0139 20.5318 39.6308 20.3121C39.2481 20.091 38.9492 19.7846 38.7327 19.3902C38.5182 18.9958 38.4099 18.5534 38.4099 18.0606C38.4099 17.5615 38.5182 17.1117 38.7357 16.7143C38.9522 16.3152 39.2541 16.0044 39.6416 15.7787C40.029 15.5547 40.466 15.4426 40.9526 15.4426C41.3146 15.4426 41.6256 15.504 41.8853 15.628C42.1467 15.752 42.381 15.9494 42.5851 16.2212V15.5563H43.6814ZM41.0592 16.5366C40.6416 16.5366 40.2978 16.6829 40.0273 16.974C39.7555 17.2654 39.6204 17.6361 39.6204 18.0859C39.6204 18.5207 39.7572 18.8731 40.032 19.1438C40.3051 19.4125 40.6614 19.5486 41.0984 19.5486C41.5324 19.5486 41.8823 19.4112 42.1481 19.1362C42.4138 18.8628 42.5462 18.5027 42.5462 18.0606C42.5462 17.6108 42.4081 17.2447 42.13 16.9607C41.8521 16.6786 41.4962 16.5366 41.0592 16.5366ZM44.658 20.5241C44.658 20.5241 44.658 18.316 44.658 13.9006C44.658 13.9006 45.0571 13.9006 45.8547 13.9006C45.8547 13.9006 45.8547 16.1088 45.8547 20.5241C45.8547 20.5241 45.4553 20.5241 44.658 20.5241Z" fill="#E63D1A"/>
</svg>
