<svg width="177" height="177" viewBox="0 0 177 177" fill="none" xmlns="http://www.w3.org/2000/svg">
<path d="M174.684 95.365C174.726 94.7304 174.652 94.1498 174.463 93.6231C174.285 93.0971 173.996 92.6421 173.597 92.2581C173.208 91.8748 172.72 91.5688 172.131 91.34C171.553 91.112 170.892 90.9735 170.146 90.9245C169.166 90.8602 168.305 90.9545 167.561 91.2076C166.817 91.4718 166.231 91.8916 165.801 92.4672C165.372 93.0539 165.127 93.8037 165.067 94.7165C165.032 95.2398 165.044 95.7381 165.103 96.2115C165.161 96.6849 165.242 97.1487 165.347 97.6027L164.044 97.5172C163.906 97.0609 163.814 96.5909 163.768 96.1071C163.721 95.6344 163.719 95.0696 163.762 94.4128C163.841 93.1994 164.158 92.2028 164.713 91.423C165.267 90.6432 166.02 90.0777 166.971 89.7265C167.921 89.3865 169.02 89.2574 170.267 89.3393C171.168 89.3985 171.984 89.575 172.714 89.8689C173.443 90.174 174.065 90.5838 174.579 91.0983C175.092 91.6239 175.47 92.2525 175.713 92.984C175.966 93.7162 176.063 94.5443 176.002 95.4683C175.962 96.0806 175.862 96.6666 175.702 97.2263C175.542 97.786 175.337 98.2812 175.085 98.7119L173.855 98.0274C174.046 97.671 174.224 97.269 174.387 96.8213C174.55 96.3848 174.649 95.8993 174.684 95.365Z" fill="white"/>
<path d="M162.329 104.864L173.426 103.428L173.442 103.363C173.219 103.333 172.939 103.285 172.599 103.216C172.258 103.159 171.884 103.089 171.48 103.005C171.086 102.925 170.683 102.836 170.271 102.739L163.216 101.084L163.533 99.7316L175.166 102.461L174.658 104.628L164.286 105.976L164.27 106.041L172.945 111.927L172.441 114.077L160.808 111.348L161.148 109.898L168.301 111.576C168.681 111.665 169.054 111.759 169.421 111.856C169.798 111.956 170.148 112.055 170.468 112.153C170.8 112.254 171.079 112.337 171.304 112.401L171.319 112.336L162.046 106.069L162.329 104.864Z" fill="white"/>
<path d="M161.049 126.154C160.2 125.784 159.475 125.34 158.873 124.822C158.282 124.308 157.829 123.727 157.515 123.079C157.197 122.442 157.043 121.748 157.054 120.998C157.06 120.258 157.244 119.474 157.606 118.646C157.98 117.787 158.439 117.098 158.981 116.58C159.534 116.067 160.147 115.707 160.821 115.502C161.505 115.301 162.239 115.25 163.024 115.349C163.808 115.448 164.625 115.683 165.474 116.053C166.598 116.544 167.5 117.156 168.178 117.89C168.856 118.624 169.267 119.466 169.412 120.418C169.552 121.38 169.372 122.434 168.873 123.579C168.396 124.673 167.759 125.491 166.963 126.032C166.177 126.578 165.277 126.855 164.263 126.863C163.255 126.886 162.184 126.65 161.049 126.154ZM164.823 117.503C163.902 117.102 163.054 116.884 162.278 116.85C161.502 116.815 160.819 116.986 160.229 117.362C159.634 117.747 159.159 118.349 158.802 119.167C158.441 119.996 158.325 120.749 158.456 121.426C158.582 122.114 158.921 122.731 159.474 123.277C160.027 123.822 160.764 124.296 161.684 124.697C163.065 125.299 164.269 125.484 165.296 125.25C166.333 125.021 167.121 124.288 167.661 123.05C168.022 122.222 168.142 121.459 168.021 120.761C167.905 120.077 167.571 119.463 167.018 118.917C166.475 118.376 165.743 117.905 164.823 117.503Z" fill="white"/>
<path d="M152.495 128.586L153.289 127.306L162.317 132.911L164.286 129.741L165.409 130.438L160.686 138.045L159.563 137.347L161.523 134.191L152.495 128.586Z" fill="white"/>
<path d="M156.582 143.344C155.591 144.551 154.632 145.236 153.704 145.399C152.777 145.562 151.882 145.289 151.02 144.581C150.641 144.27 150.327 143.904 150.08 143.485C149.834 143.081 149.69 142.624 149.647 142.113C149.605 141.601 149.696 141.042 149.922 140.433C150.156 139.831 150.556 139.185 151.122 138.495L151.993 137.435L148.396 134.483L149.352 133.319L158.588 140.899L156.582 143.344ZM155.671 142.423L156.637 141.246L152.989 138.252L152.224 139.183C151.743 139.77 151.404 140.307 151.206 140.794C151.017 141.288 150.982 141.743 151.102 142.16C151.223 142.576 151.507 142.968 151.956 143.336C152.551 143.824 153.15 143.999 153.755 143.86C154.36 143.721 154.998 143.242 155.671 142.423Z" fill="white"/>
<path d="M137.876 145.636L142.733 141.054L150.933 149.745L146.076 154.327L145.169 153.366L148.93 149.817L146.369 147.103L142.827 150.445L141.931 149.495L145.473 146.153L142.545 143.049L138.783 146.598L137.876 145.636Z" fill="white"/>
<path d="M132.82 149.537L134.031 148.642L140.345 157.19L143.346 154.972L144.132 156.036L136.93 161.355L136.145 160.292L139.133 158.084L132.82 149.537Z" fill="white"/>
<path d="M127.81 152.949L133.581 163.412L132.263 164.139L129.822 159.714L127.858 160.797C126.881 161.336 126.032 161.632 125.31 161.687C124.588 161.741 123.976 161.613 123.474 161.304C122.972 160.995 122.568 160.562 122.261 160.005C121.921 159.389 121.767 158.774 121.797 158.159C121.817 157.549 122.035 156.963 122.452 156.402C122.869 155.841 123.507 155.323 124.367 154.849L127.81 152.949ZM125.121 155.904C124.271 156.373 123.717 156.883 123.46 157.432C123.208 157.992 123.263 158.599 123.624 159.253C123.871 159.703 124.176 160 124.536 160.145C124.892 160.305 125.308 160.331 125.782 160.222C126.248 160.118 126.783 159.899 127.389 159.565L129.191 158.571L127.114 154.805L125.121 155.904Z" fill="white"/>
<path d="M101.689 162.877L103.154 162.527L104.447 167.948L110.405 166.526L109.112 161.105L110.577 160.756L113.35 172.378L111.885 172.728L110.712 167.812L104.754 169.234L105.927 174.149L104.462 174.499L101.689 162.877Z" fill="white"/>
<path d="M90.5127 163.979L92.2464 167.549L96.9668 167.166L98.0854 163.364L99.6032 163.241L95.9204 175.578L94.5693 175.688L88.9615 164.105L90.5127 163.979ZM94.4319 172.341C94.4725 172.428 94.5412 172.584 94.638 172.811C94.7348 173.039 94.832 173.271 94.9297 173.51C95.0172 173.76 95.0886 173.95 95.1439 174.08C95.1815 173.853 95.2241 173.62 95.2719 173.381C95.3094 173.154 95.3539 172.944 95.4053 172.749C95.4455 172.556 95.4825 172.39 95.5161 172.253L96.5747 168.541L92.8051 168.847L94.4319 172.341Z" fill="white"/>
<path d="M73.5587 162.787L87.5786 164.197L86.3828 176.085L84.8843 175.935L85.9461 165.378L81.2006 164.901L80.1388 175.457L78.6403 175.307L79.7021 164.75L74.94 164.271L73.8782 174.828L72.363 174.675L73.5587 162.787Z" fill="white"/>
<path d="M67.0791 173.335L65.7341 172.927L67.6409 166.65C67.722 166.383 67.8165 166.091 67.9244 165.774C68.0185 165.465 68.1179 165.157 68.2226 164.85C68.3273 164.544 68.4276 164.271 68.5236 164.032C68.6056 163.801 68.6714 163.623 68.721 163.498L68.6569 163.478L59.4893 171.03L57.8881 170.543L61.3613 159.111L62.7063 159.519L60.8189 165.732C60.7314 166.02 60.632 166.328 60.5208 166.656C60.4063 166.994 60.2968 167.316 60.192 167.623C60.0734 167.936 59.9714 168.215 59.8862 168.457C59.8009 168.699 59.7351 168.877 59.6888 168.991L59.7528 169.011L68.951 161.416L70.5522 161.903L67.0791 173.335Z" fill="white"/>
<path d="M41.9722 162.537C40.6514 161.703 39.8528 160.836 39.5765 159.936C39.3001 159.036 39.4597 158.115 40.0551 157.171C40.3171 156.756 40.641 156.4 41.0266 156.102C41.3969 155.808 41.8329 155.608 42.3348 155.503C42.8367 155.398 43.4037 155.419 44.0357 155.567C44.6618 155.725 45.3522 156.042 46.107 156.518L47.2674 157.251L49.7504 153.316L51.0241 154.12L44.6469 164.225L41.9722 162.537ZM42.7732 161.518L44.061 162.331L46.5797 158.34L45.5608 157.697C44.9192 157.292 44.3445 157.022 43.8366 156.886C43.3227 156.76 42.8667 156.782 42.4686 156.953C42.0705 157.124 41.7166 157.455 41.407 157.945C40.9961 158.596 40.8971 159.213 41.1097 159.796C41.3224 160.379 41.8769 160.953 42.7732 161.518Z" fill="white"/>
<path d="M36.3639 143.317L35.0754 147.071L38.6921 150.128L42.166 148.222L43.329 149.205L32.0171 155.354L30.982 154.479L35.1753 142.312L36.3639 143.317ZM33.2449 152.009C33.2129 152.099 33.151 152.259 33.0594 152.488C32.9678 152.717 32.8726 152.951 32.7738 153.189C32.6593 153.428 32.5758 153.613 32.5235 153.744C32.7101 153.61 32.9046 153.475 33.107 153.339C33.2936 153.205 33.4737 153.087 33.6473 152.985C33.8124 152.876 33.9551 152.785 34.0756 152.712L37.4444 150.826L34.5561 148.385L33.2449 152.009Z" fill="white"/>
<path d="M34.4646 141.421L25.5679 149.397L20.8315 144.114L21.8158 143.232L25.5469 147.394L28.3256 144.902L27.1415 143.582C26.3446 142.693 25.8386 141.903 25.6235 141.212C25.4001 140.528 25.3938 139.919 25.6046 139.386C25.8072 138.859 26.1535 138.377 26.6436 137.937C27.1835 137.453 27.7455 137.144 28.3296 137.01C28.9062 136.868 29.5106 136.94 30.1428 137.227C30.7749 137.515 31.4373 138.045 32.1299 138.817L34.4646 141.421ZM31.271 139.79C30.5561 138.992 29.9205 138.551 29.3642 138.465C28.7996 138.387 28.239 138.597 27.6825 139.096C27.3004 139.439 27.0679 139.789 26.9851 140.148C26.8866 140.506 26.9439 140.904 27.157 141.343C27.3626 141.773 27.7224 142.274 28.2362 142.847L29.2975 144.031L32.4998 141.16L31.271 139.79Z" fill="white"/>
<path d="M16.7597 127.889C17.5355 127.383 18.3051 127.021 19.0686 126.803C19.8227 126.591 20.5567 126.533 21.2705 126.627C21.9783 126.711 22.6425 126.964 23.2632 127.385C23.8778 127.797 24.4319 128.381 24.9254 129.138C25.4371 129.923 25.7603 130.685 25.8951 131.423C26.0204 132.167 25.9837 132.876 25.7848 133.552C25.5767 134.234 25.2157 134.875 24.702 135.476C24.1883 136.078 23.5436 136.631 22.7679 137.137C21.7398 137.807 20.7329 138.223 19.7472 138.387C18.7615 138.55 17.8313 138.43 16.9566 138.028C16.0759 137.617 15.2943 136.888 14.612 135.841C13.9602 134.841 13.6268 133.86 13.612 132.897C13.5879 131.941 13.851 131.037 14.4013 130.185C14.9362 129.331 15.7223 128.565 16.7597 127.889ZM21.9137 135.796C22.7549 135.247 23.4031 134.658 23.8583 134.029C24.3135 133.399 24.5462 132.735 24.5566 132.036C24.5608 131.327 24.3192 130.599 23.8319 129.851C23.3384 129.094 22.7727 128.584 22.1349 128.32C21.491 128.048 20.7891 127.992 20.0293 128.155C19.2695 128.317 18.469 128.672 17.6279 129.221C16.3661 130.043 15.5507 130.948 15.1816 131.934C14.8031 132.926 14.9824 133.988 15.7195 135.119C16.213 135.876 16.7848 136.396 17.4348 136.678C18.0693 136.957 18.7665 137.015 19.5263 136.853C20.2768 136.696 21.0726 136.344 21.9137 135.796Z" fill="white"/>
<path d="M19.435 119.448L20.0679 120.815L10.4252 125.28L11.9934 128.666L10.7937 129.222L7.03146 121.098L8.23111 120.542L9.79228 123.913L19.435 119.448Z" fill="white"/>
<path d="M17.2135 114.632L5.72956 117.932L5.31362 116.484L10.171 115.089L9.66259 113.319C9.3545 112.247 9.25739 111.364 9.37129 110.669C9.4821 109.964 9.74716 109.412 10.1665 109.013C10.5827 108.603 11.0964 108.311 11.7076 108.135C12.3831 107.941 13.0144 107.916 13.6016 108.061C14.1856 108.195 14.7033 108.522 15.1547 109.042C15.606 109.563 15.9672 110.295 16.2383 111.238L17.2135 114.632ZM15.0529 111.718C14.788 110.796 14.4154 110.166 13.9352 109.828C13.4551 109.49 12.8558 109.424 12.1374 109.631C11.6441 109.773 11.2835 109.992 11.0557 110.29C10.8247 110.577 10.7065 110.953 10.7011 111.419C10.6956 111.885 10.7884 112.45 10.9794 113.115L11.4416 114.723L15.5752 113.536L15.0529 111.718ZM14.5607 105.4L3.07682 108.7L2.66089 107.252L14.1448 103.952L14.5607 105.4Z" fill="white"/>
<path d="M1.90382 86.3554C1.90136 86.9913 2.01071 87.5663 2.23186 88.0804C2.44185 88.5944 2.75812 89.0307 3.18069 89.3893C3.5921 89.7479 4.09866 90.0232 4.70037 90.2152C5.29092 90.4072 5.95994 90.5046 6.70742 90.5074C7.68918 90.5112 8.54322 90.3639 9.26955 90.0655C9.99592 89.7559 10.5555 89.3007 10.9483 88.6997C11.3411 88.0876 11.5393 87.3242 11.5429 86.4093C11.5449 85.885 11.5022 85.3884 11.4147 84.9194C11.3273 84.4505 11.2175 83.9927 11.0853 83.5459L12.3906 83.551C12.5563 83.9979 12.6772 84.4613 12.7534 84.9414C12.8297 85.4102 12.8666 85.9738 12.8641 86.632C12.8594 87.848 12.6044 88.8623 12.0992 89.6748C11.5941 90.4873 10.8777 91.0981 9.95011 91.5073C9.02258 91.9054 7.93406 92.102 6.68455 92.0972C5.78088 92.0937 4.95578 91.9678 4.20925 91.7194C3.46276 91.46 2.81712 91.0893 2.27231 90.6075C1.72754 90.1145 1.3115 89.5104 1.02419 88.7953C0.725722 88.0801 0.578276 87.2595 0.581851 86.3336C0.584219 85.72 0.647863 85.1289 0.772779 84.5604C0.897696 83.9919 1.07258 83.485 1.29743 83.0396L2.56693 83.6469C2.39816 84.0144 2.24596 84.4266 2.11032 84.8835C1.97472 85.3293 1.90588 85.8199 1.90382 86.3554Z" fill="white"/>
<path d="M13.6101 76.2936L2.62944 78.4465L2.61841 78.5125C2.84216 78.5273 3.12552 78.5576 3.46848 78.6036C3.81328 78.6386 4.19018 78.6846 4.59916 78.7416C4.99715 78.7968 5.40521 78.8593 5.82336 78.9291L12.9705 80.123L12.7416 81.493L0.95633 79.5243L1.32304 77.329L11.5856 75.3107L11.5967 75.2447L2.55828 69.9343L2.92223 67.7556L14.7075 69.7242L14.4621 71.1933L7.21598 69.9828C6.83084 69.9185 6.45213 69.8496 6.07983 69.7761C5.69653 69.7007 5.34165 69.6245 5.01521 69.5473C4.67776 69.4683 4.39442 69.4041 4.16517 69.3544L4.15414 69.4205L13.8142 75.0722L13.6101 76.2936Z" fill="white"/>
<path d="M13.5167 54.9265C14.3873 55.242 15.1393 55.6392 15.7727 56.1179C16.3956 56.5929 16.8842 57.1438 17.2385 57.7706C17.5966 58.3869 17.7942 59.0696 17.8312 59.8188C17.872 60.5574 17.7385 61.3516 17.4305 62.2011C17.1112 63.0822 16.6974 63.7985 16.189 64.35C15.6701 64.8976 15.081 65.2952 14.4217 65.5428C13.7518 65.7866 13.0223 65.8841 12.233 65.8354C11.4438 65.7867 10.6138 65.6046 9.74327 65.289C8.5895 64.8709 7.651 64.3171 6.92776 63.6278C6.20453 62.9385 5.74042 62.1236 5.53544 61.183C5.33425 60.232 5.44654 59.1691 5.8723 57.9943C6.27906 56.872 6.86243 56.0155 7.62242 55.4247C8.37192 54.83 9.25229 54.4964 10.2635 54.4239C11.2681 54.337 12.3525 54.5046 13.5167 54.9265ZM10.3007 63.8001C11.2447 64.1422 12.1051 64.3057 12.8819 64.2906C13.6587 64.2755 14.3295 64.0617 14.8943 63.6493C15.4629 63.2265 15.8992 62.5955 16.2034 61.7564C16.5113 60.9068 16.5786 60.148 16.4054 59.48C16.2359 58.8015 15.8579 58.2077 15.2711 57.6983C14.6844 57.189 13.919 56.7633 12.975 56.4212C11.559 55.908 10.346 55.8006 9.33597 56.0991C8.31545 56.3938 7.5752 57.1757 7.11523 58.4448C6.80732 59.2944 6.73618 60.0637 6.90181 60.7526C7.06076 61.4273 7.4336 62.0193 8.02034 62.5286C8.59659 63.0341 9.35671 63.458 10.3007 63.8001Z" fill="white"/>
<path d="M21.8498 52.0149L21.1369 53.3417L11.7759 48.3123L10.0097 51.5997L8.8451 50.974L13.0824 43.0872L14.247 43.7129L12.4887 46.9856L21.8498 52.0149Z" fill="white"/>
<path d="M16.7003 37.6986C17.6098 36.4288 18.5219 35.6824 19.4365 35.4592C20.3511 35.2361 21.2619 35.4493 22.1689 36.099C22.5679 36.3849 22.9047 36.729 23.1791 37.1314C23.4509 37.5183 23.6248 37.9653 23.7006 38.4725C23.7764 38.9797 23.7219 39.5444 23.5369 40.1667C23.3428 40.7824 22.9859 41.4531 22.4662 42.1787L21.6671 43.2943L25.4492 46.0034L24.5721 47.2278L14.8584 40.2698L16.7003 37.6986ZM17.6698 38.5578L16.783 39.7958L20.6195 42.5439L21.3212 41.5644C21.7629 40.9476 22.0665 40.3897 22.2319 39.8906C22.3882 39.385 22.3927 38.9285 22.2454 38.5211C22.0981 38.1137 21.7886 37.741 21.317 37.4032C20.6912 36.9549 20.0812 36.8199 19.487 36.9981C18.8927 37.1763 18.287 37.6962 17.6698 38.5578Z" fill="white"/>
<path d="M35.4457 33.9276L30.8812 38.8009L22.1605 30.6327L26.7251 25.7594L27.69 26.6632L24.155 30.4373L26.8787 32.9884L30.2077 29.4342L31.1604 30.3265L27.8313 33.8807L30.9459 36.7979L34.4808 33.0238L35.4457 33.9276Z" fill="white"/>
<path d="M40.0484 29.8763L38.8947 30.8445L32.0639 22.7042L29.2052 25.1031L28.3554 24.0903L35.2137 18.3353L36.0635 19.348L33.2176 21.7361L40.0484 29.8763Z" fill="white"/>
<path d="M44.7437 26.1656L38.3295 16.0846L39.6002 15.2761L42.3132 19.54L44.2052 18.3362C45.1464 17.7373 45.9756 17.3883 46.6927 17.2891C47.4097 17.1899 48.0283 17.2789 48.5486 17.5562C49.0688 17.8334 49.4996 18.2403 49.841 18.7769C50.2183 19.3699 50.4112 19.9744 50.4197 20.5905C50.4376 21.2006 50.2562 21.7986 49.8754 22.3848C49.4946 22.9709 48.89 23.5274 48.0617 24.0545L44.7437 26.1656ZM47.2429 23.0481C48.0618 22.5271 48.5825 21.9842 48.805 21.4195C49.0215 20.8454 48.9292 20.243 48.5279 19.6123C48.2524 19.1793 47.9303 18.9017 47.5615 18.7793C47.1961 18.6415 46.7798 18.6419 46.3126 18.7805C45.8549 18.9131 45.3342 19.165 44.7506 19.5363L43.0139 20.6413L45.3227 24.2699L47.2429 23.0481Z" fill="white"/>
<path d="M66.0078 15.6634L64.5957 16.1872L62.6576 10.9624L56.9151 13.0926L58.8532 18.3174L57.4411 18.8412L53.2855 7.63853L54.6976 7.11471L56.4553 11.8531L62.1978 9.72291L60.4402 4.98453L61.8522 4.46072L66.0078 15.6634Z" fill="white"/>
<path d="M76.7537 13.2081L74.5959 9.87745L69.958 10.8357L69.3133 14.7454L67.8219 15.0536L69.9665 2.35825L71.2939 2.08397L78.2778 12.8932L76.7537 13.2081ZM71.84 5.38877C71.7892 5.30813 71.7019 5.161 71.578 4.94736C71.4541 4.73372 71.3291 4.51462 71.2029 4.29006C71.0854 4.05231 70.9913 3.8724 70.9205 3.75032C70.911 3.98012 70.8972 4.21652 70.8791 4.4595C70.8696 4.6893 70.8513 4.90384 70.8241 5.10312C70.8078 5.30015 70.7914 5.46873 70.7748 5.60887L70.1787 9.42307L73.8825 8.65779L71.84 5.38877Z" fill="white"/>
<path d="M93.4894 12.2735L79.4025 12.5998L79.1259 0.654421L80.6316 0.619544L80.8773 11.2265L85.6454 11.1161L85.3997 0.5091L86.9054 0.474222L87.1511 11.0812L91.9359 10.9703L91.6902 0.36339L93.2127 0.328125L93.4894 12.2735Z" fill="white"/>
<path d="M99.0406 0.97333L100.425 1.21555L99.295 7.67743C99.2469 7.95217 99.1885 8.25342 99.1199 8.58119C99.0641 8.89989 99.0029 9.21762 98.9362 9.5344C98.8694 9.85117 98.803 10.134 98.7368 10.3829C98.6835 10.6228 98.6398 10.8077 98.6058 10.9376L98.6717 10.9492L106.854 2.34013L108.503 2.62848L106.444 14.3983L105.059 14.1561L106.178 7.76018C106.23 7.46346 106.291 7.14572 106.362 6.80696C106.434 6.45722 106.504 6.12396 106.571 5.80718C106.65 5.48134 106.718 5.193 106.773 4.94216C106.828 4.69132 106.872 4.50642 106.904 4.38746L106.838 4.37593L98.6302 13.0315L96.9818 12.7432L99.0406 0.97333Z" fill="white"/>
<path d="M120.795 6.62764C122.243 7.2145 123.182 7.9264 123.613 8.76333C124.044 9.60025 124.05 10.5357 123.631 11.5696C123.447 12.0245 123.191 12.4324 122.864 12.7935C122.551 13.1483 122.158 13.422 121.682 13.6145C121.207 13.8071 120.645 13.8863 119.997 13.8521C119.353 13.8077 118.617 13.6178 117.79 13.2824L116.518 12.7668L114.77 17.0782L113.375 16.5123L117.864 5.43922L120.795 6.62764ZM120.187 7.77148L118.776 7.19929L117.002 11.5727L118.119 12.0254C118.822 12.3105 119.436 12.4749 119.96 12.5188C120.488 12.5524 120.933 12.4498 121.294 12.2112C121.656 11.9726 121.946 11.5845 122.164 11.0468C122.453 10.3334 122.441 9.70876 122.129 9.17279C121.816 8.63682 121.169 8.16972 120.187 7.77148Z" fill="white"/>
<path d="M129.499 24.383L130.097 20.4599L125.993 18.0963L122.915 20.5912L121.595 19.8312L131.629 11.7638L132.804 12.4403L130.847 25.1597L129.499 24.383ZM131.018 15.2738C131.033 15.1797 131.066 15.0117 131.115 14.7697C131.164 14.5277 131.216 14.2809 131.271 14.0292C131.341 13.7735 131.39 13.5764 131.418 13.4381C131.259 13.6037 131.091 13.7712 130.916 13.9408C130.757 14.1064 130.6 14.2546 130.448 14.3855C130.305 14.522 130.181 14.6372 130.075 14.7309L127.096 17.1867L130.374 19.0743L131.018 15.2738Z" fill="white"/>
<path d="M131.837 25.9499L139.18 16.5233L144.778 20.8834L143.965 21.9264L139.556 18.4918L137.262 21.4359L138.662 22.526C139.604 23.2595 140.242 23.9473 140.576 24.5894C140.917 25.2228 141.031 25.8207 140.918 26.3832C140.812 26.937 140.557 27.4735 140.152 27.9928C139.707 28.5649 139.208 28.9687 138.657 29.2041C138.115 29.4464 137.507 29.4822 136.834 29.3115C136.161 29.1408 135.415 28.7366 134.597 28.0991L131.837 25.9499ZM135.27 26.9899C136.115 27.6481 136.819 27.97 137.381 27.9557C137.951 27.9326 138.465 27.6262 138.924 27.0365C139.24 26.6316 139.406 26.2452 139.424 25.8773C139.458 25.5075 139.331 25.1258 139.043 24.7322C138.765 24.3455 138.322 23.9157 137.715 23.4426L136.46 22.4657L133.818 25.8588L135.27 26.9899Z" fill="white"/>
<path d="M151.848 36.2672C151.175 36.9027 150.482 37.3955 149.769 37.7458C149.064 38.0883 148.353 38.2767 147.633 38.3111C146.922 38.3535 146.223 38.2227 145.538 37.9187C144.86 37.6227 144.211 37.1461 143.59 36.4888C142.947 35.8072 142.494 35.1153 142.23 34.4131C141.975 33.7033 141.885 32.9983 141.96 32.2981C142.044 31.5902 142.285 30.8948 142.684 30.2119C143.083 29.529 143.619 28.8698 144.292 28.2343C145.185 27.3921 146.102 26.8032 147.043 26.4675C147.984 26.1318 148.92 26.0841 149.852 26.3243C150.792 26.5726 151.691 27.1512 152.548 28.06C153.368 28.9283 153.87 29.8347 154.056 30.7793C154.249 31.7162 154.151 32.6525 153.761 33.5882C153.386 34.5244 152.749 35.4174 151.848 36.2672ZM145.371 29.4022C144.641 30.0912 144.107 30.786 143.771 31.4865C143.435 32.187 143.324 32.8823 143.438 33.5722C143.56 34.2703 143.927 34.9439 144.54 35.5931C145.16 36.2504 145.807 36.6519 146.482 36.7978C147.164 36.9518 147.864 36.8814 148.583 36.5866C149.302 36.2919 150.027 35.7999 150.757 35.1109C151.853 34.0773 152.494 33.0424 152.682 32.0061C152.878 30.9621 152.513 29.9492 151.587 28.9673C150.967 28.31 150.312 27.9003 149.622 27.7382C148.948 27.5765 148.251 27.6431 147.533 27.9379C146.822 28.225 146.101 28.7131 145.371 29.4022Z" fill="white"/>
<path d="M150.59 44.8576L149.722 43.6268L158.406 37.502L156.255 34.4524L157.335 33.6904L162.496 41.0068L161.415 41.7687L159.274 38.7328L150.59 44.8576Z" fill="white"/>
<path d="M153.727 49.2861L164.435 43.9848L165.103 45.3346L160.574 47.5769L161.39 49.2266C161.885 50.2264 162.139 51.0781 162.151 51.7816C162.168 52.4952 162.006 53.0858 161.665 53.5534C161.329 54.0311 160.876 54.411 160.306 54.6931C159.676 55.005 159.059 55.1422 158.456 55.1049C157.857 55.0776 157.289 54.8483 156.752 54.4171C156.215 53.9859 155.729 53.3304 155.293 52.4505L153.727 49.2861ZM156.374 51.7663C156.799 52.6261 157.279 53.1794 157.811 53.4259C158.344 53.6725 158.946 53.63 159.616 53.2984C160.076 53.0707 160.391 52.79 160.562 52.4564C160.738 52.1328 160.787 51.7413 160.709 51.282C160.631 50.8227 160.438 50.2831 160.131 49.6632L159.389 48.1634L155.535 50.0716L156.374 51.7663ZM157.988 57.8946L168.697 52.5934L169.365 53.9431L158.657 59.2444L157.988 57.8946Z" fill="white"/>
<path d="M173.219 73.8571C173.219 75.8788 171.58 77.5178 169.559 77.5178C167.537 77.5178 165.898 75.8788 165.898 73.8571C165.898 71.8353 167.537 70.1963 169.559 70.1963C171.58 70.1963 173.219 71.8353 173.219 73.8571Z" fill="white"/>
</svg>
